<svg width="225" height="46" viewBox="0 0 225 46" fill="none" xmlns="http://www.w3.org/2000/svg">
<path d="M17.5445 5.80932C17.9116 5.06769 18.9692 5.06733 19.3367 5.80871L24.0667 15.3495C24.2128 15.6441 24.4943 15.8481 24.8198 15.895L35.378 17.4195C36.1995 17.5381 36.5273 18.5481 35.9319 19.1265L28.2979 26.5429C28.0614 26.7726 27.9534 27.1043 28.0091 27.4293L29.8076 37.9054C29.9477 38.7218 29.0913 39.3449 28.3576 38.9602L18.9046 34.0036C18.6137 33.8511 18.2664 33.8511 17.9755 34.0038L8.53284 38.9591C7.79917 39.3442 6.94238 38.7211 7.08257 37.9045L8.88085 27.4293C8.93665 27.1043 8.82861 26.7726 8.59208 26.5429L0.958067 19.1265C0.362722 18.5481 0.690461 17.5381 1.51197 17.4195L12.0698 15.8951C12.3955 15.8481 12.6772 15.6439 12.8231 15.3489L17.5445 5.80932Z" fill="white"/>
<path d="M64.5445 5.80932C64.9116 5.06769 65.9692 5.06733 66.3367 5.80871L71.0667 15.3495C71.2128 15.6441 71.4943 15.8481 71.8198 15.895L82.378 17.4195C83.1995 17.5381 83.5273 18.5481 82.9319 19.1265L75.2979 26.5429C75.0614 26.7726 74.9534 27.1043 75.0091 27.4293L76.8076 37.9054C76.9477 38.7218 76.0913 39.3449 75.3576 38.9602L65.9046 34.0036C65.6137 33.8511 65.2664 33.8511 64.9755 34.0038L55.5328 38.9591C54.7992 39.3442 53.9424 38.7211 54.0826 37.9045L55.8809 27.4293C55.9366 27.1043 55.8286 26.7726 55.5921 26.5429L47.9581 19.1265C47.3627 18.5481 47.6905 17.5381 48.512 17.4195L59.0698 15.8951C59.3955 15.8481 59.6772 15.6439 59.8231 15.3489L64.5445 5.80932Z" fill="white"/>
<path d="M111.545 5.80932C111.912 5.06769 112.969 5.06733 113.337 5.80871L118.067 15.3495C118.213 15.6441 118.494 15.8481 118.82 15.895L129.378 17.4195C130.2 17.5381 130.527 18.5481 129.932 19.1265L122.298 26.5429C122.061 26.7726 121.953 27.1043 122.009 27.4293L123.808 37.9054C123.948 38.7218 123.091 39.3449 122.358 38.9602L112.905 34.0036C112.614 33.8511 112.266 33.8511 111.976 34.0038L102.533 38.9591C101.799 39.3442 100.942 38.7211 101.083 37.9045L102.881 27.4293C102.937 27.1043 102.829 26.7726 102.592 26.5429L94.9581 19.1265C94.3627 18.5481 94.6905 17.5381 95.512 17.4195L106.07 15.8951C106.395 15.8481 106.677 15.6439 106.823 15.3489L111.545 5.80932Z" fill="white"/>
<path d="M158.545 5.80932C158.912 5.06769 159.969 5.06733 160.337 5.80871L165.067 15.3495C165.213 15.6441 165.494 15.8481 165.82 15.895L176.378 17.4195C177.2 17.5381 177.527 18.5481 176.932 19.1265L169.298 26.5429C169.061 26.7726 168.953 27.1043 169.009 27.4293L170.808 37.9054C170.948 38.7218 170.091 39.3449 169.358 38.9602L159.905 34.0036C159.614 33.8511 159.266 33.8511 158.976 34.0038L149.533 38.9591C148.799 39.3442 147.942 38.7211 148.083 37.9045L149.881 27.4293C149.937 27.1043 149.829 26.7726 149.592 26.5429L141.958 19.1265C141.363 18.5481 141.69 17.5381 142.512 17.4195L153.07 15.8951C153.395 15.8481 153.677 15.6439 153.823 15.3489L158.545 5.80932Z" fill="white"/>
<path d="M205.545 5.80932C205.912 5.06769 206.969 5.06733 207.337 5.80871L212.067 15.3495C212.213 15.6441 212.494 15.8481 212.82 15.895L223.378 17.4195C224.2 17.5381 224.527 18.5481 223.932 19.1265L216.298 26.5429C216.061 26.7726 215.953 27.1043 216.009 27.4293L217.808 37.9054C217.948 38.7218 217.091 39.3449 216.358 38.9602L206.905 34.0036C206.614 33.8511 206.266 33.8511 205.976 34.0038L196.533 38.9591C195.799 39.3442 194.942 38.7211 195.083 37.9045L196.881 27.4293C196.937 27.1043 196.829 26.7726 196.592 26.5429L188.958 19.1265C188.363 18.5481 188.69 17.5381 189.512 17.4195L200.07 15.8951C200.395 15.8481 200.677 15.6439 200.823 15.3489L205.545 5.80932Z" fill="white" fill-opacity="0.2"/>
<mask id="mask0_259_1696" style="mask-type:alpha" maskUnits="userSpaceOnUse" x="188" y="4" width="19" height="36">
<rect x="188" y="4" width="18.5" height="36" fill="white"/>
</mask>
<g mask="url(#mask0_259_1696)">
<path d="M205.545 5.80932C205.912 5.06769 206.969 5.06733 207.337 5.80871L212.067 15.3495C212.213 15.6441 212.494 15.8481 212.82 15.895L223.378 17.4195C224.2 17.5381 224.527 18.5481 223.932 19.1265L216.298 26.5429C216.061 26.7726 215.953 27.1043 216.009 27.4293L217.808 37.9054C217.948 38.7218 217.091 39.3449 216.358 38.9602L206.905 34.0036C206.614 33.8511 206.266 33.8511 205.976 34.0038L196.533 38.9591C195.799 39.3442 194.942 38.7211 195.083 37.9045L196.881 27.4293C196.937 27.1043 196.829 26.7726 196.592 26.5429L188.958 19.1265C188.363 18.5481 188.69 17.5381 189.512 17.4195L200.07 15.8951C200.395 15.8481 200.677 15.6439 200.823 15.3489L205.545 5.80932Z" fill="white"/>
</g>
</svg>
