<svg id="Ebene_1" data-name="Ebene 1" xmlns="http://www.w3.org/2000/svg" xmlns:xlink="http://www.w3.org/1999/xlink" viewBox="0 0 134.66 72.02"><defs><style>.cls-1,.cls-7,.cls-8,.cls-9{fill:#fff;}.cls-1,.cls-9{fill-rule:evenodd;}.cls-2{fill:#b5b5b5;}.cls-3{fill:#b1b4b7;}.cls-4{fill:#e4e5e6;}.cls-5{fill:#cbcdcf;}.cls-6{isolation:isolate;opacity:0.12;}.cls-8{stroke:#fff;stroke-miterlimit:10;stroke-width:0.2px;}.cls-9{fill-opacity:0.1;}.cls-10{mask:url(#mask);}.cls-11{fill:#ffc45f;}</style><mask id="mask" x="0" y="0" width="134.66" height="22.05" maskUnits="userSpaceOnUse"><g id="mask-2"><path id="path-1" class="cls-1" d="M11.76,0l3.18,7.38,8,.75-6,5.3,1.76,7.84-6.91-4.1-6.91,4.1,1.76-7.84-6-5.3,8-.75ZM39.69,0l3.18,7.38,8,.75-6,5.3,1.76,7.84-6.91-4.1-6.91,4.1,1.76-7.84-6-5.3,8-.75ZM67.62,0,70.8,7.38l8,.75-6,5.3,1.76,7.84-6.91-4.1-6.91,4.1,1.76-7.84-6-5.3,8-.75ZM95.55,0l3.18,7.38,8,.75-6,5.3,1.76,7.84-6.91-4.1-6.91,4.1,1.76-7.84-6-5.3,8-.75Zm27.93,0,3.18,7.38,8,.75-6,5.3,1.76,7.84-6.91-4.1-6.91,4.1,1.76-7.84-6-5.3,8-.75Z"/></g></mask></defs><path class="cls-2" d="M125.13,32H7.52a13.51,13.51,0,0,0-2,.18,6.42,6.42,0,0,0-1.9.62A6.54,6.54,0,0,0,2,34,6.24,6.24,0,0,0,.82,35.64a6.8,6.8,0,0,0-.63,1.91,12.18,12.18,0,0,0-.17,2c0,.31,0,.61,0,.92V63.58c0,.31,0,.61,0,.93a12.18,12.18,0,0,0,.17,2,6.64,6.64,0,0,0,.63,1.9A6.07,6.07,0,0,0,2,70,6.26,6.26,0,0,0,3.62,71.2a6.76,6.76,0,0,0,1.9.64,15,15,0,0,0,2,.17H127.14a14.85,14.85,0,0,0,2-.17,6.94,6.94,0,0,0,1.91-.64A6.44,6.44,0,0,0,132.67,70a6.54,6.54,0,0,0,1.18-1.62,6.94,6.94,0,0,0,.62-1.9,13.39,13.39,0,0,0,.18-2c0-.32,0-.62,0-.93V40.47c0-.31,0-.61,0-.92a13.39,13.39,0,0,0-.18-2,7.12,7.12,0,0,0-.62-1.91,6.46,6.46,0,0,0-2.8-2.8,6.57,6.57,0,0,0-1.91-.62,13.39,13.39,0,0,0-2-.18h-2Z"/><path d="M8.44,71.15h-.9A14.31,14.31,0,0,1,5.67,71,5.89,5.89,0,0,1,4,70.43a5.42,5.42,0,0,1-1.39-1A5,5,0,0,1,1.6,68a5.89,5.89,0,0,1-.55-1.66,12.22,12.22,0,0,1-.16-1.88c0-.21,0-.91,0-.91V40.47s0-.69,0-.9a12.1,12.1,0,0,1,.16-1.87A5.89,5.89,0,0,1,1.6,36a5.38,5.38,0,0,1,1-1.4,6.05,6.05,0,0,1,1.4-1,5.77,5.77,0,0,1,1.66-.54,13.63,13.63,0,0,1,1.87-.17H127.13a13.63,13.63,0,0,1,1.86.17,5.94,5.94,0,0,1,1.67.54,5.79,5.79,0,0,1,1.39,1,5.48,5.48,0,0,1,1,1.4,6,6,0,0,1,.54,1.65,13.68,13.68,0,0,1,.17,1.89v.89c0,.37,0,.73,0,1.09V62.49c0,.36,0,.72,0,1.07v.93a13.4,13.4,0,0,1-.17,1.86,6.06,6.06,0,0,1-.54,1.67,5.21,5.21,0,0,1-1,1.38,5.45,5.45,0,0,1-1.4,1A6.23,6.23,0,0,1,129,71a14.31,14.31,0,0,1-1.87.16H8.44Z"/><path class="cls-3" d="M10.25,39.56A2,2,0,0,0,9.79,41V63.08a2,2,0,0,0,.46,1.41l.07.07L22.71,52.17v-.29L10.32,39.49Z"/><path class="cls-4" d="M26.84,56.3l-4.13-4.13v-.29l4.13-4.13.1,0,4.89,2.78c1.4.8,1.4,2.09,0,2.89l-4.89,2.78Z"/><path class="cls-5" d="M26.94,56.25,22.71,52,10.25,64.49a1.62,1.62,0,0,0,2.08.06l14.61-8.3"/><path class="cls-5" d="M26.94,47.8,12.33,39.5a1.62,1.62,0,0,0-2.08.06L22.71,52Z"/><path class="cls-3" d="M26.84,56.16,12.33,64.4a1.68,1.68,0,0,1-2,0h0l-.07.08h0l.07.07h0a1.68,1.68,0,0,0,2,0l14.61-8.3Z"/><path class="cls-6" d="M10.25,64.34a2,2,0,0,1-.46-1.4v.14a2,2,0,0,0,.46,1.41l.07-.08Z"/><path class="cls-7" d="M31.83,53.32l-5,2.84.1.09,4.89-2.78A1.76,1.76,0,0,0,32.88,52h0A1.87,1.87,0,0,1,31.83,53.32Z"/><path class="cls-7" d="M12.33,39.65l19.5,11.08A1.87,1.87,0,0,1,32.88,52h0a1.76,1.76,0,0,0-1.05-1.44L12.33,39.5c-1.4-.79-2.54-.13-2.54,1.47v.14C9.79,39.51,10.93,38.85,12.33,39.65Z"/><path class="cls-7" d="M68,53.77A4.26,4.26,0,1,0,72.24,58,4.19,4.19,0,0,0,68,53.77Zm0,6.83A2.58,2.58,0,1,1,70.37,58,2.46,2.46,0,0,1,68,60.6Zm-9.32-6.83A4.26,4.26,0,1,0,62.92,58,4.19,4.19,0,0,0,58.65,53.77Zm0,6.83A2.58,2.58,0,1,1,61.05,58,2.46,2.46,0,0,1,58.65,60.6ZM47.58,55.08v1.8h4.31a3.74,3.74,0,0,1-1,2.27,4.41,4.41,0,0,1-3.33,1.32,4.8,4.8,0,0,1,0-9.6,4.57,4.57,0,0,1,3.25,1.29l1.27-1.27a6.29,6.29,0,0,0-4.52-1.82,6.61,6.61,0,1,0,0,13.21,6,6,0,0,0,4.6-1.86,5.92,5.92,0,0,0,1.57-4.22,6.13,6.13,0,0,0-.1-1.12Zm45.3,1.4a4,4,0,0,0-3.64-2.71,4,4,0,0,0-4,4.25,4.17,4.17,0,0,0,4.22,4.26A4.25,4.25,0,0,0,93,60.39l-1.45-1a2.46,2.46,0,0,1-2.1,1.17,2.16,2.16,0,0,1-2.06-1.29L93.08,57Zm-5.8,1.41a2.34,2.34,0,0,1,2.23-2.48,1.64,1.64,0,0,1,1.58.91ZM82.46,62h1.87V49.52H82.46Zm-3.06-7.3h-.06a3,3,0,0,0-2.24-.95,4.26,4.26,0,0,0,0,8.51,2.9,2.9,0,0,0,2.24-1h.06v.61c0,1.63-.87,2.5-2.27,2.5A2.34,2.34,0,0,1,75,62.91l-1.63.67a4.06,4.06,0,0,0,3.77,2.52c2.19,0,4-1.29,4-4.44V54H79.4ZM77.26,60.6a2.58,2.58,0,0,1,0-5.15,2.6,2.6,0,0,1,0,5.15Zm24.38-11.08H97.17V62H99V57.28h2.61a3.89,3.89,0,1,0,0-7.76Zm0,6H99V51.26h2.66a2.14,2.14,0,1,1,0,4.28Zm11.53-1.79a3.5,3.5,0,0,0-3.33,1.91l1.66.69a1.76,1.76,0,0,1,1.7-.91,1.79,1.79,0,0,1,2,1.6v.13a4.16,4.16,0,0,0-1.94-.48c-1.79,0-3.61,1-3.61,2.82a2.9,2.9,0,0,0,3.11,2.75A2.65,2.65,0,0,0,115.15,61h.06v1H117V57.21C117,55,115.36,53.75,113.22,53.75ZM113,60.6c-.61,0-1.46-.31-1.46-1.06,0-1,1.06-1.34,2-1.34a3.32,3.32,0,0,1,1.7.42A2.26,2.26,0,0,1,113,60.6ZM123.58,54l-2.14,5.42h-.07L119.15,54h-2l3.33,7.58-1.9,4.21h2L125.65,54Zm-16.81,8h1.86V49.52h-1.86Z"/><path class="cls-8" d="M42.84,45.15a1.76,1.76,0,0,1-1.11-.36,2,2,0,0,1-.66-1l.71-.29a1.1,1.1,0,0,0,1.1,1,1,1,0,0,0,.82-.35,1.45,1.45,0,0,0,.29-.94V39h.77v4.09a2,2,0,0,1-.54,1.51A1.86,1.86,0,0,1,42.84,45.15Z"/><path class="cls-8" d="M49.54,39.76H46.81v1.9h2.46v.72H46.81v1.9h2.73V45H46V39h3.5Z"/><path class="cls-8" d="M52.79,45H52V39.76H50.34V39h4.13v.74H52.79Z"/><path class="cls-8" d="M55.1,45v-.81l3.2-4.45H55.24V39h3.95v.8L56,44.28h3.23V45Z"/><path class="cls-8" d="M62.38,45H61.6V39.76H59.93V39h4.12v.74H62.38Z"/><path class="cls-8" d="M67,45V39h2.17a1.77,1.77,0,0,1,1.22.46,1.52,1.52,0,0,1,.51,1.17,1.31,1.31,0,0,1-.22.76,1.41,1.41,0,0,1-.59.49v0a1.66,1.66,0,0,1,.73.52,1.39,1.39,0,0,1,.28.86,1.57,1.57,0,0,1-.54,1.22,1.81,1.81,0,0,1-1.28.49Zm.77-3.43h1.4a.89.89,0,0,0,.7-.29.89.89,0,0,0,0-1.26.85.85,0,0,0-.67-.28H67.81Zm0,2.69h1.55a.92.92,0,0,0,.72-.31,1,1,0,0,0,.27-.68,1,1,0,0,0-1-1H67.81Z"/><path class="cls-8" d="M75.68,39.76H73v1.9h2.46v.72H73v1.9h2.73V45h-3.5V39h3.5Z"/><path class="cls-8" d="M76.89,45V39h.77v6Z"/><path id="path-1-2" data-name="path-1" class="cls-9" d="M11.76,0l3.18,7.38,8,.75-6,5.3,1.76,7.84-6.91-4.1-6.91,4.1,1.76-7.84-6-5.3,8-.75ZM39.69,0l3.18,7.38,8,.75-6,5.3,1.76,7.84-6.91-4.1-6.91,4.1,1.76-7.84-6-5.3,8-.75ZM67.62,0,70.8,7.38l8,.75-6,5.3,1.76,7.84-6.91-4.1-6.91,4.1,1.76-7.84-6-5.3,8-.75ZM95.55,0l3.18,7.38,8,.75-6,5.3,1.76,7.84-6.91-4.1-6.91,4.1,1.76-7.84-6-5.3,8-.75Zm27.93,0,3.18,7.38,8,.75-6,5.3,1.76,7.84-6.91-4.1-6.91,4.1,1.76-7.84-6-5.3,8-.75Z"/><g class="cls-10"><rect id="color" class="cls-11" width="118.66" height="22.05"/></g></svg>