<svg width="813" height="436" viewBox="0 0 813 436" fill="none" xmlns="http://www.w3.org/2000/svg">
<g filter="url(#filter0_d_2038_20005)">
<rect x="523.487" y="183" width="260" height="196" rx="30" transform="rotate(6 523.487 183)" fill="#191A1C" shape-rendering="crispEdges"/>
<g clip-path="url(#clip0_2038_20005)">
<path fill-rule="evenodd" clip-rule="evenodd" d="M636.298 267.254C636.356 266.704 636.848 266.306 637.397 266.364L651.321 267.827C651.87 267.885 652.268 268.377 652.211 268.926C652.153 269.475 651.661 269.874 651.112 269.816L637.188 268.353C636.639 268.295 636.241 267.803 636.298 267.254Z" fill="#28EBCF"/>
<path fill-rule="evenodd" clip-rule="evenodd" d="M626.299 257.153C626.357 256.604 626.849 256.205 627.398 256.263L653.256 258.981C653.805 259.039 654.204 259.531 654.146 260.08C654.088 260.629 653.596 261.028 653.047 260.97L627.189 258.252C626.64 258.194 626.242 257.702 626.299 257.153Z" fill="#28EBCF"/>
<path fill-rule="evenodd" clip-rule="evenodd" d="M629.746 235.567C630.571 234.899 631.627 234.586 632.682 234.697L662.517 237.833C663.572 237.944 664.54 238.469 665.208 239.294C665.875 240.118 666.188 241.174 666.077 242.229L665.241 250.185C665.183 250.735 664.691 251.133 664.142 251.075C663.593 251.018 663.194 250.526 663.252 249.976L664.088 242.02C664.144 241.493 663.987 240.965 663.654 240.552C663.32 240.14 662.836 239.878 662.308 239.822L632.473 236.686C631.945 236.631 631.417 236.787 631.005 237.121C630.593 237.455 630.33 237.939 630.275 238.466L628.079 259.351C628.024 259.879 628.18 260.407 628.514 260.819C628.848 261.231 629.332 261.494 629.859 261.549L652.733 263.953C653.283 264.011 653.681 264.503 653.623 265.052C653.566 265.602 653.074 266 652.524 265.942L629.65 263.538C628.595 263.427 627.628 262.902 626.96 262.078C626.292 261.253 625.98 260.197 626.09 259.142L628.285 238.257C628.396 237.202 628.922 236.234 629.746 235.567Z" fill="#28EBCF"/>
<path fill-rule="evenodd" clip-rule="evenodd" d="M656.186 250.239C655.636 250.181 655.144 250.58 655.087 251.129L653.101 270.025C653.043 270.574 653.441 271.066 653.991 271.124L661.947 271.96C662.496 272.018 662.988 271.62 663.046 271.07L665.032 252.174C665.09 251.625 664.691 251.133 664.142 251.075L656.186 250.239ZM653.098 250.92C653.271 249.272 654.747 248.077 656.395 248.25L664.351 249.086C665.999 249.26 667.194 250.736 667.021 252.383L665.035 271.279C664.862 272.927 663.385 274.123 661.738 273.949L653.781 273.113C652.134 272.94 650.938 271.464 651.112 269.816L653.098 250.92Z" fill="#28EBCF"/>
<path fill-rule="evenodd" clip-rule="evenodd" d="M656.189 269.344C656.247 268.795 656.739 268.396 657.288 268.454L659.277 268.663C659.826 268.721 660.225 269.213 660.167 269.762C660.109 270.312 659.617 270.71 659.068 270.652L657.079 270.443C656.53 270.385 656.131 269.893 656.189 269.344Z" fill="#28EBCF"/>
</g>
<path d="M545.072 316.99L546.546 302.968L549.649 303.294L548.44 314.79L554.706 315.449L554.44 317.975L545.072 316.99ZM560.621 318.785C559.587 318.677 558.7 318.376 557.961 317.882C557.223 317.376 556.682 316.722 556.337 315.922C555.994 315.108 555.876 314.184 555.985 313.15C556.094 312.116 556.4 311.243 556.904 310.532C557.409 309.807 558.074 309.281 558.9 308.952C559.725 308.623 560.655 308.513 561.69 308.621C562.724 308.73 563.611 309.031 564.35 309.524C565.089 310.018 565.63 310.671 565.974 311.485C566.319 312.285 566.437 313.203 566.328 314.237C566.219 315.271 565.912 316.151 565.407 316.875C564.903 317.587 564.238 318.113 563.411 318.455C562.586 318.784 561.656 318.894 560.621 318.785ZM560.862 316.498C562.32 316.651 563.148 315.793 563.344 313.923C563.443 312.982 563.325 312.259 562.989 311.754C562.667 311.251 562.154 310.963 561.451 310.889C559.993 310.736 559.165 311.594 558.969 313.464C558.772 315.333 559.403 316.345 560.862 316.498ZM571.38 319.916C570.478 319.821 569.66 319.635 568.925 319.357C568.205 319.066 567.593 318.7 567.09 318.259L568.103 316.274C568.595 316.688 569.15 317.027 569.765 317.293C570.381 317.559 571.013 317.726 571.663 317.794C572.127 317.843 572.493 317.808 572.76 317.688C573.042 317.557 573.197 317.359 573.225 317.094C573.25 316.855 573.177 316.66 573.005 316.507C572.847 316.357 572.528 316.203 572.048 316.045L570.495 315.52C569.575 315.209 568.913 314.81 568.509 314.325C568.118 313.829 567.964 313.196 568.044 312.427C568.109 311.817 568.337 311.298 568.731 310.87C569.138 310.443 569.673 310.131 570.338 309.933C571.015 309.736 571.765 309.68 572.587 309.767C573.29 309.841 573.962 310.019 574.603 310.3C575.243 310.582 575.809 310.943 576.299 311.384L575.294 313.289C574.335 312.464 573.352 311.999 572.344 311.893C571.88 311.844 571.507 311.886 571.225 312.017C570.943 312.148 570.787 312.359 570.756 312.651C570.734 312.863 570.796 313.038 570.942 313.174C571.089 313.31 571.355 313.452 571.742 313.6L573.353 314.151C574.324 314.481 575.011 314.902 575.413 315.413C575.829 315.913 575.997 316.554 575.914 317.336C575.815 318.278 575.359 318.98 574.546 319.445C573.748 319.897 572.693 320.054 571.38 319.916ZM577.33 320.381L578.804 306.358L581.807 306.674L580.333 320.696L577.33 320.381ZM591.878 317.546L585.513 316.877C585.524 317.669 585.716 318.266 586.089 318.667C586.477 319.056 587.056 319.291 587.825 319.372C588.329 319.425 588.834 319.398 589.342 319.29C589.864 319.171 590.346 318.98 590.79 318.719L591.374 320.811C590.858 321.132 590.243 321.363 589.532 321.502C588.833 321.643 588.139 321.678 587.449 321.605C585.805 321.432 584.553 320.845 583.693 319.843C582.848 318.829 582.507 317.54 582.672 315.975C582.776 314.98 583.075 314.12 583.566 313.394C584.058 312.668 584.691 312.132 585.465 311.784C586.241 311.423 587.092 311.291 588.02 311.389C589.386 311.533 590.42 312.09 591.123 313.062C591.838 314.036 592.116 315.285 591.955 316.81L591.878 317.546ZM587.883 313.466C587.312 313.406 586.835 313.544 586.452 313.879C586.083 314.202 585.822 314.704 585.67 315.385L589.509 315.789C589.543 315.082 589.42 314.532 589.139 314.141C588.872 313.751 588.453 313.526 587.883 313.466ZM604.23 313.334L603.314 322.046C603.149 323.624 602.572 324.77 601.586 325.484C600.599 326.198 599.224 326.463 597.46 326.277C596.585 326.185 595.754 325.991 594.967 325.693C594.194 325.398 593.523 325.025 592.953 324.577L593.966 322.592C595.153 323.414 596.37 323.89 597.617 324.021C599.261 324.194 600.165 323.505 600.328 321.953L600.441 320.879C600.109 321.354 599.65 321.708 599.062 321.941C598.474 322.174 597.836 322.254 597.146 322.182C596.298 322.093 595.563 321.814 594.942 321.347C594.334 320.881 593.882 320.264 593.588 319.495C593.294 318.714 593.199 317.839 593.3 316.871C593.402 315.903 593.677 315.074 594.125 314.383C594.574 313.68 595.145 313.163 595.836 312.834C596.543 312.492 597.32 312.366 598.169 312.456C598.845 312.527 599.44 312.737 599.953 313.085C600.48 313.422 600.863 313.858 601.102 314.393L601.246 313.02L604.23 313.334ZM598.262 319.987C598.965 320.06 599.532 319.892 599.964 319.482C600.409 319.073 600.674 318.464 600.759 317.655C600.844 316.846 600.712 316.195 600.361 315.703C600.025 315.198 599.506 314.909 598.803 314.835C598.101 314.761 597.526 314.935 597.079 315.358C596.634 315.767 596.369 316.376 596.284 317.184C596.2 317.98 596.333 318.631 596.682 319.137C597.033 319.629 597.559 319.913 598.262 319.987ZM614.76 319.951L608.395 319.282C608.405 320.074 608.597 320.671 608.971 321.072C609.359 321.461 609.938 321.696 610.707 321.777C611.211 321.83 611.716 321.803 612.224 321.695C612.746 321.576 613.228 321.385 613.671 321.124L614.256 323.216C613.739 323.537 613.125 323.768 612.413 323.907C611.715 324.048 611.021 324.083 610.331 324.01C608.687 323.837 607.435 323.25 606.575 322.248C605.73 321.234 605.389 319.945 605.554 318.38C605.658 317.385 605.956 316.525 606.448 315.799C606.94 315.073 607.573 314.537 608.347 314.189C609.122 313.828 609.974 313.696 610.902 313.794C612.268 313.937 613.302 314.495 614.004 315.467C614.72 316.441 614.997 317.69 614.837 319.215L614.76 319.951ZM610.764 315.871C610.194 315.811 609.717 315.949 609.333 316.284C608.964 316.607 608.704 317.109 608.552 317.79L612.391 318.194C612.425 317.487 612.301 316.937 612.021 316.546C611.753 316.156 611.335 315.931 610.764 315.871ZM623.298 315.097C624.465 315.219 625.297 315.655 625.795 316.405C626.294 317.141 626.471 318.199 626.326 319.578L625.707 325.465L622.704 325.15L623.308 319.401C623.378 318.738 623.303 318.241 623.083 317.91C622.876 317.58 622.514 317.387 621.997 317.333C621.374 317.268 620.849 317.413 620.423 317.771C620.01 318.13 619.768 318.641 619.699 319.304L619.124 324.773L616.12 324.458L617.147 314.692L620.071 314.999L619.924 316.391C620.325 315.897 620.812 315.539 621.384 315.318C621.971 315.098 622.609 315.024 623.298 315.097ZM643.94 317.508L642.913 327.274L639.989 326.967L640.136 325.574C639.778 326.046 639.333 326.388 638.801 326.6C638.282 326.814 637.712 326.888 637.088 326.822C635.855 326.693 634.969 326.258 634.43 325.517C633.906 324.765 633.716 323.7 633.861 322.321L634.472 316.513L637.475 316.828L636.858 322.696C636.797 323.279 636.871 323.723 637.081 324.026C637.303 324.331 637.667 324.51 638.17 324.563C638.754 324.625 639.246 324.475 639.645 324.115C640.059 323.756 640.299 323.252 640.367 322.602L640.936 317.192L643.94 317.508ZM652.396 318.155C653.562 318.278 654.395 318.714 654.893 319.463C655.392 320.199 655.569 321.257 655.424 322.636L654.805 328.524L651.802 328.208L652.406 322.46C652.475 321.797 652.4 321.299 652.18 320.968C651.974 320.638 651.612 320.446 651.095 320.391C650.471 320.326 649.947 320.472 649.52 320.829C649.107 321.188 648.866 321.699 648.796 322.362L648.221 327.832L645.218 327.516L646.244 317.75L649.168 318.057L649.022 319.449C649.422 318.955 649.909 318.598 650.482 318.376C651.068 318.156 651.706 318.083 652.396 318.155ZM668.407 315.776L666.933 329.798L663.949 329.485L664.102 328.033C663.757 328.506 663.298 328.86 662.723 329.095C662.164 329.317 661.546 329.393 660.869 329.322C660.034 329.234 659.307 328.943 658.689 328.449C658.085 327.943 657.638 327.286 657.347 326.478C657.071 325.658 656.986 324.744 657.092 323.737C657.198 322.729 657.47 321.866 657.907 321.148C658.36 320.418 658.932 319.881 659.625 319.538C660.318 319.196 661.089 319.069 661.938 319.158C662.601 319.228 663.183 319.43 663.684 319.764C664.198 320.099 664.575 320.534 664.814 321.069L665.403 315.46L668.407 315.776ZM661.985 327.127C662.688 327.2 663.25 327.018 663.671 326.58C664.107 326.13 664.373 325.454 664.468 324.552C664.562 323.65 664.443 322.941 664.108 322.423C663.787 321.906 663.275 321.611 662.572 321.537C661.87 321.463 661.301 321.645 660.866 322.082C660.433 322.506 660.169 323.162 660.076 324.05C659.981 324.952 660.1 325.675 660.431 326.219C660.764 326.75 661.282 327.053 661.985 327.127ZM679.607 321.256L682.053 321.514L681.817 323.761L679.37 323.504L678.58 331.023L675.577 330.707L676.367 323.188L674.517 322.994L674.753 320.746L676.603 320.941C676.775 319.564 677.281 318.572 678.123 317.963C678.979 317.343 680.207 317.07 681.808 317.144L682.909 317.199L682.856 319.426L681.917 319.367C681.145 319.313 680.586 319.402 680.24 319.634C679.908 319.854 679.711 320.262 679.648 320.859L679.607 321.256ZM692.714 322.634L691.687 332.4L688.764 332.093L688.91 330.701C688.552 331.172 688.107 331.514 687.575 331.727C687.057 331.94 686.486 332.014 685.863 331.949C684.629 331.819 683.743 331.384 683.205 330.644C682.68 329.892 682.491 328.826 682.636 327.447L683.246 321.639L686.25 321.955L685.633 327.822C685.571 328.406 685.646 328.849 685.855 329.153C686.078 329.458 686.441 329.637 686.945 329.69C687.528 329.751 688.02 329.602 688.42 329.241C688.833 328.883 689.074 328.378 689.142 327.729L689.71 322.318L692.714 322.634ZM685.201 317.199L687.966 317.489L687.69 320.115L684.925 319.824L685.201 317.199ZM689 317.598L691.765 317.889L691.489 320.514L688.724 320.224L689 317.598ZM701.766 325.838L700.056 325.839C699.213 325.831 698.598 326.007 698.211 326.369C697.826 326.717 697.599 327.216 697.531 327.866L696.996 332.958L693.992 332.642L695.019 322.876L697.903 323.179L697.729 324.83C698.338 323.755 699.417 323.245 700.967 323.3L701.848 323.333L701.766 325.838ZM718.89 321.082L717.416 335.104L714.433 334.791L714.585 333.339C714.241 333.812 713.781 334.166 713.207 334.401C712.647 334.623 712.029 334.699 711.353 334.628C710.518 334.54 709.791 334.249 709.172 333.755C708.568 333.249 708.121 332.592 707.831 331.784C707.555 330.964 707.47 330.05 707.576 329.043C707.682 328.035 707.954 327.172 708.391 326.454C708.843 325.724 709.416 325.187 710.109 324.844C710.802 324.502 711.573 324.375 712.421 324.464C713.084 324.534 713.666 324.736 714.167 325.07C714.682 325.405 715.058 325.841 715.297 326.375L715.887 320.766L718.89 321.082ZM712.469 332.433C713.171 332.506 713.733 332.324 714.155 331.886C714.591 331.436 714.856 330.76 714.951 329.858C715.046 328.956 714.926 328.247 714.592 327.729C714.271 327.212 713.759 326.917 713.056 326.843C712.353 326.77 711.784 326.951 711.35 327.388C710.916 327.812 710.653 328.468 710.56 329.356C710.465 330.258 710.583 330.981 710.915 331.525C711.248 332.056 711.766 332.359 712.469 332.433ZM719.729 335.348L720.756 325.581L723.759 325.897L722.733 335.663L719.729 335.348ZM721.15 320.877L724.372 321.215L724.077 324.02L720.855 323.681L721.15 320.877ZM734.277 332.513L727.912 331.844C727.923 332.636 728.115 333.232 728.488 333.634C728.876 334.023 729.455 334.258 730.224 334.339C730.728 334.392 731.234 334.365 731.741 334.257C732.263 334.138 732.746 333.947 733.189 333.685L733.773 335.778C733.257 336.099 732.643 336.329 731.931 336.469C731.232 336.61 730.538 336.644 729.849 336.572C728.204 336.399 726.952 335.812 726.092 334.81C725.247 333.796 724.907 332.506 725.071 330.942C725.176 329.947 725.474 329.087 725.966 328.361C726.458 327.635 727.091 327.098 727.864 326.751C728.64 326.39 729.491 326.258 730.42 326.356C731.786 326.499 732.82 327.057 733.522 328.029C734.237 329.003 734.515 330.252 734.355 331.777L734.277 332.513ZM730.282 328.433C729.712 328.373 729.235 328.51 728.851 328.845C728.482 329.169 728.221 329.671 728.069 330.352L731.908 330.755C731.942 330.048 731.819 329.499 731.538 329.108C731.271 328.718 730.852 328.493 730.282 328.433ZM554.691 343.682L561.673 344.416L561.416 346.862L550.993 345.767L551.232 343.499L558.933 334.897L552.21 334.191L552.467 331.744L562.691 332.819L562.457 335.046L554.691 343.682ZM573.533 338.262L572.506 348.028L569.583 347.721L569.729 346.328C569.371 346.8 568.926 347.142 568.394 347.354C567.876 347.568 567.305 347.642 566.682 347.577C565.449 347.447 564.562 347.012 564.024 346.272C563.499 345.519 563.31 344.454 563.455 343.075L564.065 337.267L567.069 337.582L566.452 343.45C566.39 344.034 566.465 344.477 566.674 344.781C566.897 345.086 567.26 345.264 567.764 345.317C568.347 345.379 568.839 345.229 569.239 344.869C569.652 344.51 569.893 344.006 569.961 343.356L570.529 337.946L573.533 338.262ZM585.234 349.366L581.554 348.979L578.272 344.23L577.815 348.586L574.811 348.27L576.285 334.247L579.288 334.563L578.402 342.997L582.439 339.218L586.019 339.594L581.433 343.818L585.234 349.366ZM596.337 340.659L595.311 350.425L592.387 350.118L592.533 348.725C592.175 349.197 591.73 349.539 591.198 349.751C590.68 349.965 590.109 350.039 589.486 349.973C588.253 349.844 587.367 349.409 586.828 348.668C586.303 347.916 586.114 346.851 586.259 345.472L586.869 339.664L589.873 339.979L589.256 345.847C589.195 346.43 589.269 346.874 589.478 347.177C589.701 347.482 590.064 347.661 590.568 347.714C591.151 347.776 591.643 347.626 592.043 347.266C592.456 346.907 592.697 346.403 592.765 345.753L593.334 340.343L596.337 340.659ZM604.793 341.306C605.96 341.429 606.792 341.865 607.29 342.614C607.789 343.35 607.966 344.408 607.821 345.787L607.202 351.675L604.199 351.359L604.803 345.611C604.873 344.948 604.798 344.45 604.578 344.119C604.371 343.789 604.009 343.597 603.492 343.542C602.869 343.477 602.344 343.623 601.918 343.98C601.505 344.339 601.263 344.85 601.194 345.513L600.619 350.983L597.615 350.667L598.642 340.901L601.566 341.208L601.419 342.6C601.82 342.106 602.306 341.749 602.879 341.527C603.466 341.307 604.103 341.234 604.793 341.306ZM614.25 342.541L616.697 342.799L616.46 345.046L614.014 344.789L613.224 352.308L610.22 351.992L611.011 344.473L609.161 344.279L609.397 342.031L611.247 342.226C611.418 340.849 611.925 339.857 612.766 339.248C613.623 338.628 614.851 338.355 616.452 338.429L617.552 338.484L617.499 340.711L616.56 340.652C615.788 340.598 615.229 340.687 614.883 340.919C614.552 341.139 614.355 341.547 614.292 342.144L614.25 342.541ZM621.946 351.153C622.251 351.185 622.572 351.199 622.907 351.194L622.518 353.365C622.128 353.378 621.741 353.364 621.356 353.323C619.871 353.167 618.818 352.728 618.197 352.006C617.589 351.285 617.354 350.261 617.494 348.935L617.887 345.196L616.037 345.002L616.273 342.754L618.123 342.948L618.424 340.084L621.427 340.4L621.126 343.264L623.573 343.521L623.337 345.769L620.89 345.512L620.499 349.231C620.377 350.398 620.859 351.039 621.946 351.153ZM637.355 344.99L640.299 345.299L634.978 354.594L632.432 354.326L629.22 344.135L632.343 344.463L634.157 350.928L637.355 344.99ZM644.676 355.774C643.642 355.666 642.755 355.365 642.016 354.871C641.278 354.365 640.737 353.711 640.392 352.911C640.049 352.097 639.931 351.173 640.04 350.139C640.149 349.104 640.455 348.232 640.959 347.52C641.464 346.796 642.129 346.269 642.955 345.94C643.78 345.612 644.71 345.502 645.745 345.61C646.779 345.719 647.666 346.02 648.405 346.513C649.144 347.007 649.685 347.66 650.029 348.474C650.374 349.274 650.492 350.192 650.383 351.226C650.274 352.26 649.967 353.14 649.462 353.864C648.958 354.575 648.293 355.102 647.466 355.444C646.641 355.773 645.711 355.883 644.676 355.774ZM644.917 353.487C646.375 353.64 647.203 352.782 647.399 350.912C647.498 349.971 647.38 349.248 647.044 348.743C646.722 348.24 646.209 347.952 645.506 347.878C644.048 347.724 643.22 348.583 643.024 350.452C642.827 352.322 643.458 353.334 644.917 353.487ZM659.466 349.546L657.757 349.547C656.913 349.539 656.298 349.716 655.911 350.077C655.526 350.426 655.299 350.925 655.231 351.575L654.696 356.666L651.692 356.351L652.719 346.585L655.603 346.888L655.429 348.539C656.038 347.463 657.118 346.953 658.667 347.009L659.548 347.041L659.466 349.546ZM663.321 357.734C662.419 357.639 661.601 357.453 660.866 357.174C660.146 356.884 659.534 356.518 659.031 356.076L660.044 354.091C660.537 354.505 661.091 354.845 661.706 355.111C662.322 355.377 662.955 355.544 663.604 355.612C664.069 355.661 664.434 355.625 664.702 355.506C664.983 355.375 665.138 355.177 665.166 354.911C665.191 354.673 665.118 354.477 664.946 354.325C664.788 354.174 664.469 354.02 663.989 353.863L662.436 353.337C661.517 353.026 660.855 352.628 660.45 352.143C660.06 351.646 659.905 351.013 659.986 350.244C660.05 349.634 660.279 349.115 660.672 348.687C661.079 348.261 661.615 347.949 662.279 347.75C662.957 347.553 663.707 347.498 664.529 347.585C665.231 347.658 665.903 347.836 666.544 348.118C667.185 348.4 667.75 348.761 668.24 349.201L667.235 351.107C666.276 350.282 665.293 349.817 664.285 349.711C663.821 349.662 663.448 349.703 663.166 349.834C662.884 349.966 662.728 350.177 662.697 350.469C662.675 350.681 662.737 350.855 662.884 350.991C663.03 351.127 663.297 351.269 663.683 351.417L665.295 351.969C666.265 352.299 666.952 352.719 667.354 353.231C667.771 353.73 667.938 354.371 667.856 355.154C667.757 356.095 667.301 356.798 666.488 357.262C665.689 357.715 664.634 357.872 663.321 357.734ZM673.949 358.851C672.914 358.742 672.028 358.441 671.288 357.948C670.551 357.441 670.009 356.788 669.665 355.987C669.321 355.174 669.204 354.25 669.312 353.215C669.421 352.181 669.727 351.308 670.231 350.597C670.736 349.873 671.402 349.346 672.227 349.017C673.053 348.688 673.983 348.578 675.017 348.687C676.051 348.796 676.938 349.097 677.677 349.59C678.416 350.083 678.958 350.737 679.301 351.55C679.646 352.351 679.764 353.268 679.655 354.302C679.547 355.337 679.24 356.216 678.735 356.941C678.231 357.652 677.565 358.179 676.738 358.521C675.913 358.85 674.983 358.96 673.949 358.851ZM674.189 356.564C675.648 356.717 676.475 355.859 676.672 353.989C676.771 353.047 676.652 352.324 676.317 351.82C675.994 351.317 675.481 351.028 674.779 350.954C673.32 350.801 672.492 351.659 672.296 353.529C672.099 355.399 672.73 356.41 674.189 356.564ZM688.739 352.623L687.029 352.624C686.185 352.616 685.57 352.792 685.184 353.154C684.798 353.502 684.572 354.001 684.503 354.651L683.968 359.743L680.965 359.427L681.991 349.661L684.875 349.964L684.702 351.615C685.311 350.54 686.39 350.03 687.939 350.085L688.821 350.118L688.739 352.623ZM699.745 351.527L698.83 360.239C698.664 361.817 698.088 362.963 697.101 363.677C696.114 364.392 694.739 364.656 692.975 364.471C692.1 364.379 691.269 364.184 690.483 363.887C689.709 363.591 689.038 363.219 688.468 362.77L689.481 360.785C690.669 361.607 691.886 362.084 693.132 362.215C694.776 362.387 695.68 361.698 695.843 360.147L695.956 359.072C695.624 359.547 695.165 359.901 694.577 360.134C693.99 360.367 693.351 360.448 692.662 360.375C691.813 360.286 691.078 360.008 690.457 359.54C689.849 359.074 689.398 358.457 689.103 357.689C688.81 356.907 688.714 356.032 688.816 355.064C688.918 354.096 689.192 353.267 689.64 352.577C690.09 351.873 690.66 351.357 691.352 351.027C692.058 350.686 692.835 350.56 693.684 350.649C694.36 350.72 694.955 350.93 695.468 351.279C695.996 351.616 696.379 352.052 696.618 352.586L696.762 351.214L699.745 351.527ZM693.777 358.18C694.48 358.254 695.047 358.085 695.479 357.675C695.925 357.266 696.19 356.657 696.275 355.848C696.36 355.039 696.227 354.389 695.877 353.896C695.541 353.391 695.022 353.102 694.319 353.028C693.616 352.954 693.041 353.129 692.595 353.551C692.149 353.96 691.884 354.569 691.799 355.378C691.716 356.173 691.848 356.824 692.197 357.33C692.548 357.823 693.074 358.106 693.777 358.18ZM710.275 358.144L703.91 357.475C703.921 358.267 704.113 358.864 704.486 359.265C704.874 359.655 705.453 359.89 706.222 359.971C706.726 360.023 707.232 359.996 707.739 359.889C708.261 359.769 708.743 359.579 709.187 359.317L709.771 361.409C709.255 361.73 708.641 361.961 707.929 362.101C707.23 362.242 706.536 362.276 705.847 362.204C704.202 362.031 702.95 361.443 702.09 360.441C701.245 359.427 700.904 358.138 701.069 356.573C701.173 355.579 701.472 354.719 701.964 353.993C702.455 353.267 703.088 352.73 703.862 352.382C704.638 352.021 705.489 351.89 706.418 351.987C707.783 352.131 708.817 352.689 709.52 353.661C710.235 354.634 710.513 355.883 710.353 357.408L710.275 358.144ZM706.28 354.064C705.71 354.004 705.233 354.142 704.849 354.477C704.48 354.8 704.219 355.302 704.067 355.983L707.906 356.387C707.94 355.68 707.817 355.131 707.536 354.739C707.269 354.349 706.85 354.124 706.28 354.064ZM718.813 353.29C719.98 353.413 720.813 353.849 721.31 354.598C721.809 355.334 721.987 356.392 721.842 357.771L721.223 363.659L718.219 363.343L718.823 357.595C718.893 356.932 718.818 356.434 718.598 356.103C718.392 355.773 718.03 355.581 717.512 355.526C716.889 355.461 716.364 355.607 715.938 355.964C715.525 356.323 715.284 356.834 715.214 357.497L714.639 362.967L711.636 362.651L712.662 352.885L715.586 353.192L715.44 354.585C715.84 354.09 716.327 353.733 716.9 353.511C717.486 353.291 718.124 353.218 718.813 353.29Z" fill="white"/>
</g>
<path d="M454.415 238.424L453.427 238.583L454.415 238.424ZM503.176 309.182L502.676 310.049L503.176 309.182ZM520.245 319.847C520.779 319.704 521.095 319.155 520.952 318.622L518.62 309.929C518.477 309.396 517.928 309.079 517.395 309.222C516.861 309.365 516.545 309.914 516.688 310.447L518.761 318.174L511.034 320.247C510.501 320.39 510.184 320.939 510.328 321.472C510.471 322.005 511.019 322.322 511.553 322.179L520.245 319.847ZM452.396 232.159L453.427 238.583L455.402 238.265L454.37 231.841L452.396 232.159ZM502.676 310.049L519.486 319.747L520.486 318.015L503.676 308.316L502.676 310.049ZM453.427 238.583C458.25 268.603 476.34 294.854 502.676 310.049L503.676 308.316C477.861 293.423 460.129 267.692 455.402 238.265L453.427 238.583Z" fill="url(#paint0_linear_2038_20005)"/>
<g filter="url(#filter1_d_2038_20005)">
<rect x="264.063" y="30" width="322" height="252" rx="30" fill="#191A1C" shape-rendering="crispEdges"/>
<path fill-rule="evenodd" clip-rule="evenodd" d="M409.063 69C409.063 68.4477 409.511 68 410.063 68H440.063C440.616 68 441.063 68.4477 441.063 69V99C441.063 99.2652 440.958 99.5196 440.771 99.7071L432.771 107.707C432.583 107.895 432.329 108 432.063 108H410.063C409.511 108 409.063 107.552 409.063 107V69ZM411.063 70V106H431.649L439.063 98.5858V70H411.063Z" fill="#28EBCF"/>
<path fill-rule="evenodd" clip-rule="evenodd" d="M431.063 99C431.063 98.4477 431.511 98 432.063 98H440.063C440.616 98 441.063 98.4477 441.063 99C441.063 99.5523 440.616 100 440.063 100H433.063V107C433.063 107.552 432.616 108 432.063 108C431.511 108 431.063 107.552 431.063 107V99Z" fill="#28EBCF"/>
<path fill-rule="evenodd" clip-rule="evenodd" d="M419.782 76.2947C420.172 76.6862 420.17 77.3193 419.779 77.7089L417.769 79.7089C417.378 80.0977 416.746 80.0969 416.356 79.7071L415.356 78.7071C414.966 78.3166 414.966 77.6834 415.356 77.2929C415.747 76.9024 416.38 76.9024 416.771 77.2929L417.065 77.5875L418.368 76.2911C418.76 75.9016 419.393 75.9032 419.782 76.2947Z" fill="#28EBCF"/>
<path fill-rule="evenodd" clip-rule="evenodd" d="M422.063 78C422.063 77.4477 422.511 77 423.063 77H433.063C433.616 77 434.063 77.4477 434.063 78C434.063 78.5523 433.616 79 433.063 79H423.063C422.511 79 422.063 78.5523 422.063 78Z" fill="#28EBCF"/>
<path fill-rule="evenodd" clip-rule="evenodd" d="M422.063 92C422.063 91.4477 422.511 91 423.063 91H433.063C433.616 91 434.063 91.4477 434.063 92C434.063 92.5523 433.616 93 433.063 93H423.063C422.511 93 422.063 92.5523 422.063 92Z" fill="#28EBCF"/>
<path fill-rule="evenodd" clip-rule="evenodd" d="M415.063 101C415.063 100.448 415.511 100 416.063 100H420.063C420.616 100 421.063 100.448 421.063 101C421.063 101.552 420.616 102 420.063 102H416.063C415.511 102 415.063 101.552 415.063 101Z" fill="#28EBCF"/>
<path fill-rule="evenodd" clip-rule="evenodd" d="M416.063 92C416.063 91.4477 416.511 91 417.063 91H417.163C417.716 91 418.163 91.4477 418.163 92C418.163 92.5523 417.716 93 417.163 93H417.063C416.511 93 416.063 92.5523 416.063 92Z" fill="#28EBCF"/>
<path fill-rule="evenodd" clip-rule="evenodd" d="M419.782 83.2947C420.172 83.6862 420.17 84.3193 419.779 84.7089L417.769 86.7089C417.378 87.0977 416.746 87.0969 416.356 86.7071L415.356 85.7071C414.966 85.3166 414.966 84.6834 415.356 84.2929C415.747 83.9024 416.38 83.9024 416.771 84.2929L417.065 84.5875L418.368 83.2911C418.76 82.9016 419.393 82.9032 419.782 83.2947Z" fill="#28EBCF"/>
<path fill-rule="evenodd" clip-rule="evenodd" d="M422.063 85C422.063 84.4477 422.511 84 423.063 84H430.063C430.616 84 431.063 84.4477 431.063 85C431.063 85.5523 430.616 86 430.063 86H423.063C422.511 86 422.063 85.5523 422.063 85Z" fill="#28EBCF"/>
<path d="M327.595 161L326.255 157.88H319.695L318.355 161H315.215L321.695 146.9H324.195L330.675 161H327.595ZM320.715 155.52H325.235L322.975 150.24L320.715 155.52ZM337.774 150.94C338.947 150.94 339.821 151.287 340.394 151.98C340.967 152.66 341.254 153.693 341.254 155.08V161H338.234V155.22C338.234 154.553 338.107 154.067 337.854 153.76C337.614 153.453 337.234 153.3 336.714 153.3C336.087 153.3 335.581 153.5 335.194 153.9C334.821 154.3 334.634 154.833 334.634 155.5V161H331.614V151.18H334.554V152.58C334.901 152.047 335.347 151.64 335.894 151.36C336.454 151.08 337.081 150.94 337.774 150.94ZM355.609 150.94C356.729 150.94 357.562 151.28 358.109 151.96C358.655 152.64 358.929 153.68 358.929 155.08V161H355.909V155.18C355.909 154.513 355.802 154.033 355.589 153.74C355.389 153.447 355.042 153.3 354.549 153.3C353.975 153.3 353.529 153.5 353.209 153.9C352.889 154.3 352.729 154.86 352.729 155.58V161H349.709V155.18C349.709 154.513 349.602 154.033 349.389 153.74C349.189 153.447 348.842 153.3 348.349 153.3C347.775 153.3 347.329 153.5 347.009 153.9C346.689 154.3 346.529 154.86 346.529 155.58V161H343.509V151.18H346.449V152.5C346.755 151.993 347.162 151.607 347.669 151.34C348.189 151.073 348.782 150.94 349.449 150.94C350.902 150.94 351.875 151.547 352.369 152.76C352.689 152.2 353.135 151.76 353.709 151.44C354.282 151.107 354.915 150.94 355.609 150.94ZM370.044 156.66H363.644C363.737 157.447 363.991 158.02 364.404 158.38C364.831 158.727 365.431 158.9 366.204 158.9C366.711 158.9 367.211 158.82 367.704 158.66C368.211 158.487 368.671 158.247 369.084 157.94L369.884 159.96C369.404 160.333 368.817 160.627 368.124 160.84C367.444 161.053 366.757 161.16 366.064 161.16C364.411 161.16 363.104 160.707 362.144 159.8C361.197 158.88 360.724 157.633 360.724 156.06C360.724 155.06 360.931 154.173 361.344 153.4C361.757 152.627 362.331 152.027 363.064 151.6C363.797 151.16 364.631 150.94 365.564 150.94C366.937 150.94 368.024 151.387 368.824 152.28C369.637 153.173 370.044 154.387 370.044 155.92V156.66ZM365.644 153.02C365.071 153.02 364.611 153.207 364.264 153.58C363.931 153.94 363.724 154.467 363.644 155.16H367.504C367.464 154.453 367.284 153.92 366.964 153.56C366.657 153.2 366.217 153.02 365.644 153.02ZM371.868 161V146.9H374.888V161H371.868ZM387.14 146.9V161H384.14V159.54C383.847 160.047 383.427 160.447 382.88 160.74C382.347 161.02 381.74 161.16 381.06 161.16C380.22 161.16 379.467 160.947 378.8 160.52C378.147 160.08 377.633 159.473 377.26 158.7C376.9 157.913 376.72 157.013 376.72 156C376.72 154.987 376.9 154.1 377.26 153.34C377.633 152.567 378.147 151.973 378.8 151.56C379.453 151.147 380.207 150.94 381.06 150.94C381.727 150.94 382.327 151.08 382.86 151.36C383.407 151.64 383.827 152.033 384.12 152.54V146.9H387.14ZM381.94 158.86C382.647 158.86 383.187 158.62 383.56 158.14C383.947 157.647 384.14 156.947 384.14 156.04C384.14 155.133 383.947 154.44 383.56 153.96C383.187 153.48 382.647 153.24 381.94 153.24C381.233 153.24 380.687 153.48 380.3 153.96C379.913 154.427 379.72 155.107 379.72 156C379.72 156.907 379.913 157.613 380.3 158.12C380.687 158.613 381.233 158.86 381.94 158.86ZM398.926 151.18V161H395.986V159.6C395.679 160.107 395.272 160.493 394.766 160.76C394.272 161.027 393.712 161.16 393.086 161.16C391.846 161.16 390.919 160.82 390.306 160.14C389.706 159.447 389.406 158.407 389.406 157.02V151.18H392.426V157.08C392.426 157.667 392.546 158.1 392.786 158.38C393.039 158.66 393.419 158.8 393.926 158.8C394.512 158.8 394.986 158.6 395.346 158.2C395.719 157.8 395.906 157.273 395.906 156.62V151.18H398.926ZM407.403 150.94C408.576 150.94 409.45 151.287 410.023 151.98C410.596 152.66 410.883 153.693 410.883 155.08V161H407.863V155.22C407.863 154.553 407.736 154.067 407.483 153.76C407.243 153.453 406.863 153.3 406.343 153.3C405.716 153.3 405.21 153.5 404.823 153.9C404.45 154.3 404.263 154.833 404.263 155.5V161H401.243V151.18H404.183V152.58C404.53 152.047 404.976 151.64 405.523 151.36C406.083 151.08 406.71 150.94 407.403 150.94ZM423.158 151.18V159.94C423.158 161.527 422.704 162.727 421.798 163.54C420.891 164.353 419.551 164.76 417.778 164.76C416.898 164.76 416.051 164.653 415.238 164.44C414.438 164.227 413.731 163.927 413.118 163.54L413.918 161.46C415.184 162.153 416.444 162.5 417.698 162.5C419.351 162.5 420.178 161.72 420.178 160.16V159.08C419.898 159.587 419.478 159.987 418.918 160.28C418.358 160.573 417.731 160.72 417.038 160.72C416.184 160.72 415.424 160.52 414.758 160.12C414.104 159.72 413.591 159.153 413.218 158.42C412.844 157.673 412.658 156.813 412.658 155.84C412.658 154.867 412.844 154.013 413.218 153.28C413.591 152.533 414.104 151.96 414.758 151.56C415.424 151.147 416.184 150.94 417.038 150.94C417.718 150.94 418.331 151.087 418.878 151.38C419.438 151.66 419.864 152.053 420.158 152.56V151.18H423.158ZM417.918 158.42C418.624 158.42 419.171 158.193 419.558 157.74C419.958 157.287 420.158 156.653 420.158 155.84C420.158 155.027 419.958 154.393 419.558 153.94C419.171 153.473 418.624 153.24 417.918 153.24C417.211 153.24 416.658 153.473 416.258 153.94C415.858 154.393 415.658 155.027 415.658 155.84C415.658 156.64 415.858 157.273 416.258 157.74C416.658 158.193 417.211 158.42 417.918 158.42ZM437.147 150.94C438.001 150.94 438.754 151.147 439.407 151.56C440.061 151.973 440.567 152.567 440.927 153.34C441.301 154.1 441.487 154.987 441.487 156C441.487 157.013 441.301 157.913 440.927 158.7C440.567 159.473 440.054 160.08 439.387 160.52C438.734 160.947 437.987 161.16 437.147 161.16C436.467 161.16 435.854 161.02 435.307 160.74C434.761 160.447 434.341 160.047 434.047 159.54V161H431.067V146.9H434.087V152.5C434.381 152.007 434.794 151.627 435.327 151.36C435.874 151.08 436.481 150.94 437.147 150.94ZM436.267 158.86C436.974 158.86 437.521 158.613 437.907 158.12C438.294 157.613 438.487 156.907 438.487 156C438.487 155.107 438.294 154.427 437.907 153.96C437.521 153.48 436.974 153.24 436.267 153.24C435.561 153.24 435.014 153.487 434.627 153.98C434.241 154.46 434.047 155.147 434.047 156.04C434.047 156.947 434.241 157.647 434.627 158.14C435.014 158.62 435.561 158.86 436.267 158.86ZM452.173 156.66H445.773C445.866 157.447 446.12 158.02 446.533 158.38C446.96 158.727 447.56 158.9 448.333 158.9C448.84 158.9 449.34 158.82 449.833 158.66C450.34 158.487 450.8 158.247 451.213 157.94L452.013 159.96C451.533 160.333 450.946 160.627 450.253 160.84C449.573 161.053 448.886 161.16 448.193 161.16C446.54 161.16 445.233 160.707 444.273 159.8C443.326 158.88 442.853 157.633 442.853 156.06C442.853 155.06 443.06 154.173 443.473 153.4C443.886 152.627 444.46 152.027 445.193 151.6C445.926 151.16 446.76 150.94 447.693 150.94C449.066 150.94 450.153 151.387 450.953 152.28C451.766 153.173 452.173 154.387 452.173 155.92V156.66ZM447.773 153.02C447.2 153.02 446.74 153.207 446.393 153.58C446.06 153.94 445.853 154.467 445.773 155.16H449.633C449.593 154.453 449.413 153.92 449.093 153.56C448.786 153.2 448.346 153.02 447.773 153.02ZM457.777 161.16C456.87 161.16 456.037 161.06 455.277 160.86C454.53 160.647 453.884 160.347 453.337 159.96L454.137 157.88C454.67 158.24 455.257 158.52 455.897 158.72C456.537 158.92 457.184 159.02 457.837 159.02C458.304 159.02 458.664 158.947 458.917 158.8C459.184 158.64 459.317 158.427 459.317 158.16C459.317 157.92 459.224 157.733 459.037 157.6C458.864 157.467 458.53 157.347 458.037 157.24L456.437 156.88C455.49 156.667 454.79 156.34 454.337 155.9C453.897 155.447 453.677 154.833 453.677 154.06C453.677 153.447 453.85 152.907 454.197 152.44C454.557 151.973 455.057 151.607 455.697 151.34C456.35 151.073 457.09 150.94 457.917 150.94C458.624 150.94 459.31 151.047 459.977 151.26C460.644 151.473 461.244 151.773 461.777 152.16L460.977 154.16C459.937 153.44 458.91 153.08 457.897 153.08C457.43 153.08 457.064 153.16 456.797 153.32C456.53 153.48 456.397 153.707 456.397 154C456.397 154.213 456.477 154.38 456.637 154.5C456.797 154.62 457.077 154.733 457.477 154.84L459.137 155.22C460.137 155.447 460.864 155.793 461.317 156.26C461.784 156.713 462.017 157.333 462.017 158.12C462.017 159.067 461.637 159.813 460.877 160.36C460.13 160.893 459.097 161.16 457.777 161.16ZM469.085 158.94C469.392 158.94 469.712 158.92 470.045 158.88L469.885 161.08C469.499 161.133 469.112 161.16 468.725 161.16C467.232 161.16 466.139 160.833 465.445 160.18C464.765 159.527 464.425 158.533 464.425 157.2V153.44H462.565V151.18H464.425V148.3H467.445V151.18H469.905V153.44H467.445V157.18C467.445 158.353 467.992 158.94 469.085 158.94ZM475.74 150.94C477.206 150.94 478.286 151.287 478.98 151.98C479.686 152.673 480.04 153.747 480.04 155.2V161H477.18V159.54C476.98 160.047 476.646 160.447 476.18 160.74C475.713 161.02 475.166 161.16 474.54 161.16C473.873 161.16 473.266 161.027 472.72 160.76C472.186 160.493 471.76 160.12 471.44 159.64C471.133 159.16 470.98 158.627 470.98 158.04C470.98 157.32 471.16 156.753 471.52 156.34C471.893 155.927 472.486 155.627 473.3 155.44C474.113 155.253 475.226 155.16 476.64 155.16H477.16V154.8C477.16 154.213 477.033 153.8 476.78 153.56C476.526 153.32 476.086 153.2 475.46 153.2C474.98 153.2 474.446 153.287 473.86 153.46C473.273 153.633 472.713 153.873 472.18 154.18L471.38 152.16C471.94 151.813 472.626 151.527 473.44 151.3C474.266 151.06 475.033 150.94 475.74 150.94ZM475.2 159.08C475.786 159.08 476.26 158.887 476.62 158.5C476.98 158.1 477.16 157.587 477.16 156.96V156.62H476.82C475.74 156.62 474.98 156.707 474.54 156.88C474.113 157.053 473.9 157.367 473.9 157.82C473.9 158.18 474.02 158.48 474.26 158.72C474.513 158.96 474.826 159.08 475.2 159.08ZM472.5 146.56H475.28V149.2H472.5V146.56ZM476.32 146.56H479.1V149.2H476.32V146.56ZM487.738 158.94C488.044 158.94 488.364 158.92 488.698 158.88L488.538 161.08C488.151 161.133 487.764 161.16 487.378 161.16C485.884 161.16 484.791 160.833 484.098 160.18C483.418 159.527 483.078 158.533 483.078 157.2V153.44H481.218V151.18H483.078V148.3H486.098V151.18H488.558V153.44H486.098V157.18C486.098 158.353 486.644 158.94 487.738 158.94ZM490.032 161V151.18H493.052V161H490.032ZM489.932 146.46H493.172V149.28H489.932V146.46ZM505.384 151.18V159.94C505.384 161.527 504.931 162.727 504.024 163.54C503.117 164.353 501.777 164.76 500.004 164.76C499.124 164.76 498.277 164.653 497.464 164.44C496.664 164.227 495.957 163.927 495.344 163.54L496.144 161.46C497.411 162.153 498.671 162.5 499.924 162.5C501.577 162.5 502.404 161.72 502.404 160.16V159.08C502.124 159.587 501.704 159.987 501.144 160.28C500.584 160.573 499.957 160.72 499.264 160.72C498.411 160.72 497.651 160.52 496.984 160.12C496.331 159.72 495.817 159.153 495.444 158.42C495.071 157.673 494.884 156.813 494.884 155.84C494.884 154.867 495.071 154.013 495.444 153.28C495.817 152.533 496.331 151.96 496.984 151.56C497.651 151.147 498.411 150.94 499.264 150.94C499.944 150.94 500.557 151.087 501.104 151.38C501.664 151.66 502.091 152.053 502.384 152.56V151.18H505.384ZM500.144 158.42C500.851 158.42 501.397 158.193 501.784 157.74C502.184 157.287 502.384 156.653 502.384 155.84C502.384 155.027 502.184 154.393 501.784 153.94C501.397 153.473 500.851 153.24 500.144 153.24C499.437 153.24 498.884 153.473 498.484 153.94C498.084 154.393 497.884 155.027 497.884 155.84C497.884 156.64 498.084 157.273 498.484 157.74C498.884 158.193 499.437 158.42 500.144 158.42ZM516.548 156.66H510.148C510.241 157.447 510.495 158.02 510.908 158.38C511.335 158.727 511.935 158.9 512.708 158.9C513.215 158.9 513.715 158.82 514.208 158.66C514.715 158.487 515.175 158.247 515.588 157.94L516.388 159.96C515.908 160.333 515.321 160.627 514.628 160.84C513.948 161.053 513.261 161.16 512.568 161.16C510.915 161.16 509.608 160.707 508.648 159.8C507.701 158.88 507.228 157.633 507.228 156.06C507.228 155.06 507.435 154.173 507.848 153.4C508.261 152.627 508.835 152.027 509.568 151.6C510.301 151.16 511.135 150.94 512.068 150.94C513.441 150.94 514.528 151.387 515.328 152.28C516.141 153.173 516.548 154.387 516.548 155.92V156.66ZM512.148 153.02C511.575 153.02 511.115 153.207 510.768 153.58C510.435 153.94 510.228 154.467 510.148 155.16H514.008C513.968 154.453 513.788 153.92 513.468 153.56C513.161 153.2 512.721 153.02 512.148 153.02ZM524.532 150.94C525.705 150.94 526.579 151.287 527.152 151.98C527.725 152.66 528.012 153.693 528.012 155.08V161H524.992V155.22C524.992 154.553 524.865 154.067 524.612 153.76C524.372 153.453 523.992 153.3 523.472 153.3C522.845 153.3 522.339 153.5 521.952 153.9C521.579 154.3 521.392 154.833 521.392 155.5V161H518.372V151.18H521.312V152.58C521.659 152.047 522.105 151.64 522.652 151.36C523.212 151.08 523.839 150.94 524.532 150.94ZM325.596 179.18V189H322.656V187.6C322.349 188.107 321.942 188.493 321.436 188.76C320.942 189.027 320.382 189.16 319.756 189.16C318.516 189.16 317.589 188.82 316.976 188.14C316.376 187.447 316.076 186.407 316.076 185.02V179.18H319.096V185.08C319.096 185.667 319.216 186.1 319.456 186.38C319.709 186.66 320.089 186.8 320.596 186.8C321.182 186.8 321.656 186.6 322.016 186.2C322.389 185.8 322.576 185.273 322.576 184.62V179.18H325.596ZM334.073 178.94C335.246 178.94 336.12 179.287 336.693 179.98C337.266 180.66 337.553 181.693 337.553 183.08V189H334.533V183.22C334.533 182.553 334.406 182.067 334.153 181.76C333.913 181.453 333.533 181.3 333.013 181.3C332.386 181.3 331.88 181.5 331.493 181.9C331.12 182.3 330.933 182.833 330.933 183.5V189H327.913V179.18H330.853V180.58C331.2 180.047 331.646 179.64 332.193 179.36C332.753 179.08 333.38 178.94 334.073 178.94ZM349.747 174.9V189H346.747V187.54C346.454 188.047 346.034 188.447 345.487 188.74C344.954 189.02 344.347 189.16 343.667 189.16C342.827 189.16 342.074 188.947 341.407 188.52C340.754 188.08 340.241 187.473 339.867 186.7C339.507 185.913 339.327 185.013 339.327 184C339.327 182.987 339.507 182.1 339.867 181.34C340.241 180.567 340.754 179.973 341.407 179.56C342.061 179.147 342.814 178.94 343.667 178.94C344.334 178.94 344.934 179.08 345.467 179.36C346.014 179.64 346.434 180.033 346.727 180.54V174.9H349.747ZM344.547 186.86C345.254 186.86 345.794 186.62 346.167 186.14C346.554 185.647 346.747 184.947 346.747 184.04C346.747 183.133 346.554 182.44 346.167 181.96C345.794 181.48 345.254 181.24 344.547 181.24C343.841 181.24 343.294 181.48 342.907 181.96C342.521 182.427 342.327 183.107 342.327 184C342.327 184.907 342.521 185.613 342.907 186.12C343.294 186.613 343.841 186.86 344.547 186.86ZM357.899 174.9H363.379C364.912 174.9 366.232 175.18 367.339 175.74C368.446 176.3 369.292 177.107 369.879 178.16C370.466 179.213 370.759 180.473 370.759 181.94C370.759 183.407 370.466 184.673 369.879 185.74C369.306 186.793 368.466 187.6 367.359 188.16C366.252 188.72 364.926 189 363.379 189H357.899V174.9ZM363.159 186.48C366.159 186.48 367.659 184.967 367.659 181.94C367.659 178.927 366.159 177.42 363.159 177.42H361.019V186.48H363.159ZM381.753 184.66H375.353C375.446 185.447 375.7 186.02 376.113 186.38C376.54 186.727 377.14 186.9 377.913 186.9C378.42 186.9 378.92 186.82 379.413 186.66C379.92 186.487 380.38 186.247 380.793 185.94L381.593 187.96C381.113 188.333 380.526 188.627 379.833 188.84C379.153 189.053 378.466 189.16 377.773 189.16C376.12 189.16 374.813 188.707 373.853 187.8C372.906 186.88 372.433 185.633 372.433 184.06C372.433 183.06 372.64 182.173 373.053 181.4C373.466 180.627 374.04 180.027 374.773 179.6C375.506 179.16 376.34 178.94 377.273 178.94C378.646 178.94 379.733 179.387 380.533 180.28C381.346 181.173 381.753 182.387 381.753 183.92V184.66ZM377.353 181.02C376.78 181.02 376.32 181.207 375.973 181.58C375.64 181.94 375.433 182.467 375.353 183.16H379.213C379.173 182.453 378.993 181.92 378.673 181.56C378.366 181.2 377.926 181.02 377.353 181.02ZM383.577 189V179.18H386.597V189H383.577ZM383.477 174.46H386.717V177.28H383.477V174.46ZM395.069 178.94C396.242 178.94 397.116 179.287 397.689 179.98C398.262 180.66 398.549 181.693 398.549 183.08V189H395.529V183.22C395.529 182.553 395.402 182.067 395.149 181.76C394.909 181.453 394.529 181.3 394.009 181.3C393.382 181.3 392.876 181.5 392.489 181.9C392.116 182.3 391.929 182.833 391.929 183.5V189H388.909V179.18H391.849V180.58C392.196 180.047 392.642 179.64 393.189 179.36C393.749 179.08 394.376 178.94 395.069 178.94ZM409.644 184.66H403.244C403.337 185.447 403.59 186.02 404.004 186.38C404.43 186.727 405.03 186.9 405.804 186.9C406.31 186.9 406.81 186.82 407.304 186.66C407.81 186.487 408.27 186.247 408.684 185.94L409.484 187.96C409.004 188.333 408.417 188.627 407.724 188.84C407.044 189.053 406.357 189.16 405.664 189.16C404.01 189.16 402.704 188.707 401.744 187.8C400.797 186.88 400.324 185.633 400.324 184.06C400.324 183.06 400.53 182.173 400.944 181.4C401.357 180.627 401.93 180.027 402.664 179.6C403.397 179.16 404.23 178.94 405.164 178.94C406.537 178.94 407.624 179.387 408.424 180.28C409.237 181.173 409.644 182.387 409.644 183.92V184.66ZM405.244 181.02C404.67 181.02 404.21 181.207 403.864 181.58C403.53 181.94 403.324 182.467 403.244 183.16H407.104C407.064 182.453 406.884 181.92 406.564 181.56C406.257 181.2 405.817 181.02 405.244 181.02ZM423.134 178.94C423.974 178.94 424.72 179.16 425.374 179.6C426.04 180.027 426.554 180.633 426.914 181.42C427.287 182.193 427.474 183.087 427.474 184.1C427.474 185.113 427.287 186.007 426.914 186.78C426.554 187.54 426.047 188.127 425.394 188.54C424.74 188.953 423.987 189.16 423.134 189.16C422.467 189.16 421.86 189.027 421.314 188.76C420.78 188.48 420.367 188.093 420.074 187.6V192.6H417.054V179.18H420.034V180.56C420.327 180.053 420.747 179.66 421.294 179.38C421.84 179.087 422.454 178.94 423.134 178.94ZM422.254 186.86C422.96 186.86 423.507 186.627 423.894 186.16C424.28 185.68 424.474 184.993 424.474 184.1C424.474 183.193 424.28 182.493 423.894 182C423.507 181.493 422.96 181.24 422.254 181.24C421.547 181.24 421 181.487 420.614 181.98C420.227 182.46 420.034 183.153 420.034 184.06C420.034 184.953 420.227 185.647 420.614 186.14C421 186.62 421.547 186.86 422.254 186.86ZM438.159 184.66H431.759C431.853 185.447 432.106 186.02 432.519 186.38C432.946 186.727 433.546 186.9 434.319 186.9C434.826 186.9 435.326 186.82 435.819 186.66C436.326 186.487 436.786 186.247 437.199 185.94L437.999 187.96C437.519 188.333 436.933 188.627 436.239 188.84C435.559 189.053 434.873 189.16 434.179 189.16C432.526 189.16 431.219 188.707 430.259 187.8C429.313 186.88 428.839 185.633 428.839 184.06C428.839 183.06 429.046 182.173 429.459 181.4C429.873 180.627 430.446 180.027 431.179 179.6C431.913 179.16 432.746 178.94 433.679 178.94C435.053 178.94 436.139 179.387 436.939 180.28C437.753 181.173 438.159 182.387 438.159 183.92V184.66ZM433.759 181.02C433.186 181.02 432.726 181.207 432.379 181.58C432.046 181.94 431.839 182.467 431.759 183.16H435.619C435.579 182.453 435.399 181.92 435.079 181.56C434.773 181.2 434.333 181.02 433.759 181.02ZM447.003 181.42L445.303 181.6C444.463 181.68 443.87 181.92 443.523 182.32C443.177 182.707 443.003 183.227 443.003 183.88V189H439.983V179.18H442.883V180.84C443.377 179.707 444.397 179.087 445.943 178.98L446.823 178.92L447.003 181.42ZM451.693 189.16C450.786 189.16 449.953 189.06 449.193 188.86C448.446 188.647 447.8 188.347 447.253 187.96L448.053 185.88C448.586 186.24 449.173 186.52 449.813 186.72C450.453 186.92 451.1 187.02 451.753 187.02C452.22 187.02 452.58 186.947 452.833 186.8C453.1 186.64 453.233 186.427 453.233 186.16C453.233 185.92 453.14 185.733 452.953 185.6C452.78 185.467 452.446 185.347 451.953 185.24L450.353 184.88C449.406 184.667 448.706 184.34 448.253 183.9C447.813 183.447 447.593 182.833 447.593 182.06C447.593 181.447 447.766 180.907 448.113 180.44C448.473 179.973 448.973 179.607 449.613 179.34C450.266 179.073 451.006 178.94 451.833 178.94C452.54 178.94 453.226 179.047 453.893 179.26C454.56 179.473 455.16 179.773 455.693 180.16L454.893 182.16C453.853 181.44 452.826 181.08 451.813 181.08C451.346 181.08 450.98 181.16 450.713 181.32C450.446 181.48 450.313 181.707 450.313 182C450.313 182.213 450.393 182.38 450.553 182.5C450.713 182.62 450.993 182.733 451.393 182.84L453.053 183.22C454.053 183.447 454.78 183.793 455.233 184.26C455.7 184.713 455.933 185.333 455.933 186.12C455.933 187.067 455.553 187.813 454.793 188.36C454.046 188.893 453.013 189.16 451.693 189.16ZM462.379 189.16C461.339 189.16 460.426 188.953 459.639 188.54C458.852 188.113 458.246 187.52 457.819 186.76C457.392 185.987 457.179 185.08 457.179 184.04C457.179 183 457.392 182.1 457.819 181.34C458.246 180.567 458.852 179.973 459.639 179.56C460.426 179.147 461.339 178.94 462.379 178.94C463.419 178.94 464.332 179.147 465.119 179.56C465.906 179.973 466.512 180.567 466.939 181.34C467.366 182.1 467.579 183 467.579 184.04C467.579 185.08 467.366 185.987 466.939 186.76C466.512 187.52 465.906 188.113 465.119 188.54C464.332 188.953 463.419 189.16 462.379 189.16ZM462.379 186.86C463.846 186.86 464.579 185.92 464.579 184.04C464.579 183.093 464.386 182.387 463.999 181.92C463.626 181.453 463.086 181.22 462.379 181.22C460.912 181.22 460.179 182.16 460.179 184.04C460.179 185.92 460.912 186.86 462.379 186.86ZM459.079 174.56H461.859V177.2H459.079V174.56ZM462.899 174.56H465.679V177.2H462.899V174.56ZM475.577 178.94C476.75 178.94 477.624 179.287 478.197 179.98C478.77 180.66 479.057 181.693 479.057 183.08V189H476.037V183.22C476.037 182.553 475.91 182.067 475.657 181.76C475.417 181.453 475.037 181.3 474.517 181.3C473.89 181.3 473.384 181.5 472.997 181.9C472.624 182.3 472.437 182.833 472.437 183.5V189H469.417V179.18H472.357V180.58C472.704 180.047 473.15 179.64 473.697 179.36C474.257 179.08 474.884 178.94 475.577 178.94ZM481.311 189V174.9H484.331V189H481.311ZM486.643 189V179.18H489.663V189H486.643ZM486.543 174.46H489.783V177.28H486.543V174.46ZM496.655 189.16C495.055 189.16 493.795 188.707 492.875 187.8C491.955 186.893 491.495 185.66 491.495 184.1C491.495 183.073 491.715 182.173 492.155 181.4C492.595 180.613 493.215 180.007 494.015 179.58C494.815 179.153 495.742 178.94 496.795 178.94C497.515 178.94 498.209 179.053 498.875 179.28C499.542 179.493 500.082 179.787 500.495 180.16L499.695 182.22C499.309 181.913 498.882 181.68 498.415 181.52C497.962 181.347 497.515 181.26 497.075 181.26C496.289 181.26 495.675 181.493 495.235 181.96C494.809 182.427 494.595 183.12 494.595 184.04C494.595 184.96 494.809 185.66 495.235 186.14C495.675 186.607 496.289 186.84 497.075 186.84C497.515 186.84 497.962 186.76 498.415 186.6C498.882 186.427 499.309 186.187 499.695 185.88L500.495 187.96C500.055 188.333 499.495 188.627 498.815 188.84C498.135 189.053 497.415 189.16 496.655 189.16ZM508.018 178.94C509.192 178.94 510.065 179.287 510.638 179.98C511.212 180.66 511.498 181.693 511.498 183.08V189H508.478V183.22C508.478 182.553 508.352 182.067 508.098 181.76C507.858 181.453 507.478 181.3 506.958 181.3C506.332 181.3 505.825 181.5 505.438 181.9C505.065 182.3 504.878 182.833 504.878 183.5V189H501.858V174.9H504.878V180.48C505.225 179.973 505.665 179.593 506.198 179.34C506.745 179.073 507.352 178.94 508.018 178.94ZM522.593 184.66H516.193C516.286 185.447 516.539 186.02 516.953 186.38C517.379 186.727 517.979 186.9 518.753 186.9C519.259 186.9 519.759 186.82 520.253 186.66C520.759 186.487 521.219 186.247 521.633 185.94L522.433 187.96C521.953 188.333 521.366 188.627 520.673 188.84C519.993 189.053 519.306 189.16 518.613 189.16C516.959 189.16 515.653 188.707 514.693 187.8C513.746 186.88 513.273 185.633 513.273 184.06C513.273 183.06 513.479 182.173 513.893 181.4C514.306 180.627 514.879 180.027 515.613 179.6C516.346 179.16 517.179 178.94 518.113 178.94C519.486 178.94 520.573 179.387 521.373 180.28C522.186 181.173 522.593 182.387 522.593 183.92V184.66ZM518.193 181.02C517.619 181.02 517.159 181.207 516.813 181.58C516.479 181.94 516.273 182.467 516.193 183.16H520.053C520.013 182.453 519.833 181.92 519.513 181.56C519.206 181.2 518.766 181.02 518.193 181.02ZM530.577 178.94C531.75 178.94 532.624 179.287 533.197 179.98C533.77 180.66 534.057 181.693 534.057 183.08V189H531.037V183.22C531.037 182.553 530.91 182.067 530.657 181.76C530.417 181.453 530.037 181.3 529.517 181.3C528.89 181.3 528.384 181.5 527.997 181.9C527.624 182.3 527.437 182.833 527.437 183.5V189H524.417V179.18H527.357V180.58C527.704 180.047 528.15 179.64 528.697 179.36C529.257 179.08 529.884 178.94 530.577 178.94ZM325.829 202.9H331.309C332.842 202.9 334.162 203.18 335.269 203.74C336.375 204.3 337.222 205.107 337.809 206.16C338.395 207.213 338.689 208.473 338.689 209.94C338.689 211.407 338.395 212.673 337.809 213.74C337.235 214.793 336.395 215.6 335.289 216.16C334.182 216.72 332.855 217 331.309 217H325.829V202.9ZM331.089 214.48C334.089 214.48 335.589 212.967 335.589 209.94C335.589 206.927 334.089 205.42 331.089 205.42H328.949V214.48H331.089ZM345.203 206.94C346.669 206.94 347.749 207.287 348.443 207.98C349.149 208.673 349.503 209.747 349.503 211.2V217H346.643V215.54C346.443 216.047 346.109 216.447 345.643 216.74C345.176 217.02 344.629 217.16 344.003 217.16C343.336 217.16 342.729 217.027 342.183 216.76C341.649 216.493 341.223 216.12 340.903 215.64C340.596 215.16 340.443 214.627 340.443 214.04C340.443 213.32 340.623 212.753 340.983 212.34C341.356 211.927 341.949 211.627 342.763 211.44C343.576 211.253 344.689 211.16 346.103 211.16H346.623V210.8C346.623 210.213 346.496 209.8 346.243 209.56C345.989 209.32 345.549 209.2 344.923 209.2C344.443 209.2 343.909 209.287 343.323 209.46C342.736 209.633 342.176 209.873 341.643 210.18L340.843 208.16C341.403 207.813 342.089 207.527 342.903 207.3C343.729 207.06 344.496 206.94 345.203 206.94ZM344.663 215.08C345.249 215.08 345.723 214.887 346.083 214.5C346.443 214.1 346.623 213.587 346.623 212.96V212.62H346.283C345.203 212.62 344.443 212.707 344.003 212.88C343.576 213.053 343.363 213.367 343.363 213.82C343.363 214.18 343.483 214.48 343.723 214.72C343.976 214.96 344.289 215.08 344.663 215.08ZM357.201 214.94C357.507 214.94 357.827 214.92 358.161 214.88L358.001 217.08C357.614 217.133 357.227 217.16 356.841 217.16C355.347 217.16 354.254 216.833 353.561 216.18C352.881 215.527 352.541 214.533 352.541 213.2V209.44H350.681V207.18H352.541V204.3H355.561V207.18H358.021V209.44H355.561V213.18C355.561 214.353 356.107 214.94 357.201 214.94ZM368.335 212.66H361.935C362.028 213.447 362.282 214.02 362.695 214.38C363.122 214.727 363.722 214.9 364.495 214.9C365.002 214.9 365.502 214.82 365.995 214.66C366.502 214.487 366.962 214.247 367.375 213.94L368.175 215.96C367.695 216.333 367.108 216.627 366.415 216.84C365.735 217.053 365.048 217.16 364.355 217.16C362.702 217.16 361.395 216.707 360.435 215.8C359.488 214.88 359.015 213.633 359.015 212.06C359.015 211.06 359.222 210.173 359.635 209.4C360.048 208.627 360.622 208.027 361.355 207.6C362.088 207.16 362.922 206.94 363.855 206.94C365.228 206.94 366.315 207.387 367.115 208.28C367.928 209.173 368.335 210.387 368.335 211.92V212.66ZM363.935 209.02C363.362 209.02 362.902 209.207 362.555 209.58C362.222 209.94 362.015 210.467 361.935 211.16H365.795C365.755 210.453 365.575 209.92 365.255 209.56C364.948 209.2 364.508 209.02 363.935 209.02ZM376.319 206.94C377.492 206.94 378.366 207.287 378.939 207.98C379.512 208.66 379.799 209.693 379.799 211.08V217H376.779V211.22C376.779 210.553 376.652 210.067 376.399 209.76C376.159 209.453 375.779 209.3 375.259 209.3C374.632 209.3 374.126 209.5 373.739 209.9C373.366 210.3 373.179 210.833 373.179 211.5V217H370.159V207.18H373.099V208.58C373.446 208.047 373.892 207.64 374.439 207.36C374.999 207.08 375.626 206.94 376.319 206.94ZM391.439 207.18H393.899V209.44H391.439V217H388.419V209.44H386.559V207.18H388.419C388.446 205.793 388.846 204.753 389.619 204.06C390.406 203.353 391.599 202.953 393.199 202.86L394.299 202.8L394.479 205.02L393.539 205.06C392.766 205.087 392.219 205.233 391.899 205.5C391.593 205.753 391.439 206.18 391.439 206.78V207.18ZM404.619 207.18V217H401.679V215.6C401.372 216.107 400.966 216.493 400.459 216.76C399.966 217.027 399.406 217.16 398.779 217.16C397.539 217.16 396.612 216.82 395.999 216.14C395.399 215.447 395.099 214.407 395.099 213.02V207.18H398.119V213.08C398.119 213.667 398.239 214.1 398.479 214.38C398.732 214.66 399.112 214.8 399.619 214.8C400.206 214.8 400.679 214.6 401.039 214.2C401.412 213.8 401.599 213.273 401.599 212.62V207.18H404.619ZM396.579 202.56H399.359V205.2H396.579V202.56ZM400.399 202.56H403.179V205.2H400.399V202.56ZM413.956 209.42L412.256 209.6C411.416 209.68 410.823 209.92 410.476 210.32C410.13 210.707 409.956 211.227 409.956 211.88V217H406.936V207.18H409.836V208.84C410.33 207.707 411.35 207.087 412.896 206.98L413.776 206.92L413.956 209.42ZM420.79 202.9H426.27C427.803 202.9 429.123 203.18 430.23 203.74C431.336 204.3 432.183 205.107 432.77 206.16C433.356 207.213 433.65 208.473 433.65 209.94C433.65 211.407 433.356 212.673 432.77 213.74C432.196 214.793 431.356 215.6 430.25 216.16C429.143 216.72 427.816 217 426.27 217H420.79V202.9ZM426.05 214.48C429.05 214.48 430.55 212.967 430.55 209.94C430.55 206.927 429.05 205.42 426.05 205.42H423.91V214.48H426.05ZM444.644 212.66H438.244C438.337 213.447 438.59 214.02 439.004 214.38C439.43 214.727 440.03 214.9 440.804 214.9C441.31 214.9 441.81 214.82 442.304 214.66C442.81 214.487 443.27 214.247 443.684 213.94L444.484 215.96C444.004 216.333 443.417 216.627 442.724 216.84C442.044 217.053 441.357 217.16 440.664 217.16C439.01 217.16 437.704 216.707 436.744 215.8C435.797 214.88 435.324 213.633 435.324 212.06C435.324 211.06 435.53 210.173 435.944 209.4C436.357 208.627 436.93 208.027 437.664 207.6C438.397 207.16 439.23 206.94 440.164 206.94C441.537 206.94 442.624 207.387 443.424 208.28C444.237 209.173 444.644 210.387 444.644 211.92V212.66ZM440.244 209.02C439.67 209.02 439.21 209.207 438.864 209.58C438.53 209.94 438.324 210.467 438.244 211.16H442.104C442.064 210.453 441.884 209.92 441.564 209.56C441.257 209.2 440.817 209.02 440.244 209.02ZM446.468 217V207.18H449.488V217H446.468ZM446.368 202.46H449.608V205.28H446.368V202.46ZM457.96 206.94C459.133 206.94 460.006 207.287 460.58 207.98C461.153 208.66 461.44 209.693 461.44 211.08V217H458.42V211.22C458.42 210.553 458.293 210.067 458.04 209.76C457.8 209.453 457.42 209.3 456.9 209.3C456.273 209.3 455.766 209.5 455.38 209.9C455.006 210.3 454.82 210.833 454.82 211.5V217H451.8V207.18H454.74V208.58C455.086 208.047 455.533 207.64 456.08 207.36C456.64 207.08 457.266 206.94 457.96 206.94ZM469.52 202.9H475C476.533 202.9 477.853 203.18 478.96 203.74C480.067 204.3 480.913 205.107 481.5 206.16C482.087 207.213 482.38 208.473 482.38 209.94C482.38 211.407 482.087 212.673 481.5 213.74C480.927 214.793 480.087 215.6 478.98 216.16C477.873 216.72 476.547 217 475 217H469.52V202.9ZM474.78 214.48C477.78 214.48 479.28 212.967 479.28 209.94C479.28 206.927 477.78 205.42 474.78 205.42H472.64V214.48H474.78ZM493.374 212.66H486.974C487.067 213.447 487.321 214.02 487.734 214.38C488.161 214.727 488.761 214.9 489.534 214.9C490.041 214.9 490.541 214.82 491.034 214.66C491.541 214.487 492.001 214.247 492.414 213.94L493.214 215.96C492.734 216.333 492.147 216.627 491.454 216.84C490.774 217.053 490.087 217.16 489.394 217.16C487.741 217.16 486.434 216.707 485.474 215.8C484.527 214.88 484.054 213.633 484.054 212.06C484.054 211.06 484.261 210.173 484.674 209.4C485.087 208.627 485.661 208.027 486.394 207.6C487.127 207.16 487.961 206.94 488.894 206.94C490.267 206.94 491.354 207.387 492.154 208.28C492.967 209.173 493.374 210.387 493.374 211.92V212.66ZM488.974 209.02C488.401 209.02 487.941 209.207 487.594 209.58C487.261 209.94 487.054 210.467 486.974 211.16H490.834C490.794 210.453 490.614 209.92 490.294 209.56C489.987 209.2 489.547 209.02 488.974 209.02ZM501.278 206.94C502.118 206.94 502.865 207.16 503.518 207.6C504.185 208.027 504.698 208.633 505.058 209.42C505.431 210.193 505.618 211.087 505.618 212.1C505.618 213.113 505.431 214.007 505.058 214.78C504.698 215.54 504.191 216.127 503.538 216.54C502.885 216.953 502.131 217.16 501.278 217.16C500.611 217.16 500.005 217.027 499.458 216.76C498.925 216.48 498.511 216.093 498.218 215.6V220.6H495.198V207.18H498.178V208.56C498.471 208.053 498.891 207.66 499.438 207.38C499.985 207.087 500.598 206.94 501.278 206.94ZM500.398 214.86C501.105 214.86 501.651 214.627 502.038 214.16C502.425 213.68 502.618 212.993 502.618 212.1C502.618 211.193 502.425 210.493 502.038 210C501.651 209.493 501.105 209.24 500.398 209.24C499.691 209.24 499.145 209.487 498.758 209.98C498.371 210.46 498.178 211.153 498.178 212.06C498.178 212.953 498.371 213.647 498.758 214.14C499.145 214.62 499.691 214.86 500.398 214.86ZM512.184 217.16C511.144 217.16 510.23 216.953 509.444 216.54C508.657 216.113 508.05 215.52 507.624 214.76C507.197 213.987 506.984 213.08 506.984 212.04C506.984 211 507.197 210.1 507.624 209.34C508.05 208.567 508.657 207.973 509.444 207.56C510.23 207.147 511.144 206.94 512.184 206.94C513.224 206.94 514.137 207.147 514.924 207.56C515.71 207.973 516.317 208.567 516.744 209.34C517.17 210.1 517.384 211 517.384 212.04C517.384 213.08 517.17 213.987 516.744 214.76C516.317 215.52 515.71 216.113 514.924 216.54C514.137 216.953 513.224 217.16 512.184 217.16ZM512.184 214.86C513.65 214.86 514.384 213.92 514.384 212.04C514.384 211.093 514.19 210.387 513.804 209.92C513.43 209.453 512.89 209.22 512.184 209.22C510.717 209.22 509.984 210.16 509.984 212.04C509.984 213.92 510.717 214.86 512.184 214.86ZM524.564 214.94C524.871 214.94 525.191 214.92 525.524 214.88L525.364 217.08C524.977 217.133 524.591 217.16 524.204 217.16C522.711 217.16 521.617 216.833 520.924 216.18C520.244 215.527 519.904 214.533 519.904 213.2V209.44H518.044V207.18H519.904V204.3H522.924V207.18H525.384V209.44H522.924V213.18C522.924 214.353 523.471 214.94 524.564 214.94ZM389.604 240.66H383.204C383.298 241.447 383.551 242.02 383.964 242.38C384.391 242.727 384.991 242.9 385.764 242.9C386.271 242.9 386.771 242.82 387.264 242.66C387.771 242.487 388.231 242.247 388.644 241.94L389.444 243.96C388.964 244.333 388.378 244.627 387.684 244.84C387.004 245.053 386.318 245.16 385.624 245.16C383.971 245.16 382.664 244.707 381.704 243.8C380.758 242.88 380.284 241.633 380.284 240.06C380.284 239.06 380.491 238.173 380.904 237.4C381.318 236.627 381.891 236.027 382.624 235.6C383.358 235.16 384.191 234.94 385.124 234.94C386.498 234.94 387.584 235.387 388.384 236.28C389.198 237.173 389.604 238.387 389.604 239.92V240.66ZM385.204 237.02C384.631 237.02 384.171 237.207 383.824 237.58C383.491 237.94 383.284 238.467 383.204 239.16H387.064C387.024 238.453 386.844 237.92 386.524 237.56C386.218 237.2 385.778 237.02 385.204 237.02ZM391.429 245V235.18H394.449V245H391.429ZM391.329 230.46H394.569V233.28H391.329V230.46ZM402.921 234.94C404.094 234.94 404.967 235.287 405.541 235.98C406.114 236.66 406.401 237.693 406.401 239.08V245H403.381V239.22C403.381 238.553 403.254 238.067 403.001 237.76C402.761 237.453 402.381 237.3 401.861 237.3C401.234 237.3 400.727 237.5 400.341 237.9C399.967 238.3 399.781 238.833 399.781 239.5V245H396.761V235.18H399.701V236.58C400.047 236.047 400.494 235.64 401.041 235.36C401.601 235.08 402.227 234.94 402.921 234.94ZM418.675 235.18V243.94C418.675 245.527 418.222 246.727 417.315 247.54C416.408 248.353 415.068 248.76 413.295 248.76C412.415 248.76 411.568 248.653 410.755 248.44C409.955 248.227 409.248 247.927 408.635 247.54L409.435 245.46C410.702 246.153 411.962 246.5 413.215 246.5C414.868 246.5 415.695 245.72 415.695 244.16V243.08C415.415 243.587 414.995 243.987 414.435 244.28C413.875 244.573 413.248 244.72 412.555 244.72C411.702 244.72 410.942 244.52 410.275 244.12C409.622 243.72 409.108 243.153 408.735 242.42C408.362 241.673 408.175 240.813 408.175 239.84C408.175 238.867 408.362 238.013 408.735 237.28C409.108 236.533 409.622 235.96 410.275 235.56C410.942 235.147 411.702 234.94 412.555 234.94C413.235 234.94 413.848 235.087 414.395 235.38C414.955 235.66 415.382 236.053 415.675 236.56V235.18H418.675ZM413.435 242.42C414.142 242.42 414.688 242.193 415.075 241.74C415.475 241.287 415.675 240.653 415.675 239.84C415.675 239.027 415.475 238.393 415.075 237.94C414.688 237.473 414.142 237.24 413.435 237.24C412.728 237.24 412.175 237.473 411.775 237.94C411.375 238.393 411.175 239.027 411.175 239.84C411.175 240.64 411.375 241.273 411.775 241.74C412.175 242.193 412.728 242.42 413.435 242.42ZM429.839 240.66H423.439C423.532 241.447 423.786 242.02 424.199 242.38C424.626 242.727 425.226 242.9 425.999 242.9C426.506 242.9 427.006 242.82 427.499 242.66C428.006 242.487 428.466 242.247 428.879 241.94L429.679 243.96C429.199 244.333 428.612 244.627 427.919 244.84C427.239 245.053 426.552 245.16 425.859 245.16C424.206 245.16 422.899 244.707 421.939 243.8C420.992 242.88 420.519 241.633 420.519 240.06C420.519 239.06 420.726 238.173 421.139 237.4C421.552 236.627 422.126 236.027 422.859 235.6C423.592 235.16 424.426 234.94 425.359 234.94C426.732 234.94 427.819 235.387 428.619 236.28C429.432 237.173 429.839 238.387 429.839 239.92V240.66ZM425.439 237.02C424.866 237.02 424.406 237.207 424.059 237.58C423.726 237.94 423.519 238.467 423.439 239.16H427.299C427.259 238.453 427.079 237.92 426.759 237.56C426.452 237.2 426.012 237.02 425.439 237.02ZM437.743 234.94C438.596 234.94 439.35 235.147 440.003 235.56C440.656 235.973 441.163 236.567 441.523 237.34C441.896 238.1 442.083 238.987 442.083 240C442.083 241.013 441.896 241.913 441.523 242.7C441.163 243.473 440.65 244.08 439.983 244.52C439.33 244.947 438.583 245.16 437.743 245.16C437.063 245.16 436.45 245.02 435.903 244.74C435.356 244.447 434.936 244.047 434.643 243.54V245H431.663V230.9H434.683V236.5C434.976 236.007 435.39 235.627 435.923 235.36C436.47 235.08 437.076 234.94 437.743 234.94ZM436.863 242.86C437.57 242.86 438.116 242.613 438.503 242.12C438.89 241.613 439.083 240.907 439.083 240C439.083 239.107 438.89 238.427 438.503 237.96C438.116 237.48 437.57 237.24 436.863 237.24C436.156 237.24 435.61 237.487 435.223 237.98C434.836 238.46 434.643 239.147 434.643 240.04C434.643 240.947 434.836 241.647 435.223 242.14C435.61 242.62 436.156 242.86 436.863 242.86ZM452.769 240.66H446.369C446.462 241.447 446.715 242.02 447.129 242.38C447.555 242.727 448.155 242.9 448.929 242.9C449.435 242.9 449.935 242.82 450.429 242.66C450.935 242.487 451.395 242.247 451.809 241.94L452.609 243.96C452.129 244.333 451.542 244.627 450.849 244.84C450.169 245.053 449.482 245.16 448.789 245.16C447.135 245.16 445.829 244.707 444.869 243.8C443.922 242.88 443.449 241.633 443.449 240.06C443.449 239.06 443.655 238.173 444.069 237.4C444.482 236.627 445.055 236.027 445.789 235.6C446.522 235.16 447.355 234.94 448.289 234.94C449.662 234.94 450.749 235.387 451.549 236.28C452.362 237.173 452.769 238.387 452.769 239.92V240.66ZM448.369 237.02C447.795 237.02 447.335 237.207 446.989 237.58C446.655 237.94 446.449 238.467 446.369 239.16H450.229C450.189 238.453 450.009 237.92 449.689 237.56C449.382 237.2 448.942 237.02 448.369 237.02ZM460.753 234.94C461.926 234.94 462.799 235.287 463.373 235.98C463.946 236.66 464.233 237.693 464.233 239.08V245H461.213V239.22C461.213 238.553 461.086 238.067 460.833 237.76C460.593 237.453 460.213 237.3 459.693 237.3C459.066 237.3 458.559 237.5 458.173 237.9C457.799 238.3 457.613 238.833 457.613 239.5V245H454.593V235.18H457.533V236.58C457.879 236.047 458.326 235.64 458.873 235.36C459.433 235.08 460.059 234.94 460.753 234.94ZM466.307 241.8H469.547V245H466.307V241.8Z" fill="white"/>
</g>
<path d="M267.23 86.8987L266.853 85.9726L267.23 86.8987ZM277.901 81.7881C278.41 82.0025 278.649 82.5889 278.434 83.0978L274.942 91.3924C274.727 91.9014 274.141 92.1403 273.632 91.926C273.123 91.7116 272.884 91.1253 273.098 90.6163L276.203 83.2433L268.83 80.1386C268.321 79.9243 268.082 79.3379 268.297 78.8289C268.511 78.3199 269.097 78.081 269.606 78.2953L277.901 81.7881ZM266.853 85.9726L277.136 81.7837L277.89 83.6359L267.607 87.8248L266.853 85.9726ZM209.594 148.702C218.265 120.239 239.297 97.1978 266.853 85.9726L267.607 87.8248C240.609 98.8228 220.003 121.398 211.507 149.285L209.594 148.702Z" fill="url(#paint1_linear_2038_20005)"/>
<g filter="url(#filter2_d_2038_20005)">
<rect x="30" y="142.607" width="260" height="224" rx="30" transform="rotate(-3 30 142.607)" fill="#191A1C" shape-rendering="crispEdges"/>
<g clip-path="url(#clip1_2038_20005)">
<path fill-rule="evenodd" clip-rule="evenodd" d="M154.759 211.172C154.73 210.62 155.154 210.15 155.705 210.121L171.683 209.284C172.235 209.255 172.705 209.678 172.734 210.23C172.763 210.781 172.339 211.252 171.788 211.281L155.81 212.118C155.258 212.147 154.788 211.723 154.759 211.172Z" fill="#28EBCF"/>
<path fill-rule="evenodd" clip-rule="evenodd" d="M143.251 201.761C143.222 201.21 143.645 200.739 144.197 200.71L182.145 198.722C182.696 198.693 183.167 199.116 183.196 199.668C183.225 200.22 182.801 200.69 182.249 200.719L144.302 202.708C143.75 202.737 143.279 202.313 143.251 201.761Z" fill="#28EBCF"/>
<path fill-rule="evenodd" clip-rule="evenodd" d="M147.04 178.531C145.386 178.618 144.115 180.03 144.201 181.684L145.3 202.655C145.387 204.31 146.799 205.581 148.453 205.494L178.412 203.924C180.067 203.837 181.338 202.426 181.251 200.771L180.152 179.8C180.065 178.145 178.654 176.874 176.999 176.961L147.04 178.531ZM142.204 181.789C142.06 179.031 144.178 176.678 146.936 176.534L176.894 174.964C179.652 174.819 182.005 176.938 182.149 179.695L183.248 200.667C183.393 203.424 181.274 205.777 178.517 205.921L148.558 207.491C145.8 207.636 143.448 205.518 143.303 202.76L142.204 181.789Z" fill="#28EBCF"/>
<path fill-rule="evenodd" clip-rule="evenodd" d="M153.293 183.21C153.029 183.224 152.78 183.343 152.603 183.54C152.425 183.737 152.333 183.997 152.347 184.261L153.237 201.238C153.266 201.79 152.842 202.26 152.291 202.289C151.739 202.318 151.268 201.894 151.24 201.343L150.35 184.366C150.308 183.571 150.584 182.793 151.116 182.202C151.649 181.61 152.394 181.255 153.189 181.213L171.164 180.271C171.959 180.229 172.737 180.505 173.328 181.038C173.92 181.57 174.275 182.315 174.317 183.11L175.207 200.087C175.236 200.638 174.812 201.109 174.26 201.138C173.709 201.167 173.238 200.743 173.209 200.191L172.32 183.215C172.306 182.95 172.187 182.701 171.99 182.524C171.793 182.346 171.534 182.254 171.269 182.268L153.293 183.21Z" fill="#28EBCF"/>
<path fill-rule="evenodd" clip-rule="evenodd" d="M155.553 188.099C155.524 187.547 155.948 187.077 156.499 187.048L160.494 186.839C161.045 186.81 161.516 187.233 161.545 187.785C161.574 188.336 161.15 188.807 160.598 188.836L156.604 189.045C156.052 189.074 155.582 188.65 155.553 188.099Z" fill="#28EBCF"/>
<path fill-rule="evenodd" clip-rule="evenodd" d="M155.762 192.093C155.733 191.542 156.157 191.071 156.708 191.042L168.692 190.414C169.243 190.385 169.714 190.809 169.743 191.361C169.772 191.912 169.348 192.383 168.796 192.412L156.813 193.04C156.261 193.069 155.791 192.645 155.762 192.093Z" fill="#28EBCF"/>
<path fill-rule="evenodd" clip-rule="evenodd" d="M155.971 196.088C155.942 195.536 156.366 195.066 156.918 195.037L165.905 194.566C166.457 194.537 166.927 194.961 166.956 195.512C166.985 196.064 166.561 196.534 166.01 196.563L157.022 197.034C156.471 197.063 156 196.639 155.971 196.088Z" fill="#28EBCF"/>
</g>
<path d="M84.1871 270.947L83.4492 256.867L93.1559 256.358L93.2825 258.775L86.6117 259.124L86.7844 262.42L93.0558 262.091L93.1824 264.508L86.911 264.836L87.0963 268.372L93.7672 268.022L93.8938 270.439L84.1871 270.947ZM95.7867 270.339L95.2727 260.533L98.2886 260.375L98.8025 270.181L95.7867 270.339ZM94.9259 255.825L98.1614 255.655L98.309 258.471L95.0734 258.641L94.9259 255.825ZM106.736 259.692C107.908 259.63 108.798 259.931 109.407 260.593C110.015 261.242 110.356 262.259 110.428 263.644L110.738 269.556L107.722 269.714L107.42 263.942C107.385 263.276 107.233 262.797 106.964 262.504C106.708 262.21 106.321 262.077 105.801 262.104C105.176 262.137 104.68 262.363 104.315 262.783C103.963 263.202 103.805 263.744 103.839 264.41L104.127 269.902L101.111 270.06L100.597 260.254L103.533 260.1L103.607 261.498C103.925 260.947 104.35 260.518 104.881 260.21C105.426 259.901 106.044 259.728 106.736 259.692ZM116.27 259.432L118.727 259.304L118.845 261.561L116.389 261.689L116.784 269.239L113.769 269.397L113.373 261.847L111.515 261.945L111.397 259.688L113.255 259.591C113.209 258.204 113.554 257.145 114.29 256.412C115.038 255.665 116.209 255.203 117.802 255.026L118.897 254.909L119.193 257.116L118.257 257.205C117.486 257.273 116.948 257.448 116.642 257.731C116.349 258 116.218 258.434 116.25 259.033L116.27 259.432ZM124.229 258.775C125.694 258.698 126.79 258.988 127.519 259.644C128.261 260.299 128.67 261.353 128.746 262.804L129.049 268.596L126.193 268.746L126.117 267.288C125.944 267.804 125.632 268.221 125.181 268.539C124.73 268.843 124.191 269.011 123.565 269.044C122.9 269.079 122.287 268.977 121.727 268.74C121.18 268.501 120.735 268.151 120.39 267.688C120.059 267.225 119.878 266.7 119.847 266.114C119.809 265.395 119.959 264.82 120.297 264.389C120.648 263.956 121.225 263.626 122.028 263.397C122.83 263.168 123.937 263.016 125.348 262.942L125.868 262.915L125.849 262.555C125.818 261.97 125.67 261.563 125.405 261.337C125.139 261.111 124.693 261.014 124.068 261.047C123.588 261.072 123.06 261.186 122.483 261.39C121.907 261.594 121.36 261.863 120.843 262.197L119.939 260.222C120.48 259.846 121.15 259.524 121.951 259.255C122.764 258.972 123.523 258.812 124.229 258.775ZM124.116 266.932C124.701 266.901 125.164 266.684 125.503 266.279C125.842 265.86 125.995 265.338 125.962 264.713L125.944 264.373L125.605 264.391C124.526 264.447 123.772 264.574 123.341 264.77C122.924 264.965 122.728 265.289 122.751 265.742C122.77 266.101 122.906 266.395 123.158 266.622C123.424 266.848 123.743 266.952 124.116 266.932ZM135.986 268.393C134.388 268.477 133.106 268.09 132.14 267.233C131.174 266.375 130.65 265.168 130.569 263.61C130.515 262.585 130.687 261.674 131.086 260.879C131.485 260.07 132.072 259.432 132.849 258.964C133.625 258.496 134.539 258.235 135.591 258.18C136.31 258.142 137.009 258.219 137.686 258.41C138.363 258.588 138.918 258.853 139.35 259.204L138.659 261.303C138.257 261.017 137.818 260.807 137.344 260.671C136.882 260.522 136.432 260.459 135.992 260.482C135.207 260.523 134.606 260.788 134.191 261.277C133.79 261.765 133.613 262.469 133.661 263.388C133.709 264.306 133.959 264.994 134.41 265.451C134.874 265.894 135.499 266.095 136.284 266.054C136.724 266.031 137.166 265.928 137.61 265.744C138.067 265.547 138.48 265.285 138.85 264.958L139.758 266.994C139.338 267.389 138.794 267.712 138.127 267.96C137.459 268.209 136.745 268.353 135.986 268.393ZM146.799 257.592C147.97 257.531 148.861 257.831 149.47 258.494C150.078 259.143 150.418 260.16 150.491 261.544L150.8 267.456L147.785 267.614L147.482 261.842C147.447 261.177 147.295 260.697 147.026 260.404C146.77 260.111 146.383 259.977 145.864 260.004C145.238 260.037 144.742 260.264 144.377 260.683C144.025 261.102 143.867 261.645 143.902 262.31L144.189 267.803L141.174 267.961L140.436 253.88L143.452 253.722L143.744 259.294C144.063 258.77 144.483 258.368 145.002 258.087C145.534 257.792 146.133 257.627 146.799 257.592ZM163.352 266.959C162.313 267.013 161.391 266.855 160.583 266.483C159.775 266.098 159.139 265.537 158.673 264.801C158.206 264.051 157.946 263.156 157.891 262.118C157.837 261.079 158.003 260.169 158.389 259.388C158.775 258.594 159.349 257.969 160.113 257.515C160.877 257.061 161.779 256.807 162.817 256.753C163.856 256.698 164.779 256.857 165.586 257.228C166.393 257.6 167.03 258.161 167.497 258.911C167.962 259.647 168.223 260.535 168.277 261.574C168.331 262.612 168.166 263.529 167.78 264.323C167.394 265.105 166.819 265.729 166.056 266.196C165.292 266.65 164.391 266.904 163.352 266.959ZM163.232 264.662C164.696 264.585 165.379 263.608 165.281 261.731C165.232 260.785 165.001 260.09 164.591 259.644C164.194 259.197 163.642 258.993 162.936 259.03C161.472 259.106 160.789 260.083 160.887 261.961C160.985 263.838 161.767 264.739 163.232 264.662ZM175.997 256.062C177.169 256.001 178.059 256.301 178.668 256.963C179.276 257.613 179.616 258.629 179.689 260.014L179.999 265.926L176.983 266.084L176.68 260.312C176.645 259.646 176.493 259.167 176.224 258.874C175.969 258.58 175.581 258.447 175.062 258.474C174.436 258.507 173.941 258.733 173.575 259.153C173.223 259.572 173.065 260.114 173.1 260.78L173.388 266.273L170.372 266.431L169.858 256.624L172.794 256.47L172.867 257.868C173.185 257.318 173.61 256.888 174.141 256.58C174.686 256.271 175.304 256.098 175.997 256.062ZM182.25 265.808L181.512 251.727L184.528 251.569L185.266 265.65L182.25 265.808ZM187.575 265.529L187.061 255.723L190.077 255.564L190.591 265.371L187.575 265.529ZM186.714 251.014L189.95 250.845L190.097 253.661L186.862 253.83L186.714 251.014ZM198.525 254.881C199.696 254.82 200.587 255.12 201.195 255.783C201.804 256.432 202.144 257.449 202.216 258.834L202.526 264.745L199.51 264.904L199.208 259.131C199.173 258.466 199.021 257.986 198.752 257.693C198.496 257.4 198.109 257.266 197.59 257.294C196.964 257.326 196.468 257.553 196.103 257.972C195.751 258.391 195.593 258.934 195.628 259.599L195.915 265.092L192.899 265.25L192.386 255.443L195.322 255.29L195.395 256.688C195.713 256.137 196.138 255.707 196.669 255.399C197.214 255.09 197.832 254.918 198.525 254.881ZM213.378 259.831L206.987 260.166C207.122 260.946 207.405 261.506 207.836 261.844C208.28 262.167 208.889 262.309 209.661 262.269C210.167 262.242 210.662 262.136 211.146 261.951C211.643 261.751 212.09 261.487 212.487 261.159L213.391 263.135C212.932 263.533 212.361 263.856 211.68 264.106C211.012 264.354 210.332 264.497 209.639 264.533C207.988 264.619 206.66 264.235 205.654 263.38C204.66 262.511 204.122 261.291 204.04 259.719C203.988 258.721 204.147 257.824 204.52 257.031C204.892 256.237 205.433 255.607 206.143 255.143C206.853 254.665 207.673 254.402 208.605 254.353C209.977 254.281 211.085 254.67 211.931 255.521C212.79 256.37 213.259 257.561 213.34 259.092L213.378 259.831ZM208.794 256.426C208.221 256.456 207.772 256.667 207.445 257.058C207.131 257.434 206.952 257.971 206.909 258.668L210.763 258.466C210.687 257.762 210.479 257.239 210.14 256.896C209.815 256.553 209.367 256.396 208.794 256.426ZM232.562 253.098C233.681 253.039 234.531 253.335 235.112 253.985C235.694 254.636 236.021 255.66 236.094 257.058L236.404 262.97L233.388 263.128L233.084 257.316C233.049 256.65 232.917 256.177 232.689 255.895C232.474 255.612 232.12 255.484 231.627 255.51C231.055 255.54 230.619 255.763 230.321 256.179C230.022 256.595 229.891 257.163 229.929 257.882L230.213 263.294L227.197 263.453L226.892 257.641C226.857 256.975 226.726 256.501 226.497 256.219C226.282 255.937 225.928 255.808 225.436 255.834C224.863 255.864 224.428 256.087 224.129 256.504C223.83 256.92 223.7 257.487 223.738 258.206L224.021 263.619L221.005 263.777L220.492 253.97L223.427 253.817L223.497 255.135C223.776 254.613 224.162 254.205 224.654 253.913C225.16 253.619 225.745 253.455 226.411 253.42C227.862 253.344 228.866 253.899 229.422 255.085C229.712 254.509 230.135 254.046 230.691 253.696C231.246 253.333 231.87 253.134 232.562 253.098ZM238.677 262.851L238.163 253.044L241.178 252.886L241.692 262.693L238.677 262.851ZM237.816 248.336L241.051 248.167L241.199 250.983L237.963 251.152L237.816 248.336ZM249.326 260.23C249.632 260.214 249.951 260.177 250.282 260.12L250.237 262.325C249.854 262.399 249.469 262.446 249.083 262.466C247.591 262.544 246.482 262.275 245.756 261.659C245.043 261.042 244.651 260.068 244.581 258.736L244.385 254.981L242.527 255.079L242.409 252.822L244.266 252.725L244.116 249.848L247.131 249.69L247.282 252.566L249.739 252.438L249.857 254.695L247.4 254.823L247.596 258.558C247.658 259.73 248.234 260.287 249.326 260.23ZM101.435 283.963L106.907 283.676C108.439 283.595 109.771 283.806 110.906 284.307C112.04 284.809 112.928 285.57 113.569 286.591C114.21 287.612 114.569 288.855 114.646 290.32C114.722 291.785 114.496 293.065 113.966 294.161C113.448 295.243 112.652 296.092 111.576 296.709C110.5 297.326 109.19 297.675 107.645 297.756L102.173 298.043L101.435 283.963ZM107.294 295.251C110.29 295.094 111.708 293.505 111.55 290.482C111.392 287.473 109.815 286.047 106.82 286.204L104.683 286.316L105.157 295.363L107.294 295.251ZM125.767 292.461L119.376 292.796C119.51 293.576 119.793 294.136 120.225 294.474C120.669 294.797 121.277 294.939 122.049 294.899C122.555 294.872 123.051 294.766 123.535 294.58C124.032 294.381 124.478 294.117 124.875 293.789L125.78 295.765C125.32 296.163 124.75 296.486 124.068 296.735C123.4 296.984 122.72 297.127 122.028 297.163C120.377 297.249 119.048 296.865 118.042 296.01C117.049 295.141 116.511 293.921 116.428 292.349C116.376 291.351 116.536 290.454 116.908 289.661C117.281 288.867 117.822 288.237 118.532 287.773C119.241 287.295 120.062 287.032 120.994 286.983C122.365 286.911 123.474 287.3 124.319 288.151C125.178 289 125.648 290.191 125.728 291.722L125.767 292.461ZM121.182 289.056C120.61 289.086 120.16 289.296 119.834 289.687C119.52 290.064 119.341 290.601 119.297 291.298L123.152 291.096C123.075 290.392 122.867 289.869 122.529 289.526C122.204 289.183 121.755 289.026 121.182 289.056ZM127.816 296.699L127.302 286.893L130.318 286.735L130.831 296.541L127.816 296.699ZM126.955 282.184L130.19 282.015L130.338 284.831L127.102 285.001L126.955 282.184ZM138.765 286.052C139.937 285.99 140.827 286.291 141.436 286.953C142.044 287.602 142.385 288.619 142.457 290.004L142.767 295.916L139.751 296.074L139.449 290.302C139.414 289.636 139.262 289.157 138.993 288.864C138.737 288.57 138.35 288.437 137.83 288.464C137.205 288.497 136.709 288.723 136.344 289.143C135.992 289.562 135.833 290.104 135.868 290.77L136.156 296.262L133.14 296.42L132.626 286.614L135.562 286.46L135.636 287.858C135.954 287.307 136.379 286.878 136.91 286.569C137.455 286.261 138.073 286.088 138.765 286.052ZM153.619 291.001L147.228 291.336C147.362 292.117 147.645 292.676 148.077 293.014C148.521 293.338 149.13 293.479 149.902 293.439C150.408 293.412 150.903 293.306 151.387 293.121C151.884 292.921 152.331 292.657 152.728 292.33L153.632 294.305C153.172 294.703 152.602 295.026 151.921 295.276C151.253 295.524 150.573 295.667 149.88 295.703C148.229 295.79 146.901 295.405 145.894 294.55C144.901 293.681 144.363 292.461 144.281 290.89C144.228 289.891 144.388 288.995 144.761 288.201C145.133 287.407 145.674 286.778 146.384 286.313C147.093 285.836 147.914 285.572 148.846 285.523C150.218 285.451 151.326 285.841 152.172 286.691C153.031 287.54 153.5 288.731 153.581 290.262L153.619 291.001ZM149.035 287.596C148.462 287.626 148.013 287.837 147.686 288.228C147.372 288.605 147.193 289.141 147.15 289.838L151.004 289.636C150.927 288.932 150.72 288.409 150.381 288.067C150.056 287.723 149.607 287.566 149.035 287.596ZM162.282 287.303L160.593 287.571C159.759 287.695 159.179 287.966 158.854 288.384C158.528 288.788 158.382 289.316 158.416 289.969L158.684 295.082L155.668 295.24L155.154 285.433L158.05 285.281L158.137 286.939C158.57 285.781 159.556 285.109 161.095 284.921L161.971 284.815L162.282 287.303ZM169.502 294.515L168.764 280.434L178.471 279.925L178.598 282.342L171.927 282.692L172.1 285.987L178.371 285.658L178.498 288.075L172.226 288.404L172.411 291.939L179.082 291.589L179.209 294.006L169.502 294.515ZM180.925 289.73L180.802 287.373L186.973 287.05L187.097 289.407L180.925 289.73ZM200.867 278.752L203.283 278.625L204.021 292.706L201.285 292.849L200.848 284.5L197.928 290.702L195.931 290.806L192.383 285.024L192.817 293.293L190.08 293.436L189.343 279.355L191.799 279.227L196.784 287.597L200.867 278.752ZM210.441 282.295C211.906 282.219 213.003 282.508 213.731 283.164C214.473 283.82 214.882 284.873 214.958 286.324L215.262 292.116L212.406 292.266L212.329 290.808C212.156 291.325 211.844 291.741 211.394 292.059C210.942 292.363 210.404 292.531 209.778 292.564C209.112 292.599 208.499 292.498 207.939 292.26C207.393 292.022 206.947 291.671 206.602 291.208C206.271 290.745 206.09 290.221 206.059 289.635C206.022 288.916 206.172 288.34 206.51 287.909C206.861 287.476 207.438 287.146 208.24 286.917C209.043 286.688 210.149 286.536 211.561 286.462L212.08 286.435L212.061 286.076C212.031 285.49 211.882 285.084 211.617 284.857C211.351 284.631 210.906 284.534 210.28 284.567C209.801 284.592 209.272 284.706 208.696 284.91C208.119 285.114 207.572 285.383 207.056 285.717L206.151 283.742C206.692 283.366 207.363 283.044 208.163 282.775C208.976 282.492 209.736 282.332 210.441 282.295ZM210.328 290.452C210.914 290.422 211.376 290.204 211.716 289.799C212.054 289.381 212.207 288.859 212.174 288.233L212.157 287.893L211.817 287.911C210.739 287.968 209.984 288.094 209.554 288.29C209.137 288.485 208.94 288.809 208.964 289.262C208.983 289.622 209.118 289.915 209.37 290.142C209.636 290.369 209.955 290.472 210.328 290.452ZM217.517 291.998L217.003 282.192L220.019 282.034L220.533 291.84L217.517 291.998ZM216.656 277.483L219.891 277.314L220.039 280.13L216.803 280.3L216.656 277.483ZM222.841 291.719L222.104 277.639L225.119 277.481L225.857 291.561L222.841 291.719ZM228.087 287.259L227.964 284.902L234.135 284.578L234.259 286.935L228.087 287.259ZM84.5416 327.006L83.0402 323.96L76.4892 324.303L75.3143 327.489L72.1786 327.654L77.9118 313.234L80.4084 313.103L87.6174 326.844L84.5416 327.006ZM77.3843 321.893L81.8981 321.657L79.3648 316.502L77.3843 321.893ZM97.7441 312.194L98.482 326.275L95.4861 326.432L95.4097 324.974C95.1433 325.495 94.7448 325.917 94.2143 326.238C93.6963 326.546 93.0978 326.717 92.4187 326.753C91.5799 326.797 90.8164 326.623 90.1283 326.232C89.4529 325.827 88.9085 325.248 88.4952 324.495C88.0945 323.729 87.8677 322.839 87.8146 321.827C87.7616 320.815 87.8949 319.92 88.2147 319.143C88.547 318.351 89.0286 317.731 89.6594 317.284C90.2902 316.838 91.0317 316.592 91.8839 316.547C92.5496 316.512 93.1561 316.621 93.7034 316.872C94.264 317.123 94.704 317.494 95.0234 317.985L94.7282 312.352L97.7441 312.194ZM93.1772 324.41C93.8829 324.373 94.4096 324.105 94.7573 323.606C95.1176 323.093 95.274 322.384 95.2266 321.479C95.1791 320.573 94.9498 319.891 94.5385 319.432C94.1406 318.972 93.5887 318.761 92.883 318.798C92.1773 318.835 91.644 319.103 91.283 319.603C90.9212 320.089 90.7638 320.778 90.8105 321.67C90.858 322.576 91.088 323.271 91.5007 323.757C91.9126 324.229 92.4715 324.447 93.1772 324.41ZM107.418 318.216L105.73 318.485C104.895 318.609 104.315 318.88 103.99 319.297C103.664 319.702 103.518 320.23 103.552 320.882L103.82 325.995L100.804 326.153L100.291 316.347L103.187 316.195L103.273 317.853C103.707 316.695 104.693 316.023 106.232 315.835L107.108 315.729L107.418 318.216ZM117.227 320.947L110.835 321.282C110.97 322.062 111.253 322.622 111.684 322.96C112.128 323.283 112.737 323.425 113.509 323.385C114.015 323.358 114.51 323.252 114.994 323.066C115.491 322.867 115.938 322.603 116.335 322.275L117.239 324.251C116.78 324.649 116.209 324.972 115.528 325.222C114.86 325.47 114.18 325.613 113.487 325.649C111.836 325.735 110.508 325.351 109.502 324.496C108.508 323.627 107.97 322.407 107.888 320.835C107.836 319.837 107.996 318.94 108.368 318.147C108.74 317.353 109.281 316.723 109.991 316.259C110.701 315.781 111.521 315.518 112.453 315.469C113.825 315.397 114.933 315.786 115.779 316.637C116.638 317.486 117.108 318.677 117.188 320.208L117.227 320.947ZM112.642 317.542C112.069 317.572 111.62 317.783 111.293 318.173C110.979 318.55 110.8 319.087 110.757 319.784L114.611 319.582C114.535 318.878 114.327 318.355 113.988 318.012C113.663 317.669 113.215 317.512 112.642 317.542ZM123.058 325.147C122.153 325.195 121.316 325.138 120.546 324.979C119.789 324.805 119.128 324.539 118.562 324.181L119.252 322.062C119.803 322.394 120.404 322.643 121.053 322.809C121.703 322.975 122.354 323.041 123.006 323.007C123.472 322.983 123.828 322.891 124.073 322.731C124.331 322.557 124.453 322.337 124.439 322.071C124.427 321.831 124.324 321.65 124.13 321.526C123.95 321.402 123.611 321.3 123.113 321.219L121.496 320.943C120.54 320.78 119.824 320.49 119.348 320.075C118.885 319.645 118.633 319.044 118.592 318.272C118.56 317.659 118.705 317.111 119.027 316.627C119.362 316.142 119.842 315.749 120.467 315.45C121.106 315.149 121.838 314.977 122.663 314.934C123.369 314.897 124.06 314.968 124.737 315.146C125.414 315.324 126.029 315.592 126.582 315.95L125.888 317.989C124.811 317.325 123.767 317.019 122.755 317.072C122.289 317.097 121.927 317.196 121.669 317.369C121.412 317.543 121.29 317.776 121.306 318.069C121.317 318.282 121.405 318.445 121.571 318.556C121.737 318.668 122.023 318.766 122.428 318.852L124.106 319.144C125.116 319.318 125.86 319.626 126.337 320.069C126.827 320.497 127.092 321.104 127.133 321.89C127.183 322.835 126.843 323.6 126.112 324.186C125.395 324.758 124.377 325.078 123.058 325.147ZM132.791 324.637C131.886 324.685 131.048 324.628 130.279 324.468C129.522 324.295 128.861 324.029 128.294 323.671L128.984 321.552C129.536 321.884 130.136 322.133 130.786 322.299C131.436 322.465 132.087 322.531 132.739 322.497C133.205 322.473 133.561 322.381 133.806 322.221C134.064 322.047 134.186 321.827 134.172 321.561C134.159 321.321 134.056 321.14 133.863 321.016C133.683 320.892 133.344 320.79 132.846 320.709L131.229 320.433C130.272 320.27 129.556 319.98 129.081 319.564C128.617 319.135 128.366 318.534 128.325 317.762C128.293 317.149 128.438 316.601 128.76 316.117C129.095 315.632 129.575 315.239 130.2 314.94C130.839 314.639 131.571 314.467 132.396 314.424C133.102 314.387 133.793 314.457 134.47 314.636C135.147 314.814 135.762 315.082 136.315 315.44L135.62 317.479C134.544 316.815 133.5 316.509 132.488 316.562C132.022 316.586 131.66 316.686 131.402 316.859C131.144 317.033 131.023 317.266 131.038 317.559C131.049 317.772 131.138 317.935 131.304 318.046C131.47 318.157 131.756 318.256 132.161 318.342L133.838 318.634C134.849 318.808 135.593 319.116 136.07 319.559C136.56 319.987 136.825 320.594 136.866 321.379C136.916 322.325 136.575 323.09 135.845 323.676C135.127 324.248 134.109 324.568 132.791 324.637ZM147.341 319.368L140.95 319.703C141.085 320.484 141.368 321.043 141.799 321.381C142.243 321.705 142.852 321.847 143.624 321.806C144.13 321.78 144.625 321.674 145.109 321.488C145.606 321.289 146.053 321.025 146.45 320.697L147.354 322.672C146.895 323.07 146.324 323.394 145.643 323.643C144.975 323.892 144.295 324.034 143.602 324.071C141.951 324.157 140.623 323.773 139.617 322.918C138.623 322.048 138.085 320.828 138.003 319.257C137.95 318.258 138.11 317.362 138.483 316.568C138.855 315.774 139.396 315.145 140.106 314.681C140.815 314.203 141.636 313.94 142.568 313.891C143.94 313.819 145.048 314.208 145.894 315.058C146.753 315.908 147.222 317.098 147.303 318.63L147.341 319.368ZM142.757 315.964C142.184 315.994 141.735 316.204 141.408 316.595C141.094 316.972 140.915 317.509 140.872 318.205L144.726 318.003C144.649 317.3 144.442 316.777 144.103 316.434C143.778 316.09 143.33 315.934 142.757 315.964ZM161.582 315.378L159.894 315.646C159.059 315.77 158.479 316.041 158.154 316.459C157.828 316.863 157.682 317.391 157.716 318.044L157.984 323.157L154.968 323.315L154.454 313.508L157.351 313.356L157.437 315.014C157.871 313.857 158.857 313.184 160.396 312.997L161.271 312.891L161.582 315.378ZM171.39 318.108L164.999 318.443C165.134 319.224 165.417 319.783 165.848 320.121C166.292 320.445 166.901 320.587 167.673 320.546C168.179 320.52 168.674 320.413 169.158 320.228C169.655 320.028 170.102 319.765 170.499 319.437L171.403 321.412C170.944 321.81 170.373 322.134 169.692 322.383C169.024 322.632 168.344 322.774 167.651 322.81C166 322.897 164.672 322.512 163.666 321.657C162.672 320.788 162.134 319.568 162.052 317.997C161.999 316.998 162.159 316.102 162.532 315.308C162.904 314.514 163.445 313.885 164.155 313.42C164.865 312.943 165.685 312.679 166.617 312.63C167.989 312.559 169.097 312.948 169.943 313.798C170.802 314.648 171.271 315.838 171.352 317.369L171.39 318.108ZM166.806 314.703C166.233 314.733 165.784 314.944 165.457 315.335C165.143 315.712 164.964 316.249 164.921 316.945L168.775 316.743C168.699 316.04 168.491 315.516 168.152 315.174C167.827 314.83 167.379 314.673 166.806 314.703ZM182.931 312.016L183.39 320.764C183.473 322.348 183.083 323.57 182.22 324.43C181.357 325.29 180.04 325.766 178.27 325.859C177.391 325.905 176.54 325.843 175.716 325.672C174.906 325.501 174.185 325.238 173.552 324.884L174.242 322.765C175.543 323.391 176.82 323.672 178.071 323.606C179.722 323.519 180.507 322.697 180.426 321.139L180.369 320.061C180.116 320.582 179.717 321.003 179.174 321.325C178.63 321.647 178.012 321.827 177.319 321.863C176.467 321.908 175.698 321.748 175.011 321.383C174.338 321.018 173.795 320.479 173.384 319.766C172.972 319.04 172.741 318.191 172.69 317.219C172.639 316.247 172.781 315.385 173.115 314.633C173.449 313.868 173.931 313.269 174.563 312.835C175.207 312.387 175.955 312.141 176.807 312.096C177.486 312.061 178.107 312.175 178.668 312.439C179.242 312.69 179.688 313.06 180.008 313.551L179.936 312.173L182.931 312.016ZM178.078 319.52C178.783 319.483 179.317 319.228 179.68 318.755C180.055 318.282 180.222 317.639 180.179 316.826C180.137 316.014 179.904 315.392 179.481 314.96C179.07 314.515 178.512 314.31 177.806 314.347C177.101 314.384 176.56 314.646 176.185 315.133C175.81 315.607 175.643 316.25 175.686 317.062C175.728 317.861 175.96 318.483 176.384 318.928C176.807 319.36 177.372 319.557 178.078 319.52ZM185.766 321.701L185.252 311.894L188.268 311.736L188.782 321.543L185.766 321.701ZM184.905 307.186L188.141 307.016L188.288 309.832L185.053 310.002L184.905 307.186ZM194.874 321.384C193.968 321.431 193.131 321.375 192.362 321.215C191.605 321.041 190.943 320.775 190.377 320.418L191.067 318.299C191.619 318.63 192.219 318.879 192.869 319.045C193.518 319.212 194.169 319.278 194.822 319.243C195.288 319.219 195.644 319.127 195.889 318.967C196.147 318.793 196.269 318.573 196.255 318.307C196.242 318.067 196.139 317.886 195.946 317.763C195.766 317.638 195.427 317.536 194.928 317.455L193.312 317.18C192.355 317.016 191.639 316.727 191.163 316.311C190.7 315.881 190.448 315.28 190.408 314.508C190.376 313.895 190.521 313.347 190.842 312.863C191.178 312.378 191.658 311.986 192.283 311.686C192.921 311.385 193.653 311.214 194.479 311.17C195.185 311.133 195.876 311.204 196.553 311.382C197.23 311.56 197.845 311.828 198.397 312.187L197.703 314.226C196.627 313.561 195.583 313.255 194.571 313.308C194.105 313.333 193.743 313.432 193.485 313.606C193.227 313.779 193.106 314.013 193.121 314.306C193.132 314.519 193.221 314.681 193.387 314.792C193.553 314.904 193.839 315.002 194.244 315.088L195.921 315.381C196.932 315.555 197.675 315.863 198.153 316.305C198.642 316.733 198.908 317.34 198.949 318.126C198.999 319.071 198.658 319.837 197.928 320.422C197.21 320.994 196.192 321.315 194.874 321.384ZM206.051 318.575C206.357 318.559 206.675 318.522 207.006 318.465L206.962 320.67C206.578 320.743 206.193 320.79 205.807 320.811C204.316 320.889 203.207 320.62 202.481 320.004C201.767 319.387 201.376 318.413 201.306 317.081L201.109 313.326L199.252 313.424L199.133 311.167L200.991 311.069L200.84 308.193L203.856 308.035L204.007 310.911L206.463 310.783L206.582 313.039L204.125 313.168L204.321 316.903C204.382 318.075 204.959 318.632 206.051 318.575ZM215.063 312.575L213.375 312.844C212.54 312.967 211.961 313.238 211.635 313.656C211.309 314.06 211.163 314.588 211.198 315.241L211.466 320.354L208.45 320.512L207.936 310.705L210.832 310.554L210.919 312.211C211.352 311.054 212.338 310.381 213.877 310.194L214.753 310.088L215.063 312.575ZM216.466 320.092L215.952 310.285L218.968 310.127L219.482 319.934L216.466 320.092ZM215.605 305.577L218.841 305.407L218.988 308.224L215.753 308.393L215.605 305.577ZM230.392 315.016L224 315.351C224.135 316.132 224.418 316.691 224.849 317.029C225.293 317.353 225.902 317.494 226.674 317.454C227.18 317.427 227.675 317.321 228.159 317.136C228.656 316.936 229.103 316.672 229.5 316.345L230.404 318.32C229.945 318.718 229.374 319.041 228.693 319.291C228.025 319.539 227.345 319.682 226.652 319.718C225.001 319.805 223.673 319.42 222.667 318.565C221.673 317.696 221.135 316.476 221.053 314.905C221.001 313.906 221.161 313.01 221.533 312.216C221.905 311.422 222.446 310.793 223.156 310.328C223.866 309.85 224.686 309.587 225.618 309.538C226.99 309.466 228.098 309.856 228.944 310.706C229.803 311.555 230.273 312.746 230.353 314.277L230.392 315.016ZM225.807 311.611C225.235 311.641 224.785 311.852 224.458 312.243C224.144 312.62 223.965 313.156 223.922 313.853L227.777 313.651C227.7 312.947 227.492 312.424 227.154 312.081C226.828 311.738 226.38 311.581 225.807 311.611ZM239.054 311.318L237.366 311.586C236.531 311.71 235.951 311.981 235.626 312.398C235.3 312.803 235.154 313.331 235.188 313.984L235.456 319.097L232.44 319.255L231.926 309.448L234.822 309.296L234.909 310.954C235.343 309.796 236.329 309.124 237.868 308.936L238.743 308.83L239.054 311.318ZM248.862 314.048L242.471 314.383C242.605 315.164 242.888 315.723 243.32 316.061C243.764 316.385 244.372 316.526 245.145 316.486C245.651 316.459 246.146 316.353 246.63 316.168C247.127 315.968 247.574 315.704 247.971 315.376L248.875 317.352C248.415 317.75 247.845 318.073 247.164 318.323C246.496 318.571 245.816 318.714 245.123 318.75C243.472 318.837 242.144 318.452 241.137 317.597C240.144 316.728 239.606 315.508 239.524 313.937C239.471 312.938 239.631 312.042 240.004 311.248C240.376 310.454 240.917 309.825 241.627 309.36C242.336 308.882 243.157 308.619 244.089 308.57C245.46 308.498 246.569 308.888 247.415 309.738C248.274 310.587 248.743 311.778 248.824 313.309L248.862 314.048ZM244.278 310.643C243.705 310.673 243.256 310.884 242.929 311.275C242.615 311.652 242.436 312.188 242.393 312.885L246.247 312.683C246.17 311.979 245.963 311.456 245.624 311.113C245.299 310.77 244.85 310.613 244.278 310.643ZM256.536 307.918C257.708 307.857 258.598 308.157 259.207 308.819C259.815 309.469 260.155 310.485 260.228 311.87L260.538 317.782L257.522 317.94L257.219 312.168C257.185 311.502 257.033 311.023 256.764 310.73C256.508 310.436 256.12 310.303 255.601 310.33C254.975 310.363 254.48 310.589 254.114 311.009C253.763 311.428 253.604 311.97 253.639 312.636L253.927 318.129L250.911 318.287L250.397 308.48L253.333 308.326L253.406 309.724C253.725 309.174 254.149 308.744 254.681 308.436C255.225 308.127 255.844 307.954 256.536 307.918ZM262.442 314.478L265.678 314.308L265.845 317.504L262.609 317.674L262.442 314.478Z" fill="white"/>
</g>
<defs>
<filter id="filter0_d_2038_20005" x="473" y="153" width="339.063" height="282.104" filterUnits="userSpaceOnUse" color-interpolation-filters="sRGB">
<feFlood flood-opacity="0" result="BackgroundImageFix"/>
<feColorMatrix in="SourceAlpha" type="matrix" values="0 0 0 0 0 0 0 0 0 0 0 0 0 0 0 0 0 0 127 0" result="hardAlpha"/>
<feOffset/>
<feGaussianBlur stdDeviation="15"/>
<feComposite in2="hardAlpha" operator="out"/>
<feColorMatrix type="matrix" values="0 0 0 0 0 0 0 0 0 0 0 0 0 0 0 0 0 0 0.4 0"/>
<feBlend mode="normal" in2="BackgroundImageFix" result="effect1_dropShadow_2038_20005"/>
<feBlend mode="normal" in="SourceGraphic" in2="effect1_dropShadow_2038_20005" result="shape"/>
</filter>
<filter id="filter1_d_2038_20005" x="234.063" y="0" width="382" height="312" filterUnits="userSpaceOnUse" color-interpolation-filters="sRGB">
<feFlood flood-opacity="0" result="BackgroundImageFix"/>
<feColorMatrix in="SourceAlpha" type="matrix" values="0 0 0 0 0 0 0 0 0 0 0 0 0 0 0 0 0 0 127 0" result="hardAlpha"/>
<feOffset/>
<feGaussianBlur stdDeviation="15"/>
<feComposite in2="hardAlpha" operator="out"/>
<feColorMatrix type="matrix" values="0 0 0 0 0 0 0 0 0 0 0 0 0 0 0 0 0 0 0.4 0"/>
<feBlend mode="normal" in2="BackgroundImageFix" result="effect1_dropShadow_2038_20005"/>
<feBlend mode="normal" in="SourceGraphic" in2="effect1_dropShadow_2038_20005" result="shape"/>
</filter>
<filter id="filter2_d_2038_20005" x="0" y="99.0001" width="331.367" height="297.3" filterUnits="userSpaceOnUse" color-interpolation-filters="sRGB">
<feFlood flood-opacity="0" result="BackgroundImageFix"/>
<feColorMatrix in="SourceAlpha" type="matrix" values="0 0 0 0 0 0 0 0 0 0 0 0 0 0 0 0 0 0 127 0" result="hardAlpha"/>
<feOffset/>
<feGaussianBlur stdDeviation="15"/>
<feComposite in2="hardAlpha" operator="out"/>
<feColorMatrix type="matrix" values="0 0 0 0 0 0 0 0 0 0 0 0 0 0 0 0 0 0 0.4 0"/>
<feBlend mode="normal" in2="BackgroundImageFix" result="effect1_dropShadow_2038_20005"/>
<feBlend mode="normal" in="SourceGraphic" in2="effect1_dropShadow_2038_20005" result="shape"/>
</filter>
<linearGradient id="paint0_linear_2038_20005" x1="465.063" y1="252" x2="521.053" y2="318.064" gradientUnits="userSpaceOnUse">
<stop stop-color="#28EBCF" stop-opacity="0"/>
<stop offset="1" stop-color="#28EBCF"/>
</linearGradient>
<linearGradient id="paint1_linear_2038_20005" x1="223.063" y1="133" x2="278.327" y2="83.5309" gradientUnits="userSpaceOnUse">
<stop stop-color="#28EBCF" stop-opacity="0"/>
<stop offset="1" stop-color="#28EBCF"/>
</linearGradient>
<clipPath id="clip0_2038_20005">
<rect width="40" height="36" fill="white" transform="translate(628.704 234.279) rotate(6)"/>
</clipPath>
<clipPath id="clip1_2038_20005">
<rect width="40" height="36" fill="white" transform="translate(141.942 176.796) rotate(-3)"/>
</clipPath>
</defs>
</svg>
