<svg id="Ebene_1" data-name="Ebene 1" xmlns="http://www.w3.org/2000/svg" xmlns:xlink="http://www.w3.org/1999/xlink" viewBox="0 0 134.66 72.02"><defs><style>.cls-1,.cls-3,.cls-4{fill:#fff;}.cls-1,.cls-4{fill-rule:evenodd;}.cls-2{fill:#b5b5b5;}.cls-4{fill-opacity:0.1;}.cls-5{mask:url(#mask);}.cls-6{fill:#ffc45f;}</style><mask id="mask" x="0" y="0" width="134.66" height="22.05" maskUnits="userSpaceOnUse"><g id="mask-2"><path id="path-1" class="cls-1" d="M11.76,0l3.18,7.38,8,.75-6,5.3,1.76,7.84-6.91-4.1-6.91,4.1,1.76-7.84-6-5.3,8-.75ZM39.69,0l3.18,7.38,8,.75-6,5.3,1.76,7.84-6.91-4.1-6.91,4.1,1.76-7.84-6-5.3,8-.75ZM67.62,0,70.8,7.38l8,.75-6,5.3,1.76,7.84-6.91-4.1-6.91,4.1,1.76-7.84-6-5.3,8-.75ZM95.55,0l3.18,7.38,8,.75-6,5.3,1.76,7.84-6.91-4.1-6.91,4.1,1.76-7.84-6-5.3,8-.75Zm27.93,0,3.18,7.38,8,.75-6,5.3,1.76,7.84-6.91-4.1-6.91,4.1,1.76-7.84-6-5.3,8-.75Z"/></g></mask></defs><path class="cls-2" d="M125.13,32H7.52a13.51,13.51,0,0,0-2,.18,6.42,6.42,0,0,0-1.9.62A6.54,6.54,0,0,0,2,34,6.24,6.24,0,0,0,.82,35.64a6.8,6.8,0,0,0-.63,1.91,12.18,12.18,0,0,0-.17,2c0,.31,0,.61,0,.92V63.58c0,.31,0,.61,0,.93a12.18,12.18,0,0,0,.17,2,6.64,6.64,0,0,0,.63,1.9A6.07,6.07,0,0,0,2,70,6.26,6.26,0,0,0,3.62,71.2a6.76,6.76,0,0,0,1.9.64,15,15,0,0,0,2,.17H127.14a14.85,14.85,0,0,0,2-.17,6.94,6.94,0,0,0,1.91-.64A6.44,6.44,0,0,0,132.67,70a6.54,6.54,0,0,0,1.18-1.62,6.94,6.94,0,0,0,.62-1.9,13.39,13.39,0,0,0,.18-2c0-.32,0-.62,0-.93V40.47c0-.31,0-.61,0-.92a13.39,13.39,0,0,0-.18-2,7.12,7.12,0,0,0-.62-1.91,6.46,6.46,0,0,0-2.8-2.8,6.57,6.57,0,0,0-1.91-.62,13.39,13.39,0,0,0-2-.18h-2Z"/><path d="M8.44,71.15h-.9A14.31,14.31,0,0,1,5.67,71,5.89,5.89,0,0,1,4,70.43a5.42,5.42,0,0,1-1.39-1A5,5,0,0,1,1.6,68a5.89,5.89,0,0,1-.55-1.66,12.22,12.22,0,0,1-.16-1.88c0-.21,0-.91,0-.91V40.47s0-.69,0-.9a12.1,12.1,0,0,1,.16-1.87A5.89,5.89,0,0,1,1.6,36a5.38,5.38,0,0,1,1-1.4,6.05,6.05,0,0,1,1.4-1,5.77,5.77,0,0,1,1.66-.54,13.63,13.63,0,0,1,1.87-.17H127.13a13.63,13.63,0,0,1,1.86.17,5.94,5.94,0,0,1,1.67.54,5.79,5.79,0,0,1,1.39,1,5.48,5.48,0,0,1,1,1.4,6,6,0,0,1,.54,1.65,13.68,13.68,0,0,1,.17,1.89v.89c0,.37,0,.73,0,1.09V62.49c0,.36,0,.72,0,1.07v.93a13.4,13.4,0,0,1-.17,1.86,6.06,6.06,0,0,1-.54,1.67,5.21,5.21,0,0,1-1,1.38,5.45,5.45,0,0,1-1.4,1A6.23,6.23,0,0,1,129,71a14.31,14.31,0,0,1-1.87.16H8.44Z"/><path class="cls-3" d="M27.62,52.33A4.94,4.94,0,0,1,30,48.17,5.06,5.06,0,0,0,26,46c-1.68-.18-3.3,1-4.16,1s-2.19-1-3.61-1a5.33,5.33,0,0,0-4.47,2.73c-1.93,3.35-.49,8.27,1.36,11,.93,1.32,2,2.8,3.43,2.75s1.9-.88,3.58-.88,2.14.88,3.59.85,2.43-1.33,3.32-2.67a11.07,11.07,0,0,0,1.52-3.1A4.77,4.77,0,0,1,27.62,52.33Z"/><path class="cls-3" d="M24.89,44.24A4.92,4.92,0,0,0,26,40.75a4.93,4.93,0,0,0-3.21,1.65,4.69,4.69,0,0,0-1.14,3.37A4.14,4.14,0,0,0,24.89,44.24Z"/><path class="cls-3" d="M48.15,59.16H43.42l-1.14,3.36h-2L44.76,50.1h2.08l4.49,12.42h-2Zm-4.24-1.54h3.75l-1.85-5.45h-.05Z"/><path class="cls-3" d="M61,58c0,2.82-1.51,4.63-3.78,4.63A3.08,3.08,0,0,1,54.38,61h0v4.49H52.48v-12h1.8V55h0a3.22,3.22,0,0,1,2.89-1.6C59.49,53.37,61,55.19,61,58ZM59.1,58c0-1.83-1-3-2.39-3s-2.38,1.23-2.38,3,1,3,2.38,3S59.1,59.84,59.1,58Z"/><path class="cls-3" d="M71,58c0,2.82-1.5,4.63-3.77,4.63A3.07,3.07,0,0,1,64.35,61h0v4.49H62.45v-12h1.79V55h0a3.22,3.22,0,0,1,2.88-1.6C69.46,53.37,71,55.19,71,58Zm-1.91,0c0-1.83-.94-3-2.39-3s-2.37,1.23-2.37,3,1,3,2.37,3S69.06,59.84,69.06,58Z"/><path class="cls-3" d="M77.56,59.06c.14,1.23,1.33,2,3,2s2.69-.81,2.69-1.92-.68-1.54-2.29-1.93l-1.61-.39C77,56.31,76,55.24,76,53.51c0-2.14,1.86-3.61,4.51-3.61s4.43,1.47,4.49,3.61H83.11c-.11-1.24-1.14-2-2.63-2S78,52.28,78,53.38c0,.88.65,1.4,2.25,1.79l1.37.34c2.55.6,3.61,1.62,3.61,3.44,0,2.32-1.86,3.78-4.8,3.78-2.75,0-4.61-1.42-4.73-3.67Z"/><path class="cls-3" d="M89.2,51.32v2.15h1.72v1.47H89.2v5c0,.78.34,1.14,1.1,1.14a4.84,4.84,0,0,0,.61,0v1.47a5.35,5.35,0,0,1-1,.08c-1.84,0-2.55-.69-2.55-2.44V54.94H86V53.47h1.32V51.32Z"/><path class="cls-3" d="M91.91,58c0-2.84,1.68-4.63,4.3-4.63s4.29,1.79,4.29,4.63-1.66,4.64-4.29,4.64S91.91,60.85,91.91,58Zm6.7,0c0-2-.9-3.1-2.4-3.1s-2.4,1.16-2.4,3.1.89,3.11,2.4,3.11S98.61,60,98.61,58Z"/><path class="cls-3" d="M102,53.47h1.77V55h0A2.16,2.16,0,0,1,106,53.37a3.17,3.17,0,0,1,.64.07v1.74a2.69,2.69,0,0,0-.84-.11,1.87,1.87,0,0,0-1.94,2.08v5.37H102Z"/><path class="cls-3" d="M115.23,59.86c-.25,1.65-1.85,2.77-3.89,2.77-2.64,0-4.27-1.76-4.27-4.59s1.64-4.68,4.19-4.68,4.08,1.72,4.08,4.46v.64h-6.4v.11a2.37,2.37,0,0,0,2.44,2.57,2,2,0,0,0,2.09-1.28ZM109,57.16h4.53a2.18,2.18,0,0,0-2.22-2.3A2.3,2.3,0,0,0,109,57.16Z"/><path class="cls-3" d="M45.24,46.72H41.52v-6h.93v5.11h2.79Z"/><path class="cls-3" d="M46.18,45.45c0-.81.6-1.28,1.67-1.34L49.07,44v-.38c0-.48-.31-.75-.92-.75s-.84.18-.94.5h-.86c.09-.77.82-1.27,1.84-1.27S50,42.69,50,43.65v3.07H49.1v-.63H49a1.52,1.52,0,0,1-1.35.71A1.36,1.36,0,0,1,46.18,45.45Zm2.89-.39v-.37l-1.1.07c-.62,0-.9.25-.9.65s.35.64.84.64A1.06,1.06,0,0,0,49.07,45.06Z"/><path class="cls-3" d="M51.13,44.47c0-1.42.73-2.32,1.87-2.32a1.49,1.49,0,0,1,1.38.79h.06V40.46h.89v6.26h-.85V46h-.07A1.57,1.57,0,0,1,53,46.8C51.85,46.8,51.13,45.9,51.13,44.47Zm.91,0c0,1,.45,1.53,1.21,1.53s1.21-.58,1.21-1.53-.47-1.53-1.21-1.53S52,43.52,52,44.47Z"/><path class="cls-3" d="M60.6,45.51a1.84,1.84,0,0,1-2,1.3,2,2,0,0,1-2.08-2.32,2.08,2.08,0,0,1,2.07-2.36c1.25,0,2,.86,2,2.27v.31H57.47v0a1.19,1.19,0,0,0,1.2,1.29,1.07,1.07,0,0,0,1.07-.54Zm-3.13-1.45h2.28a1.09,1.09,0,0,0-1.11-1.17A1.15,1.15,0,0,0,57.47,44.06Z"/><path class="cls-3" d="M61.84,42.22h.86v.72h.07a1.33,1.33,0,0,1,1.34-.81,1.47,1.47,0,0,1,1.56,1.68v2.91h-.89V44c0-.72-.31-1.08-1-1.08a1,1,0,0,0-1.08,1.14v2.63h-.89Z"/><path class="cls-3" d="M69.37,40.89a.55.55,0,0,1,.57-.55.55.55,0,1,1,0,1.09A.55.55,0,0,1,69.37,40.89Zm.13,1.33h.89v4.5H69.5Z"/><path class="cls-3" d="M71.82,42.22h.86v.72h.06a1.37,1.37,0,0,1,2.5,0h.07a1.45,1.45,0,0,1,1.37-.81,1.34,1.34,0,0,1,1.43,1.49v3.1h-.88V43.85a.79.79,0,0,0-.88-.9.91.91,0,0,0-.95.94v2.83h-.87V43.77a.79.79,0,0,0-.87-.82,1,1,0,0,0-1,1v2.75h-.89Z"/><path id="path-1-2" data-name="path-1" class="cls-4" d="M11.76,0l3.18,7.38,8,.75-6,5.3,1.76,7.84-6.91-4.1-6.91,4.1,1.76-7.84-6-5.3,8-.75ZM39.69,0l3.18,7.38,8,.75-6,5.3,1.76,7.84-6.91-4.1-6.91,4.1,1.76-7.84-6-5.3,8-.75ZM67.62,0,70.8,7.38l8,.75-6,5.3,1.76,7.84-6.91-4.1-6.91,4.1,1.76-7.84-6-5.3,8-.75ZM95.55,0l3.18,7.38,8,.75-6,5.3,1.76,7.84-6.91-4.1-6.91,4.1,1.76-7.84-6-5.3,8-.75Zm27.93,0,3.18,7.38,8,.75-6,5.3,1.76,7.84-6.91-4.1-6.91,4.1,1.76-7.84-6-5.3,8-.75Z"/><g class="cls-5"><rect id="color" class="cls-6" width="122.66" height="22.05"/></g></svg>