<svg width="420" height="320" viewBox="0 0 420 320" fill="none" xmlns="http://www.w3.org/2000/svg">
<g clip-path="url(#clip0_1339_3207)">
<g clip-path="url(#clip1_1339_3207)">
<path d="M335.242 69.5078C334.79 64.8139 337.941 60.4976 344.687 56.5751C351.432 52.6526 358.867 50.8144 366.983 51.0606C375.106 51.3068 383.173 53.744 391.207 58.3804C399.314 63.0578 403.598 67.7517 404.041 72.4537C404.492 77.1558 401.341 81.4639 394.596 85.3946C387.85 89.3253 380.391 91.1388 372.243 90.8762C364.086 90.6136 355.954 88.1354 347.846 83.458C339.739 78.7806 335.693 74.2262 335.242 69.516V69.5078ZM363.889 63.2548C361.115 62.6311 358.883 62.8116 357.201 63.7964C355.519 64.7811 355.1 66.1105 356.183 67.6696C357.267 69.2288 360.057 71.3049 364.529 73.8898C369.083 76.5239 372.71 78.1487 375.41 78.7724C378.11 79.396 380.334 79.1991 382.098 78.1733C383.862 77.1476 384.207 75.8592 383.124 74.2919C382.032 72.7327 379.218 70.6402 374.663 68.0061C370.109 65.3719 366.679 63.8866 363.905 63.263" fill="#101112" fill-opacity="0.2"/>
<path d="M309.261 88.234C309.712 92.9361 306.561 97.2442 299.816 101.167C293.062 105.089 285.611 106.911 277.455 106.648C269.298 106.386 261.166 103.907 253.058 99.2301C244.951 94.5526 240.905 89.9983 240.454 85.288C240.011 80.586 243.153 76.2778 249.907 72.3553C256.661 68.4329 264.087 66.5947 272.203 66.8409C280.327 67.0871 288.393 69.5243 296.427 74.1607C304.534 78.8381 308.81 83.5319 309.261 88.234ZM280.614 94.5526C283.314 95.1763 285.546 94.9793 287.31 93.9536C289.074 92.9278 289.411 91.6395 288.319 90.0721C287.236 88.513 284.422 86.4205 279.859 83.7863C275.296 81.1522 271.891 79.6751 269.158 79.0761C266.426 78.477 264.218 78.6658 262.528 79.6423C260.837 80.6188 260.419 81.9564 261.502 83.5237C262.594 85.0829 265.326 87.1344 269.733 89.67C274.139 92.2057 277.922 93.929 280.606 94.5526" fill="#101112" fill-opacity="0.2"/>
<path d="M315.629 40.3354L350.086 114.6L329.563 117.677L295.106 43.4045L315.629 40.3354Z" fill="#101112" fill-opacity="0.2"/>
<path d="M313.323 140.753C339.041 155.606 339.18 179.682 313.627 194.527C288.073 209.38 246.502 209.38 220.784 194.527L174.215 167.636C148.497 152.783 148.358 128.706 173.911 113.862C192.022 103.333 218.191 100.272 241.045 104.671L228.194 127.221C219.619 125.572 209.813 126.72 203.018 130.667C193.433 136.239 193.483 145.266 203.133 150.83L206.514 152.783C209.681 148.409 214.342 144.314 220.48 140.744C246.034 125.892 287.606 125.892 313.323 140.744V140.753ZM249.702 177.721C259.344 183.293 274.927 183.293 284.512 177.721C294.097 172.149 294.047 163.122 284.397 157.559C274.747 151.995 259.164 151.987 249.579 157.559C239.994 163.13 240.052 172.157 249.694 177.729" fill="#101112" fill-opacity="0.2"/>
<path d="M261.576 224.782C269.512 229.361 274.657 234.949 277.028 240.825L261.051 242.967C259.361 238.765 255.676 234.777 250.014 231.503L234.972 240.242C233.692 240.989 231.616 240.989 230.328 240.242L205.882 226.128C204.594 225.381 204.586 224.183 205.866 223.436L230.155 209.322C231.427 208.583 233.512 208.583 234.8 209.322L261.576 224.782Z" fill="#101112" fill-opacity="0.2"/>
<path d="M221.088 248.309L128.548 302.083L93.6154 281.913C71.1063 268.914 70.9914 247.849 93.3529 234.859L99.1381 231.495C108.723 225.923 108.674 216.896 99.0314 211.324C89.3894 205.752 73.7979 205.761 64.2133 211.324C54.6286 216.896 54.6779 225.923 64.3282 231.487L35.4101 248.292C9.69246 233.44 9.55296 209.363 35.1065 194.518C60.6601 179.674 102.232 179.666 127.949 194.518C153.667 209.371 153.807 233.448 128.253 248.292L122.468 251.657C116.084 255.366 116.116 261.389 122.542 265.098L128.36 268.463L191.981 231.495L221.088 248.301V248.309Z" fill="#101112" fill-opacity="0.2"/>
<g filter="url(#filter0_b_1339_3207)">
<path d="M383.108 70.9439C382.016 69.3847 379.202 67.2922 374.647 64.6581C370.249 62.1142 366.663 60.5386 363.889 59.915C361.116 59.2913 358.883 59.4719 357.201 60.4566C356.11 61.0884 355.568 61.827 355.56 62.6558V66.0039C355.56 65.1668 356.102 64.4365 357.185 63.8046C358.875 62.8281 361.099 62.6476 363.873 63.263C366.646 63.8867 370.232 65.4705 374.631 68.0061C379.185 70.6403 382.008 72.7328 383.091 74.2919C383.502 74.891 383.715 75.4408 383.707 75.9578V72.6097C383.715 72.0927 383.51 71.5347 383.099 70.9439H383.108Z" fill="url(#paint0_linear_1339_3207)" fill-opacity="0.2"/>
<path d="M394.588 82.0466C387.842 85.9691 380.383 87.7908 372.234 87.5282C364.078 87.2657 355.945 84.7874 347.838 80.11C339.886 75.5228 335.685 70.8782 335.233 66.168V69.516C335.677 74.2181 339.878 78.8627 347.821 83.4581C355.929 88.1355 364.053 90.6137 372.218 90.8763C380.375 91.1471 387.826 89.3172 394.571 85.3947C400.89 81.7266 404.049 77.7138 404.057 73.3564V70.0084C404.057 74.3658 400.898 78.3703 394.579 82.0466H394.588Z" fill="url(#paint1_linear_1339_3207)" fill-opacity="0.2"/>
<path d="M288.319 86.7242C287.236 85.165 284.422 83.0725 279.859 80.4384C275.461 77.8945 271.891 76.3272 269.158 75.7281C266.426 75.1291 264.218 75.3178 262.528 76.2943C261.437 76.9262 260.887 77.6647 260.887 78.5018V81.8498C260.887 81.0128 261.428 80.2743 262.52 79.6424C264.21 78.6659 266.418 78.4689 269.15 79.0762C271.883 79.6752 275.452 81.2508 279.851 83.7864C284.405 86.4206 287.228 88.5131 288.311 90.0722C288.73 90.6713 288.935 91.2293 288.935 91.7463V88.3982C288.943 87.8812 288.738 87.3232 288.319 86.7242Z" fill="url(#paint2_linear_1339_3207)" fill-opacity="0.2"/>
<path d="M299.816 97.8188C293.062 101.741 285.611 103.563 277.455 103.3C269.298 103.038 261.166 100.56 253.058 95.8821C245.106 91.295 240.905 86.6504 240.454 81.9401C240.429 81.6447 240.413 81.3411 240.413 81.0457V84.3937C240.404 84.6891 240.413 84.9845 240.445 85.2882C240.897 89.9902 245.098 94.6348 253.05 99.2302C261.157 103.908 269.281 106.386 277.446 106.648C285.603 106.911 293.054 105.089 299.808 101.167C306.118 97.4987 309.278 93.4942 309.294 89.145V85.7969C309.294 90.1461 306.126 94.1589 299.816 97.8188Z" fill="url(#paint3_linear_1339_3207)" fill-opacity="0.2"/>
<path d="M295.106 40.0647L295.098 43.4045L329.555 117.677L329.563 114.337L295.106 40.0647Z" fill="url(#paint4_linear_1339_3207)" fill-opacity="0.2"/>
<path d="M329.563 114.337L329.555 117.677L350.078 114.6L350.087 111.26L329.563 114.337Z" fill="url(#paint5_linear_1339_3207)" fill-opacity="0.2"/>
<path d="M228.194 123.881L228.186 127.229L241.037 104.679L241.045 101.331L228.194 123.881Z" fill="url(#paint6_linear_1339_3207)" fill-opacity="0.2"/>
<path d="M203.018 127.328C198.258 130.093 195.871 133.712 195.862 137.339V140.687C195.862 137.06 198.25 133.441 203.01 130.676C209.804 126.729 219.611 125.58 228.186 127.229V123.881C219.619 122.232 209.813 123.38 203.026 127.328H203.018Z" fill="url(#paint7_linear_1339_3207)" fill-opacity="0.2"/>
<path d="M284.406 154.219C274.763 148.647 259.172 148.647 249.587 154.219C244.828 156.984 242.448 160.603 242.44 164.23V167.578C242.44 163.951 244.82 160.332 249.579 157.567C259.164 151.995 274.747 152.003 284.397 157.567C289.247 160.373 291.676 164.05 291.668 167.718V164.37C291.684 160.693 289.264 157.017 284.414 154.219H284.406Z" fill="url(#paint8_linear_1339_3207)" fill-opacity="0.2"/>
<path d="M313.627 191.187C288.073 206.04 246.502 206.04 220.784 191.187L174.215 164.296C161.274 156.82 154.808 147.014 154.841 137.216V140.564C154.799 150.362 161.266 160.168 174.207 167.644L220.776 194.535C246.494 209.388 288.065 209.388 313.619 194.535C326.314 187.158 332.665 177.499 332.698 167.832V164.484C332.681 174.151 326.322 183.81 313.635 191.187H313.627Z" fill="url(#paint9_linear_1339_3207)" fill-opacity="0.2"/>
<path fill-rule="evenodd" clip-rule="evenodd" d="M204.897 221.426V224.774C204.889 225.266 205.217 225.751 205.874 226.128V222.78C205.225 222.411 204.897 221.918 204.897 221.426ZM230.328 236.894C231.616 237.641 233.692 237.641 234.972 236.894H234.98L250.006 228.155V231.503L234.964 240.242C233.684 240.989 231.608 240.989 230.319 240.242L205.882 226.128V222.78L230.328 236.894Z" fill="url(#paint10_linear_1339_3207)" fill-opacity="0.2"/>
<path d="M261.043 239.619L261.035 242.967L277.012 240.825L277.028 237.477L261.043 239.619Z" fill="url(#paint11_linear_1339_3207)" fill-opacity="0.2"/>
<path d="M250.006 228.163V231.511C255.66 234.777 259.344 238.773 261.035 242.975V239.627C259.352 235.425 255.668 231.437 250.006 228.163Z" fill="url(#paint12_linear_1339_3207)" fill-opacity="0.2"/>
<path d="M99.0314 207.993C89.3893 202.421 73.7979 202.429 64.2133 207.993C59.4538 210.758 57.0658 214.377 57.0576 218.004V221.352C57.0576 217.725 59.4374 214.106 64.2051 211.341C73.7897 205.769 89.3729 205.769 99.0232 211.341C103.873 214.139 106.302 217.824 106.286 221.492V218.144C106.302 214.475 103.881 210.791 99.0314 207.993Z" fill="url(#paint13_linear_1339_3207)" fill-opacity="0.2"/>
<path d="M35.4101 244.969L35.4019 248.309L64.3199 231.503L64.3281 228.163L35.4101 244.969Z" fill="url(#paint14_linear_1339_3207)" fill-opacity="0.2"/>
<path d="M16.0275 217.889V221.237C15.9865 231.035 22.4529 240.841 35.3937 248.317V244.969C22.4611 237.493 16.0029 227.687 16.0275 217.889Z" fill="url(#paint15_linear_1339_3207)" fill-opacity="0.2"/>
<path d="M128.245 244.969L122.46 248.333C119.284 250.18 117.7 252.592 117.692 255.005V258.353C117.692 255.932 119.276 253.52 122.451 251.682L128.237 248.317C140.931 240.94 147.283 231.281 147.316 221.615V218.267C147.299 227.933 140.94 237.592 128.253 244.969H128.245Z" fill="url(#paint16_linear_1339_3207)" fill-opacity="0.2"/>
<path d="M93.6237 278.573C82.2994 272.032 76.6454 263.449 76.6701 254.882V258.23C76.6372 266.797 82.2912 275.38 93.6155 281.921L128.549 302.091V298.743L93.6319 278.573H93.6237Z" fill="url(#paint17_linear_1339_3207)" fill-opacity="0.2"/>
<path d="M128.549 298.743L128.541 302.091L221.08 248.309L221.088 244.969L128.549 298.743Z" fill="url(#paint18_linear_1339_3207)" fill-opacity="0.2"/>
</g>
<g filter="url(#filter1_b_1339_3207)">
<path d="M335.242 66.1679C334.79 61.4741 337.941 57.1577 344.687 53.2352C351.432 49.3127 358.867 47.4746 366.983 47.7208C375.106 47.967 383.173 50.4042 391.207 55.0406C399.314 59.718 403.598 64.4118 404.041 69.1139C404.492 73.8159 401.341 78.1241 394.596 82.0548C387.85 85.9855 380.391 87.799 372.243 87.5364C364.086 87.2738 355.954 84.7956 347.846 80.1182C339.739 75.4407 335.693 70.8864 335.242 66.1761V66.1679ZM363.889 59.9149C361.115 59.2913 358.883 59.4718 357.201 60.4565C355.519 61.4412 355.1 62.7706 356.183 64.3298C357.267 65.8889 360.057 67.965 364.529 70.5499C369.083 73.1841 372.71 74.8089 375.41 75.4325C378.11 76.0562 380.334 75.8592 382.098 74.8335C383.862 73.8077 384.207 72.5194 383.124 70.952C382.032 69.3929 379.218 67.3003 374.663 64.6662C370.109 62.0321 366.679 60.5468 363.905 59.9231" fill="url(#paint19_linear_1339_3207)" fill-opacity="0.2"/>
<path d="M309.261 84.8859C309.712 89.5879 306.561 93.8961 299.816 97.8185C293.062 101.741 285.611 103.563 277.455 103.3C269.298 103.038 261.166 100.559 253.058 95.8819C244.951 91.2045 240.905 86.6502 240.454 81.9399C240.011 77.2378 243.153 72.9297 249.907 69.0072C256.661 65.0847 264.087 63.2466 272.203 63.4928C280.327 63.7389 288.393 66.1761 296.427 70.8125C304.534 75.49 308.81 80.1838 309.261 84.8859ZM280.614 91.2045C283.314 91.8281 285.546 91.6312 287.31 90.6054C289.074 89.5797 289.411 88.2914 288.319 86.724C287.236 85.1649 284.422 83.0723 279.859 80.4382C275.296 77.8041 271.891 76.327 269.158 75.7279C266.426 75.1289 264.218 75.3176 262.528 76.2942C260.837 77.2707 260.419 78.6082 261.502 80.1756C262.594 81.7347 265.326 83.7862 269.733 86.3219C274.139 88.8576 277.922 90.5808 280.606 91.2045" fill="url(#paint20_linear_1339_3207)" fill-opacity="0.2"/>
<path d="M315.629 36.9873L350.086 111.26L329.563 114.337L295.106 40.0646L315.629 36.9873Z" fill="url(#paint21_linear_1339_3207)" fill-opacity="0.2"/>
<path d="M313.323 137.413C339.041 152.265 339.18 176.342 313.627 191.187C288.073 206.04 246.502 206.04 220.784 191.187L174.215 164.296C148.497 149.443 148.358 125.366 173.911 110.521C192.022 99.9931 218.191 96.9323 241.045 101.331L228.194 123.881C219.619 122.231 209.813 123.38 203.018 127.327C193.433 132.899 193.483 141.926 203.133 147.49L206.514 149.443C209.681 145.069 214.342 140.974 220.48 137.404C246.034 122.551 287.606 122.551 313.323 137.404V137.413ZM249.702 174.381C259.344 179.953 274.927 179.953 284.512 174.381C294.097 168.809 294.047 159.782 284.397 154.219C274.747 148.655 259.164 148.647 249.579 154.219C239.994 159.79 240.052 168.817 249.694 174.389" fill="url(#paint22_linear_1339_3207)" fill-opacity="0.2"/>
<path d="M261.576 221.434C269.512 226.013 274.657 231.601 277.028 237.477L261.051 239.619C259.361 235.417 255.676 231.429 250.014 228.155L234.972 236.894C233.692 237.641 231.616 237.641 230.328 236.894L205.882 222.78C204.594 222.033 204.586 220.835 205.866 220.088L230.155 205.974C231.427 205.235 233.512 205.235 234.8 205.974L261.576 221.434Z" fill="url(#paint23_linear_1339_3207)" fill-opacity="0.2"/>
<path d="M221.088 244.969L128.548 298.743L93.6154 278.572C71.1063 265.574 70.9914 244.509 93.3529 231.519L99.1381 228.155C108.723 222.583 108.674 213.556 99.0314 207.984C89.3894 202.412 73.7979 202.421 64.2133 207.984C54.6286 213.556 54.6779 222.583 64.3282 228.146L35.4101 244.952C9.69246 230.1 9.55296 206.023 35.1065 191.178C60.6601 176.334 102.232 176.325 127.949 191.178C153.667 206.031 153.807 230.108 128.253 244.952L122.468 248.317C116.084 252.026 116.116 258.049 122.542 261.758L128.36 265.123L191.981 228.155L221.088 244.961V244.969Z" fill="url(#paint24_linear_1339_3207)" fill-opacity="0.2"/>
</g>
</g>
<g clip-path="url(#clip2_1339_3207)">
<path d="M335.242 62.8452C334.79 58.1513 337.941 53.835 344.687 49.9125C351.432 45.99 358.867 44.1518 366.983 44.398C375.106 44.6442 383.173 47.0814 391.207 51.7178C399.314 56.3952 403.598 61.0891 404.041 65.7911C404.492 70.4932 401.341 74.8013 394.596 78.732C387.85 82.6627 380.391 84.4762 372.243 84.2136C364.086 83.951 355.954 81.4728 347.846 76.7954C339.739 72.118 335.693 67.5636 335.242 62.8534V62.8452ZM363.889 56.5922C361.115 55.9685 358.883 56.149 357.201 57.1338C355.519 58.1185 355.1 59.4479 356.183 61.007C357.267 62.5662 360.057 64.6423 364.529 67.2272C369.083 69.8613 372.71 71.4861 375.41 72.1098C378.11 72.7334 380.334 72.5365 382.098 71.5107C383.862 70.485 384.207 69.1966 383.124 67.6293C382.032 66.0701 379.218 63.9776 374.663 61.3435C370.109 58.7093 366.679 57.224 363.905 56.6004" fill="#101112" fill-opacity="0.4"/>
<path d="M309.261 81.5714C309.712 86.2735 306.561 90.5816 299.816 94.5041C293.062 98.4266 285.611 100.248 277.455 99.9857C269.298 99.7231 261.166 97.2449 253.058 92.5675C244.951 87.89 240.905 83.3357 240.454 78.6254C240.011 73.9234 243.153 69.6152 249.907 65.6927C256.661 61.7703 264.087 59.9321 272.203 60.1783C280.327 60.4245 288.393 62.8617 296.427 67.4981C304.534 72.1755 308.81 76.8694 309.261 81.5714ZM280.614 87.89C283.314 88.5137 285.546 88.3167 287.31 87.291C289.074 86.2652 289.411 84.9769 288.319 83.4096C287.236 81.8504 284.422 79.7579 279.859 77.1237C275.296 74.4896 271.891 73.0125 269.158 72.4135C266.426 71.8144 264.218 72.0032 262.528 72.9797C260.837 73.9562 260.419 75.2938 261.502 76.8611C262.594 78.4203 265.326 80.4718 269.733 83.0075C274.139 85.5431 277.922 87.2664 280.606 87.89" fill="#101112" fill-opacity="0.4"/>
<path d="M315.629 33.6729L350.086 107.937L329.563 111.015L295.106 36.7419L315.629 33.6729Z" fill="#101112" fill-opacity="0.4"/>
<path d="M313.323 134.09C339.041 148.943 339.18 173.019 313.627 187.864C288.073 202.717 246.502 202.717 220.784 187.864L174.215 160.973C148.497 146.12 148.358 122.043 173.911 107.199C192.022 96.6704 218.191 93.6095 241.045 98.008L228.194 120.558C219.619 118.909 209.813 120.058 203.018 124.005C193.433 129.577 193.483 138.603 203.133 144.167L206.514 146.12C209.681 141.746 214.342 137.651 220.48 134.082C246.034 119.229 287.606 119.229 313.323 134.082V134.09ZM249.702 171.058C259.344 176.63 274.927 176.63 284.512 171.058C294.097 165.486 294.047 156.459 284.397 150.896C274.747 145.332 259.164 145.324 249.579 150.896C239.994 156.468 240.052 165.494 249.694 171.066" fill="#101112" fill-opacity="0.4"/>
<path d="M261.576 218.12C269.512 222.698 274.657 228.287 277.028 234.162L261.051 236.304C259.361 232.103 255.676 228.114 250.014 224.84L234.972 233.58C233.692 234.326 231.616 234.326 230.328 233.58L205.882 219.465C204.594 218.719 204.586 217.52 205.866 216.774L230.155 202.659C231.427 201.921 233.512 201.921 234.8 202.659L261.576 218.12Z" fill="#101112" fill-opacity="0.4"/>
<path d="M221.088 241.646L128.548 295.42L93.6154 275.25C71.1063 262.252 70.9914 241.187 93.3529 228.197L99.1381 224.832C108.723 219.26 108.674 210.234 99.0314 204.662C89.3894 199.09 73.7979 199.098 64.2133 204.662C54.6286 210.234 54.6779 219.26 64.3282 224.824L35.4101 241.63C9.69246 226.777 9.55296 202.701 35.1065 187.856C60.6601 173.011 102.232 173.003 127.949 187.856C153.667 202.709 153.807 226.785 128.253 241.63L122.468 244.994C116.084 248.703 116.116 254.727 122.542 258.436L128.36 261.8L191.981 224.832L221.088 241.638V241.646Z" fill="#101112" fill-opacity="0.4"/>
<g filter="url(#filter2_b_1339_3207)">
<path d="M383.108 64.2813C382.016 62.7221 379.202 60.6296 374.647 57.9955C370.249 55.4516 366.663 53.876 363.889 53.2524C361.116 52.6287 358.883 52.8093 357.201 53.794C356.11 54.4258 355.568 55.1644 355.56 55.9932V59.3413C355.56 58.5042 356.102 57.7739 357.185 57.142C358.875 56.1655 361.099 55.985 363.873 56.6004C366.646 57.2241 370.232 58.8079 374.631 61.3435C379.185 63.9777 382.008 66.0702 383.091 67.6293C383.502 68.2284 383.715 68.7782 383.707 69.2952V65.9471C383.715 65.4301 383.51 64.8721 383.099 64.2813H383.108Z" fill="url(#paint25_linear_1339_3207)" fill-opacity="0.4"/>
<path d="M394.588 75.384C387.842 79.3065 380.383 81.1282 372.234 80.8656C364.078 80.6031 355.945 78.1248 347.838 73.4474C339.886 68.8602 335.685 64.2156 335.233 59.5054V62.8534C335.677 67.5555 339.878 72.2001 347.821 76.7955C355.929 81.4729 364.053 83.9511 372.218 84.2137C380.375 84.4845 387.826 82.6546 394.571 78.7321C400.89 75.064 404.049 71.0512 404.057 66.6938V63.3458C404.057 67.7032 400.898 71.7077 394.579 75.384H394.588Z" fill="url(#paint26_linear_1339_3207)" fill-opacity="0.4"/>
<path d="M288.32 80.0613C287.237 78.5022 284.422 76.4097 279.86 73.7755C275.461 71.2317 271.891 69.6643 269.159 69.0653C266.426 68.4662 264.219 68.655 262.528 69.6315C261.437 70.2634 260.887 71.0019 260.887 71.8389V75.187C260.887 74.35 261.429 73.6114 262.52 72.9795C264.211 72.003 266.418 71.8061 269.151 72.4133C271.883 73.0124 275.453 74.5879 279.851 77.1236C284.406 79.7577 287.229 81.8503 288.312 83.4094C288.73 84.0084 288.935 84.5665 288.935 85.0834V81.7354C288.944 81.2184 288.738 80.6604 288.32 80.0613Z" fill="url(#paint27_linear_1339_3207)" fill-opacity="0.4"/>
<path d="M299.817 91.1559C293.063 95.0784 285.612 96.9001 277.455 96.6375C269.298 96.375 261.166 93.8967 253.059 89.2193C245.107 84.6321 240.905 79.9875 240.454 75.2773C240.43 74.9819 240.413 74.6782 240.413 74.3828V77.7309C240.405 78.0263 240.413 78.3217 240.446 78.6253C240.897 83.3274 245.099 87.972 253.05 92.5674C261.158 97.2448 269.282 99.723 277.447 99.9856C285.604 100.248 293.055 98.4265 299.808 94.504C306.119 90.8359 309.278 86.8314 309.294 82.4822V79.1341C309.294 83.4833 306.127 87.496 299.817 91.1559Z" fill="url(#paint28_linear_1339_3207)" fill-opacity="0.4"/>
<path d="M295.106 33.4019L295.098 36.7417L329.555 111.014L329.563 107.675L295.106 33.4019Z" fill="url(#paint29_linear_1339_3207)" fill-opacity="0.4"/>
<path d="M329.563 107.675L329.555 111.015L350.078 107.937L350.087 104.597L329.563 107.675Z" fill="url(#paint30_linear_1339_3207)" fill-opacity="0.4"/>
<path d="M228.194 117.218L228.186 120.566L241.037 98.0163L241.045 94.6682L228.194 117.218Z" fill="url(#paint31_linear_1339_3207)" fill-opacity="0.4"/>
<path d="M203.018 120.665C198.259 123.43 195.871 127.049 195.863 130.676V134.024C195.863 130.397 198.251 126.778 203.01 124.013C209.805 120.066 219.611 118.917 228.186 120.566V117.218C219.619 115.569 209.813 116.718 203.027 120.665H203.018Z" fill="url(#paint32_linear_1339_3207)" fill-opacity="0.4"/>
<path d="M284.406 147.556C274.763 141.984 259.172 141.984 249.587 147.556C244.828 150.321 242.448 153.94 242.44 157.567V160.915C242.44 157.288 244.82 153.669 249.579 150.904C259.164 145.332 274.747 145.34 284.397 150.904C289.247 153.71 291.676 157.387 291.668 161.055V157.707C291.684 154.03 289.264 150.354 284.414 147.556H284.406Z" fill="url(#paint33_linear_1339_3207)" fill-opacity="0.4"/>
<path d="M313.627 184.524C288.073 199.377 246.502 199.377 220.784 184.524L174.215 157.633C161.274 150.157 154.808 140.351 154.841 130.553V133.901C154.799 143.699 161.266 153.505 174.207 160.981L220.776 187.872C246.494 202.725 288.065 202.725 313.619 187.872C326.314 180.495 332.665 170.836 332.698 161.17V157.822C332.681 167.488 326.322 177.147 313.635 184.524H313.627Z" fill="url(#paint34_linear_1339_3207)" fill-opacity="0.4"/>
<path fill-rule="evenodd" clip-rule="evenodd" d="M204.898 214.763V218.111C204.889 218.604 205.218 219.088 205.874 219.465V216.117C205.226 215.748 204.898 215.256 204.898 214.763ZM230.328 230.232C231.616 230.978 233.693 230.978 234.973 230.232H234.981L250.006 221.492V224.84L234.965 233.58C233.684 234.326 231.608 234.326 230.32 233.58L205.882 219.465V216.117L230.328 230.232Z" fill="url(#paint35_linear_1339_3207)" fill-opacity="0.4"/>
<path d="M261.043 232.956L261.035 236.304L277.012 234.162L277.028 230.814L261.043 232.956Z" fill="url(#paint36_linear_1339_3207)" fill-opacity="0.4"/>
<path d="M250.006 221.5V224.848C255.66 228.114 259.344 232.111 261.035 236.312V232.964C259.352 228.763 255.668 224.774 250.006 221.5Z" fill="url(#paint37_linear_1339_3207)" fill-opacity="0.4"/>
<path d="M99.0314 201.33C89.3893 195.758 73.7979 195.766 64.2133 201.33C59.4538 204.095 57.0658 207.714 57.0576 211.341V214.689C57.0576 211.062 59.4374 207.443 64.2051 204.678C73.7897 199.106 89.3729 199.106 99.0232 204.678C103.873 207.476 106.302 211.161 106.286 214.829V211.481C106.302 207.813 103.881 204.128 99.0314 201.33Z" fill="url(#paint38_linear_1339_3207)" fill-opacity="0.4"/>
<path d="M35.4105 238.306L35.4023 241.646L64.3204 224.84L64.3286 221.5L35.4105 238.306Z" fill="url(#paint39_linear_1339_3207)" fill-opacity="0.4"/>
<path d="M16.0275 211.226V214.574C15.9865 224.372 22.4529 234.179 35.3937 241.654V238.306C22.4611 230.831 16.0029 221.024 16.0275 211.226Z" fill="url(#paint40_linear_1339_3207)" fill-opacity="0.4"/>
<path d="M128.245 238.306L122.46 241.671C119.284 243.517 117.7 245.93 117.692 248.342V251.69C117.692 249.27 119.276 246.857 122.451 245.019L128.237 241.654C140.931 234.277 147.283 224.619 147.316 214.952V211.604C147.299 221.271 140.94 230.929 128.253 238.306H128.245Z" fill="url(#paint41_linear_1339_3207)" fill-opacity="0.4"/>
<path d="M93.6237 271.91C82.2994 265.37 76.6454 256.786 76.6701 248.219V251.567C76.6372 260.134 82.2912 268.718 93.6155 275.258L128.549 295.428V292.08L93.6319 271.91H93.6237Z" fill="url(#paint42_linear_1339_3207)" fill-opacity="0.4"/>
<path d="M128.549 292.08L128.541 295.428L221.08 241.646L221.088 238.306L128.549 292.08Z" fill="url(#paint43_linear_1339_3207)" fill-opacity="0.4"/>
</g>
<g filter="url(#filter3_b_1339_3207)">
<path d="M335.242 59.5053C334.79 54.8115 337.941 50.4951 344.687 46.5726C351.432 42.6502 358.867 40.812 366.983 41.0582C375.106 41.3044 383.173 43.7416 391.207 48.378C399.314 53.0554 403.598 57.7492 404.041 62.4513C404.492 67.1533 401.341 71.4615 394.596 75.3922C387.85 79.3229 380.391 81.1364 372.243 80.8738C364.086 80.6112 355.954 78.133 347.846 73.4556C339.739 68.7781 335.693 64.2238 335.242 59.5135V59.5053ZM363.889 53.2523C361.115 52.6287 358.883 52.8092 357.201 53.7939C355.519 54.7787 355.1 56.108 356.183 57.6672C357.267 59.2263 360.057 61.3024 364.529 63.8873C369.083 66.5215 372.71 68.1463 375.41 68.7699C378.11 69.3936 380.334 69.1966 382.098 68.1709C383.862 67.1451 384.207 65.8568 383.124 64.2894C382.032 62.7303 379.218 60.6378 374.663 58.0036C370.109 55.3695 366.679 53.8842 363.905 53.2605" fill="url(#paint44_linear_1339_3207)" fill-opacity="0.4"/>
<path d="M309.261 78.2233C309.712 82.9253 306.561 87.2335 299.816 91.1559C293.062 95.0784 285.611 96.9002 277.455 96.6376C269.298 96.375 261.166 93.8968 253.058 89.2193C244.951 84.5419 240.905 79.9876 240.454 75.2773C240.011 70.5752 243.153 66.2671 249.907 62.3446C256.661 58.4221 264.087 56.584 272.203 56.8302C280.327 57.0763 288.393 59.5135 296.427 64.1499C304.534 68.8274 308.81 73.5212 309.261 78.2233ZM280.614 84.5419C283.314 85.1656 285.546 84.9686 287.31 83.9429C289.074 82.9171 289.411 81.6288 288.319 80.0614C287.236 78.5023 284.422 76.4097 279.859 73.7756C275.296 71.1415 271.891 69.6644 269.158 69.0653C266.426 68.4663 264.218 68.655 262.528 69.6316C260.837 70.6081 260.419 71.9457 261.502 73.513C262.594 75.0721 265.326 77.1236 269.733 79.6593C274.139 82.195 277.922 83.9182 280.606 84.5419" fill="url(#paint45_linear_1339_3207)" fill-opacity="0.4"/>
<path d="M315.629 30.3247L350.086 104.597L329.563 107.675L295.106 33.402L315.629 30.3247Z" fill="url(#paint46_linear_1339_3207)" fill-opacity="0.4"/>
<path d="M313.323 130.75C339.041 145.603 339.18 169.679 313.627 184.524C288.073 199.377 246.502 199.377 220.784 184.524L174.215 157.633C148.497 142.78 148.358 118.704 173.911 103.859C192.022 93.3305 218.191 90.2697 241.045 94.6681L228.194 117.218C219.619 115.569 209.813 116.718 203.018 120.665C193.433 126.237 193.483 135.263 203.133 140.827L206.514 142.78C209.681 138.406 214.342 134.311 220.48 130.742C246.034 115.889 287.606 115.889 313.323 130.742V130.75ZM249.702 167.718C259.344 173.29 274.927 173.29 284.512 167.718C294.097 162.146 294.047 153.12 284.397 147.556C274.747 141.992 259.164 141.984 249.579 147.556C239.994 153.128 240.052 162.154 249.694 167.726" fill="url(#paint47_linear_1339_3207)" fill-opacity="0.4"/>
<path d="M261.576 214.771C269.512 219.35 274.657 224.939 277.028 230.814L261.051 232.956C259.361 228.754 255.676 224.766 250.014 221.492L234.972 230.232C233.692 230.978 231.616 230.978 230.328 230.232L205.882 216.117C204.594 215.37 204.586 214.172 205.866 213.426L230.155 199.311C231.427 198.573 233.512 198.573 234.8 199.311L261.576 214.771Z" fill="url(#paint48_linear_1339_3207)" fill-opacity="0.4"/>
<path d="M221.088 238.306L128.548 292.08L93.6154 271.91C71.1063 258.912 70.9914 237.847 93.3529 224.857L99.1381 221.492C108.723 215.92 108.674 206.894 99.0314 201.322C89.3894 195.75 73.7979 195.758 64.2133 201.322C54.6286 206.894 54.6779 215.92 64.3282 221.484L35.4101 238.29C9.69246 223.437 9.55296 199.36 35.1065 184.516C60.6601 169.671 102.232 169.663 127.949 184.516C153.667 199.369 153.807 223.445 128.253 238.29L122.468 241.654C116.084 245.363 116.116 251.387 122.542 255.096L128.36 258.46L191.981 221.492L221.088 238.298V238.306Z" fill="url(#paint49_linear_1339_3207)" fill-opacity="0.4"/>
</g>
</g>
<g clip-path="url(#clip3_1339_3207)">
<path d="M335.242 56.1826C334.791 51.4887 337.942 47.1724 344.687 43.2499C351.433 39.3274 358.867 37.4892 366.983 37.7354C375.107 37.9816 383.173 40.4188 391.207 45.0552C399.315 49.7326 403.598 54.4265 404.041 59.1285C404.493 63.8306 401.342 68.1387 394.596 72.0694C387.851 76.0001 380.392 77.8136 372.243 77.551C364.086 77.2885 355.954 74.8102 347.847 70.1328C339.739 65.4554 335.693 60.901 335.242 56.1908V56.1826ZM363.889 49.9296C361.116 49.3059 358.884 49.4865 357.201 50.4712C355.519 51.4559 355.101 52.7853 356.184 54.3444C357.267 55.9036 360.057 57.9797 364.529 60.5646C369.084 63.1987 372.711 64.8235 375.411 65.4472C378.11 66.0708 380.334 65.8739 382.098 64.8481C383.863 63.8224 384.207 62.534 383.124 60.9667C382.033 59.4075 379.218 57.315 374.664 54.6809C370.109 52.0467 366.679 50.5614 363.906 49.9378" fill="#101112" fill-opacity="0.6"/>
<path d="M309.262 74.9088C309.713 79.6109 306.562 83.919 299.817 87.8415C293.063 91.764 285.612 93.5857 277.455 93.3231C269.298 93.0605 261.166 90.5823 253.059 85.9049C244.951 81.2274 240.905 76.6731 240.454 71.9628C240.011 67.2608 243.154 62.9526 249.907 59.0301C256.661 55.1077 264.087 53.2695 272.203 53.5157C280.327 53.7619 288.394 56.1991 296.427 60.8355C304.535 65.5129 308.81 70.2068 309.262 74.9088ZM280.614 81.2274C283.314 81.8511 285.546 81.6542 287.311 80.6284C289.075 79.6026 289.411 78.3143 288.32 76.747C287.237 75.1878 284.422 73.0953 279.859 70.4611C275.297 67.827 271.891 66.3499 269.159 65.7509C266.426 65.1518 264.219 65.3406 262.528 66.3171C260.838 67.2936 260.419 68.6312 261.503 70.1985C262.594 71.7577 265.327 73.8092 269.733 76.3449C274.14 78.8805 277.923 80.6038 280.606 81.2274" fill="#101112" fill-opacity="0.6"/>
<path d="M315.63 27.0103L350.087 101.275L329.564 104.352L295.106 30.0793L315.63 27.0103Z" fill="#101112" fill-opacity="0.6"/>
<path d="M313.323 127.427C339.041 142.28 339.18 166.357 313.627 181.201C288.073 196.054 246.502 196.054 220.784 181.201L174.215 154.31C148.497 139.457 148.358 115.381 173.911 100.536C192.022 90.0078 218.191 86.9469 241.045 91.3454L228.194 113.896C219.619 112.246 209.813 113.395 203.018 117.342C193.433 122.914 193.483 131.941 203.133 137.504L206.514 139.457C209.681 135.083 214.342 130.989 220.48 127.419C246.034 112.566 287.606 112.566 313.323 127.419V127.427ZM249.702 164.395C259.344 169.967 274.927 169.967 284.512 164.395C294.097 158.823 294.047 149.797 284.397 144.233C274.747 138.669 259.164 138.661 249.579 144.233C239.994 149.805 240.052 158.832 249.694 164.404" fill="#101112" fill-opacity="0.6"/>
<path d="M261.576 211.457C269.512 216.036 274.657 221.624 277.028 227.5L261.051 229.641C259.361 225.44 255.676 221.452 250.014 218.178L234.972 226.917C233.692 227.664 231.616 227.664 230.328 226.917L205.882 212.803C204.594 212.056 204.586 210.858 205.866 210.111L230.155 195.997C231.427 195.258 233.512 195.258 234.8 195.997L261.576 211.457Z" fill="#101112" fill-opacity="0.6"/>
<path d="M221.088 234.984L128.548 288.758L93.6154 268.587C71.1063 255.589 70.9914 234.524 93.3529 221.534L99.1381 218.17C108.723 212.598 108.674 203.571 99.0314 197.999C89.3894 192.427 73.7979 192.435 64.2133 197.999C54.6286 203.571 54.6779 212.598 64.3282 218.161L35.4101 234.967C9.69246 220.114 9.55296 196.038 35.1065 181.193C60.6601 166.349 102.232 166.34 127.949 181.193C153.667 196.046 153.807 220.123 128.253 234.967L122.468 238.332C116.084 242.041 116.116 248.064 122.542 251.773L128.36 255.138L191.981 218.17L221.088 234.976V234.984Z" fill="#101112" fill-opacity="0.6"/>
<g filter="url(#filter4_b_1339_3207)">
<path d="M383.108 57.6189C382.016 56.0598 379.202 53.9672 374.647 51.3331C370.249 48.7892 366.663 47.2137 363.889 46.59C361.116 45.9664 358.883 46.1469 357.201 47.1316C356.11 47.7635 355.568 48.502 355.56 49.3308V52.6789C355.56 51.8419 356.102 51.1116 357.185 50.4797C358.875 49.5032 361.099 49.3226 363.873 49.9381C366.646 50.5617 370.232 52.1455 374.631 54.6812C379.185 57.3153 382.008 59.4078 383.091 60.967C383.502 61.566 383.715 62.1158 383.707 62.6328V59.2847C383.715 58.7678 383.51 58.2098 383.099 57.6189H383.108Z" fill="url(#paint50_linear_1339_3207)" fill-opacity="0.6"/>
<path d="M394.588 68.7214C387.843 72.6439 380.383 74.4656 372.235 74.203C364.078 73.9405 355.946 71.4622 347.838 66.7848C339.887 62.1976 335.685 57.553 335.234 52.8428V56.1908C335.677 60.8929 339.878 65.5375 347.822 70.1329C355.929 74.8103 364.053 77.2885 372.218 77.5511C380.375 77.8219 387.826 75.992 394.572 72.0695C400.89 68.4014 404.05 64.3886 404.058 60.0312V56.6832C404.058 61.0406 400.898 65.0451 394.58 68.7214H394.588Z" fill="url(#paint51_linear_1339_3207)" fill-opacity="0.6"/>
<path d="M288.32 73.399C287.237 71.8398 284.422 69.7473 279.86 67.1132C275.461 64.5693 271.891 63.002 269.159 62.4029C266.426 61.8039 264.219 61.9926 262.528 62.9691C261.437 63.601 260.887 64.3395 260.887 65.1766V68.5246C260.887 67.6876 261.429 66.9491 262.52 66.3172C264.211 65.3407 266.418 65.1437 269.151 65.751C271.883 66.35 275.453 67.9256 279.851 70.4612C284.406 73.0954 287.229 75.1879 288.312 76.747C288.73 77.3461 288.935 77.9041 288.935 78.4211V75.073C288.944 74.556 288.738 73.998 288.32 73.399Z" fill="url(#paint52_linear_1339_3207)" fill-opacity="0.6"/>
<path d="M299.817 84.4936C293.063 88.416 285.612 90.2378 277.455 89.9752C269.298 89.7126 261.166 87.2344 253.059 82.5569C245.107 77.9698 240.905 73.3252 240.454 68.6149C240.43 68.3195 240.413 68.0159 240.413 67.7205V71.0685C240.405 71.3639 240.413 71.6594 240.446 71.963C240.897 76.665 245.099 81.3096 253.05 85.905C261.158 90.5824 269.282 93.0607 277.447 93.3232C285.604 93.5858 293.055 91.7641 299.808 87.8416C306.119 84.1735 309.278 80.169 309.294 75.8198V72.4717C309.294 76.8209 306.127 80.8337 299.817 84.4936Z" fill="url(#paint53_linear_1339_3207)" fill-opacity="0.6"/>
<path d="M295.106 26.7395L295.098 30.0794L329.555 104.352L329.563 101.012L295.106 26.7395Z" fill="url(#paint54_linear_1339_3207)" fill-opacity="0.6"/>
<path d="M329.563 101.012L329.555 104.352L350.078 101.275L350.087 97.9351L329.563 101.012Z" fill="url(#paint55_linear_1339_3207)" fill-opacity="0.6"/>
<path d="M228.194 110.556L228.186 113.904L241.037 91.3537L241.045 88.0056L228.194 110.556Z" fill="url(#paint56_linear_1339_3207)" fill-opacity="0.6"/>
<path d="M203.018 114.002C198.258 116.768 195.871 120.387 195.862 124.014V127.362C195.862 123.735 198.25 120.116 203.01 117.35C209.804 113.403 219.611 112.254 228.186 113.904V110.556C219.619 108.906 209.813 110.055 203.026 114.002H203.018Z" fill="url(#paint57_linear_1339_3207)" fill-opacity="0.6"/>
<path d="M284.406 140.894C274.763 135.322 259.172 135.322 249.587 140.894C244.828 143.659 242.448 147.278 242.44 150.905V154.253C242.44 150.626 244.82 147.007 249.579 144.242C259.164 138.67 274.747 138.678 284.397 144.242C289.247 147.048 291.676 150.724 291.668 154.392V151.044C291.684 147.368 289.264 143.692 284.414 140.894H284.406Z" fill="url(#paint58_linear_1339_3207)" fill-opacity="0.6"/>
<path d="M313.627 177.862C288.073 192.715 246.502 192.715 220.784 177.862L174.215 150.97C161.274 143.495 154.808 133.689 154.841 123.891V127.239C154.799 137.037 161.266 146.843 174.207 154.319L220.776 181.21C246.494 196.063 288.065 196.063 313.619 181.21C326.314 173.832 332.665 164.174 332.698 154.507V151.159C332.681 160.826 326.322 170.484 313.635 177.862H313.627Z" fill="url(#paint59_linear_1339_3207)" fill-opacity="0.6"/>
<path fill-rule="evenodd" clip-rule="evenodd" d="M204.898 208.101V211.449C204.889 211.941 205.218 212.425 205.874 212.803V209.455C205.226 209.086 204.898 208.593 204.898 208.101ZM230.328 223.569C231.616 224.316 233.693 224.316 234.973 223.569H234.981L250.006 214.83V218.178L234.965 226.917C233.684 227.664 231.608 227.664 230.32 226.917L205.882 212.803V209.455L230.328 223.569Z" fill="url(#paint60_linear_1339_3207)" fill-opacity="0.6"/>
<path d="M261.043 226.294L261.035 229.642L277.012 227.5L277.028 224.152L261.043 226.294Z" fill="url(#paint61_linear_1339_3207)" fill-opacity="0.6"/>
<path d="M250.006 214.838V218.186C255.66 221.452 259.344 225.448 261.035 229.65V226.302C259.352 222.1 255.668 218.112 250.006 214.838Z" fill="url(#paint62_linear_1339_3207)" fill-opacity="0.6"/>
<path d="M99.0314 194.668C89.3893 189.096 73.7979 189.104 64.2133 194.668C59.4538 197.433 57.0658 201.052 57.0576 204.679V208.027C57.0576 204.4 59.4374 200.781 64.2051 198.016C73.7897 192.444 89.3729 192.444 99.0232 198.016C103.873 200.814 106.302 204.498 106.286 208.166V204.818C106.302 201.15 103.881 197.466 99.0314 194.668Z" fill="url(#paint63_linear_1339_3207)" fill-opacity="0.6"/>
<path d="M35.4105 231.644L35.4023 234.984L64.3204 218.178L64.3286 214.838L35.4105 231.644Z" fill="url(#paint64_linear_1339_3207)" fill-opacity="0.6"/>
<path d="M16.0275 204.564V207.912C15.9865 217.71 22.4529 227.516 35.3937 234.992V231.644C22.4611 224.168 16.0029 214.362 16.0275 204.564Z" fill="url(#paint65_linear_1339_3207)" fill-opacity="0.6"/>
<path d="M128.245 231.644L122.46 235.009C119.284 236.855 117.7 239.267 117.692 241.68V245.028C117.692 242.607 119.276 240.195 122.451 238.357L128.237 234.992C140.931 227.615 147.283 217.956 147.316 208.29V204.942C147.299 214.608 140.94 224.267 128.253 231.644H128.245Z" fill="url(#paint66_linear_1339_3207)" fill-opacity="0.6"/>
<path d="M93.6237 265.248C82.2994 258.707 76.6454 250.124 76.6701 241.557V244.905C76.6372 253.472 82.2912 262.056 93.6155 268.596L128.549 288.766V285.418L93.6319 265.248H93.6237Z" fill="url(#paint67_linear_1339_3207)" fill-opacity="0.6"/>
<path d="M128.549 285.418L128.541 288.766L221.08 234.984L221.088 231.644L128.549 285.418Z" fill="url(#paint68_linear_1339_3207)" fill-opacity="0.6"/>
</g>
<g filter="url(#filter5_b_1339_3207)">
<path d="M335.242 52.843C334.79 48.1491 337.941 43.8328 344.687 39.9103C351.432 35.9878 358.867 34.1497 366.983 34.3958C375.106 34.642 383.173 37.0792 391.207 41.7156C399.314 46.393 403.598 51.0869 404.041 55.7889C404.492 60.491 401.341 64.7991 394.596 68.7298C387.85 72.6605 380.391 74.474 372.243 74.2114C364.086 73.9489 355.954 71.4706 347.846 66.7932C339.739 62.1158 335.693 57.5614 335.242 52.8512V52.843ZM363.889 46.59C361.115 45.9663 358.883 46.1469 357.201 47.1316C355.519 48.1163 355.1 49.4457 356.183 51.0048C357.267 52.564 360.057 54.6401 364.529 57.225C369.083 59.8591 372.71 61.4839 375.41 62.1076C378.11 62.7312 380.334 62.5343 382.098 61.5085C383.862 60.4828 384.207 59.1944 383.124 57.6271C382.032 56.0679 379.218 53.9754 374.663 51.3413C370.109 48.7071 366.679 47.2218 363.905 46.5982" fill="url(#paint69_linear_1339_3207)" fill-opacity="0.6"/>
<path d="M309.261 71.5609C309.712 76.263 306.561 80.5711 299.816 84.4936C293.062 88.4161 285.611 90.2378 277.455 89.9752C269.298 89.7126 261.166 87.2344 253.058 82.557C244.951 77.8795 240.905 73.3252 240.454 68.6149C240.011 63.9129 243.153 59.6047 249.907 55.6823C256.661 51.7598 264.087 49.9216 272.203 50.1678C280.327 50.414 288.393 52.8512 296.427 57.4876C304.534 62.165 308.81 66.8589 309.261 71.5609ZM280.614 77.8795C283.314 78.5032 285.546 78.3062 287.31 77.2805C289.074 76.2547 289.411 74.9664 288.319 73.3991C287.236 71.8399 284.422 69.7474 279.859 67.1132C275.296 64.4791 271.891 63.002 269.158 62.403C266.426 61.8039 264.218 61.9927 262.528 62.9692C260.837 63.9457 260.419 65.2833 261.502 66.8506C262.594 68.4098 265.326 70.4613 269.733 72.997C274.139 75.5326 277.922 77.2559 280.606 77.8795" fill="url(#paint70_linear_1339_3207)" fill-opacity="0.6"/>
<path d="M315.629 23.6624L350.086 97.9351L329.563 101.012L295.106 26.7396L315.629 23.6624Z" fill="url(#paint71_linear_1339_3207)" fill-opacity="0.6"/>
<path d="M313.323 124.088C339.041 138.941 339.18 163.017 313.627 177.862C288.073 192.715 246.502 192.715 220.784 177.862L174.215 150.971C148.497 136.118 148.358 112.041 173.911 97.1965C192.022 86.6682 218.191 83.6073 241.045 88.0058L228.194 110.556C219.619 108.906 209.813 110.055 203.018 114.002C193.433 119.574 193.483 128.601 203.133 134.165L206.514 136.118C209.681 131.744 214.342 127.649 220.48 124.079C246.034 109.227 287.606 109.227 313.323 124.079V124.088ZM249.702 161.056C259.344 166.628 274.927 166.628 284.512 161.056C294.097 155.484 294.047 146.457 284.397 140.894C274.747 135.33 259.164 135.322 249.579 140.894C239.994 146.465 240.052 155.492 249.694 161.064" fill="url(#paint72_linear_1339_3207)" fill-opacity="0.6"/>
<path d="M261.576 208.109C269.512 212.688 274.657 218.276 277.028 224.152L261.051 226.294C259.361 222.092 255.676 218.104 250.014 214.83L234.972 223.569C233.692 224.316 231.616 224.316 230.328 223.569L205.882 209.455C204.594 208.708 204.586 207.51 205.866 206.763L230.155 192.649C231.427 191.91 233.512 191.91 234.8 192.649L261.576 208.109Z" fill="url(#paint73_linear_1339_3207)" fill-opacity="0.6"/>
<path d="M221.088 231.644L128.548 285.418L93.6154 265.248C71.1063 252.249 70.9914 231.184 93.3529 218.194L99.1381 214.83C108.723 209.258 108.674 200.231 99.0314 194.659C89.3894 189.087 73.7979 189.096 64.2133 194.659C54.6286 200.231 54.6779 209.258 64.3282 214.822L35.4101 231.627C9.69246 216.775 9.55296 192.698 35.1065 177.853C60.6601 163.009 102.232 163 127.949 177.853C153.667 192.706 153.807 216.783 128.253 231.627L122.468 234.992C116.084 238.701 116.116 244.724 122.542 248.433L128.36 251.798L191.981 214.83L221.088 231.636V231.644Z" fill="url(#paint74_linear_1339_3207)" fill-opacity="0.6"/>
</g>
</g>
<g clip-path="url(#clip4_1339_3207)">
<path d="M335.242 49.5205C334.791 44.8266 337.942 40.5102 344.687 36.5878C351.433 32.6653 358.867 30.8271 366.983 31.0733C375.107 31.3195 383.173 33.7567 391.207 38.3931C399.315 43.0705 403.598 47.7644 404.041 52.4664C404.493 57.1685 401.342 61.4766 394.596 65.4073C387.851 69.338 380.392 71.1515 372.243 70.8889C364.086 70.6263 355.954 68.1481 347.847 63.4707C339.739 58.7933 335.693 54.2389 335.242 49.5287V49.5205ZM363.889 43.2675C361.116 42.6438 358.884 42.8243 357.201 43.8091C355.519 44.7938 355.101 46.1232 356.184 47.6823C357.267 49.2415 360.057 51.3176 364.529 53.9025C369.084 56.5366 372.711 58.1614 375.411 58.7851C378.11 59.4087 380.334 59.2118 382.098 58.186C383.863 57.1603 384.207 55.8719 383.124 54.3046C382.033 52.7454 379.218 50.6529 374.664 48.0188C370.109 45.3846 366.679 43.8993 363.906 43.2757" fill="#101112"/>
<path d="M309.262 68.2467C309.713 72.9487 306.562 77.2569 299.817 81.1794C293.063 85.1019 285.612 86.9236 277.455 86.661C269.298 86.3984 261.166 83.9202 253.059 79.2428C244.951 74.5653 240.905 70.011 240.454 65.3007C240.011 60.5987 243.154 56.2905 249.907 52.368C256.661 48.4456 264.087 46.6074 272.203 46.8536C280.327 47.0998 288.394 49.537 296.427 54.1734C304.535 58.8508 308.81 63.5446 309.262 68.2467ZM280.614 74.5653C283.314 75.189 285.546 74.992 287.311 73.9663C289.075 72.9405 289.411 71.6522 288.32 70.0848C287.237 68.5257 284.422 66.4332 279.859 63.799C275.297 61.1649 271.891 59.6878 269.159 59.0888C266.426 58.4897 264.219 58.6785 262.528 59.655C260.838 60.6315 260.419 61.9691 261.503 63.5364C262.594 65.0956 265.327 67.1471 269.733 69.6827C274.14 72.2184 277.923 73.9417 280.606 74.5653" fill="#101112"/>
<path d="M315.63 20.3481L350.087 94.6126L329.564 97.6899L295.106 23.4172L315.63 20.3481Z" fill="#101112"/>
<path d="M313.324 120.765C339.041 135.618 339.181 159.695 313.627 174.539C288.074 189.392 246.502 189.392 220.784 174.539L174.215 147.648C148.498 132.795 148.358 108.719 173.912 93.8742C192.022 83.3459 218.191 80.2851 241.045 84.6835L228.195 107.234C219.619 105.584 209.813 106.733 203.018 110.68C193.434 116.252 193.483 125.279 203.133 130.842L206.514 132.795C209.682 128.422 214.343 124.327 220.481 120.757C246.034 105.904 287.606 105.904 313.324 120.757V120.765ZM249.702 157.733C259.345 163.305 274.928 163.305 284.512 157.733C294.097 152.162 294.048 143.135 284.398 137.571C274.747 132.008 259.164 131.999 249.579 137.571C239.995 143.143 240.052 152.17 249.694 157.742" fill="#101112"/>
<path d="M261.577 204.795C269.512 209.374 274.657 214.962 277.029 220.838L261.052 222.979C259.361 218.778 255.677 214.79 250.015 211.516L234.973 220.255C233.693 221.002 231.617 221.002 230.328 220.255L205.883 206.141C204.594 205.394 204.586 204.196 205.866 203.449L230.156 189.335C231.428 188.596 233.512 188.596 234.801 189.335L261.577 204.795Z" fill="#101112"/>
<path d="M221.088 228.322L128.549 282.096L93.6159 261.925C71.1068 248.927 70.9919 227.862 93.3533 214.872L99.1386 211.507C108.723 205.936 108.674 196.909 99.0319 191.337C89.3898 185.765 73.7984 185.773 64.2138 191.337C54.6291 196.909 54.6784 205.936 64.3286 211.499L35.4106 228.305C9.69294 213.452 9.55344 189.376 35.107 174.531C60.6605 159.686 102.232 159.678 127.95 174.531C153.668 189.384 153.807 213.46 128.254 228.305L122.468 231.67C116.084 235.379 116.117 241.402 122.542 245.111L128.36 248.476L191.982 211.507L221.088 228.313V228.322Z" fill="#101112"/>
<g filter="url(#filter6_b_1339_3207)">
<path d="M383.108 50.9563C382.017 49.3972 379.202 47.3047 374.648 44.6705C370.249 42.1267 366.663 40.5511 363.89 39.9274C361.116 39.3038 358.884 39.4843 357.202 40.469C356.11 41.1009 355.569 41.8394 355.561 42.6682V46.0163C355.561 45.1793 356.102 44.449 357.185 43.8171C358.876 42.8406 361.1 42.66 363.873 43.2755C366.647 43.8992 370.233 45.4829 374.631 48.0186C379.186 50.6527 382.009 52.7452 383.092 54.3044C383.502 54.9034 383.715 55.4532 383.707 55.9702V52.6222C383.715 52.1052 383.51 51.5472 383.1 50.9563H383.108Z" fill="url(#paint75_linear_1339_3207)"/>
<path d="M394.589 62.0591C387.843 65.9816 380.384 67.8033 372.235 67.5407C364.079 67.2781 355.946 64.7999 347.839 60.1224C339.887 55.5353 335.686 50.8907 335.234 46.1804V49.5285C335.678 54.2305 339.879 58.8751 347.822 63.4705C355.93 68.1479 364.054 70.6262 372.219 70.8888C380.376 71.1595 387.827 69.3296 394.572 65.4071C400.891 61.739 404.05 57.7263 404.058 53.3689V50.0208C404.058 54.3782 400.899 58.3828 394.58 62.0591H394.589Z" fill="url(#paint76_linear_1339_3207)"/>
<path d="M288.32 66.7366C287.237 65.1775 284.423 63.085 279.86 60.4508C275.462 57.907 271.892 56.3396 269.159 55.7406C266.427 55.1415 264.219 55.3303 262.529 56.3068C261.437 56.9386 260.888 57.6772 260.888 58.5142V61.8623C260.888 61.0252 261.429 60.2867 262.521 59.6548C264.211 58.6783 266.419 58.4814 269.151 59.0886C271.884 59.6877 275.453 61.2632 279.852 63.7989C284.406 66.433 287.229 68.5256 288.312 70.0847C288.731 70.6837 288.936 71.2417 288.936 71.7587V68.4107C288.944 67.8937 288.739 67.3357 288.32 66.7366Z" fill="url(#paint77_linear_1339_3207)"/>
<path d="M299.817 77.831C293.063 81.7534 285.612 83.5752 277.456 83.3126C269.299 83.05 261.167 80.5718 253.059 75.8943C245.107 71.3072 240.906 66.6626 240.455 61.9523C240.43 61.6569 240.414 61.3533 240.414 61.0579V64.4059C240.405 64.7013 240.414 64.9968 240.446 65.3004C240.898 70.0024 245.099 74.647 253.051 79.2424C261.158 83.9198 269.282 86.3981 277.447 86.6607C285.604 86.9232 293.055 85.1015 299.809 81.179C306.119 77.5109 309.279 73.5064 309.295 69.1572V65.8091C309.295 70.1583 306.127 74.1711 299.817 77.831Z" fill="url(#paint78_linear_1339_3207)"/>
<path d="M295.107 20.0771L295.099 23.417L329.556 97.6897L329.564 94.3499L295.107 20.0771Z" fill="url(#paint79_linear_1339_3207)"/>
<path d="M329.564 94.3497L329.556 97.6896L350.079 94.6123L350.087 91.2725L329.564 94.3497Z" fill="url(#paint80_linear_1339_3207)"/>
<path d="M228.195 103.893L228.187 107.241L241.037 84.6913L241.045 81.3433L228.195 103.893Z" fill="url(#paint81_linear_1339_3207)"/>
<path d="M203.018 107.34C198.259 110.105 195.871 113.724 195.863 117.351V120.699C195.863 117.072 198.251 113.453 203.01 110.688C209.805 106.741 219.611 105.592 228.186 107.242V103.893C219.619 102.244 209.813 103.393 203.027 107.34H203.018Z" fill="url(#paint82_linear_1339_3207)"/>
<path d="M284.406 134.231C274.764 128.659 259.173 128.659 249.588 134.231C244.828 136.997 242.449 140.615 242.44 144.243V147.591C242.44 143.964 244.82 140.345 249.58 137.579C259.164 132.007 274.748 132.016 284.398 137.579C289.248 140.386 291.677 144.062 291.668 147.73V144.382C291.685 140.706 289.264 137.029 284.414 134.231H284.406Z" fill="url(#paint83_linear_1339_3207)"/>
<path d="M313.628 171.199C288.074 186.052 246.502 186.052 220.785 171.199L174.215 144.308C161.275 136.832 154.808 127.026 154.841 117.228V120.576C154.8 130.374 161.266 140.181 174.207 147.656L220.776 174.547C246.494 189.4 288.066 189.4 313.619 174.547C326.314 167.17 332.665 157.512 332.698 147.845V144.497C332.682 154.164 326.322 163.822 313.636 171.199H313.628Z" fill="url(#paint84_linear_1339_3207)"/>
<path fill-rule="evenodd" clip-rule="evenodd" d="M204.898 201.438V204.787C204.89 205.279 205.218 205.763 205.875 206.141V202.792C205.226 202.423 204.898 201.931 204.898 201.438ZM230.329 216.907C231.617 217.654 233.693 217.654 234.973 216.907H234.981L250.007 208.167V211.515L234.965 220.255C233.685 221.002 231.609 221.002 230.32 220.255L205.883 206.141V202.792L230.329 216.907Z" fill="url(#paint85_linear_1339_3207)"/>
<path d="M261.043 219.631L261.035 222.979L277.012 220.838L277.029 217.49L261.043 219.631Z" fill="url(#paint86_linear_1339_3207)"/>
<path d="M250.006 208.176V211.524C255.66 214.79 259.345 218.786 261.035 222.987V219.639C259.353 215.438 255.669 211.45 250.006 208.176Z" fill="url(#paint87_linear_1339_3207)"/>
<path d="M99.0319 188.005C89.3898 182.433 73.7984 182.442 64.2138 188.005C59.4543 190.771 57.0663 194.389 57.0581 198.017V201.365C57.0581 197.738 59.4379 194.119 64.2056 191.353C73.7902 185.781 89.3734 185.781 99.0237 191.353C103.873 194.151 106.302 197.836 106.286 201.504V198.156C106.302 194.488 103.882 190.803 99.0319 188.005Z" fill="url(#paint88_linear_1339_3207)"/>
<path d="M35.411 224.981L35.4028 228.321L64.3208 211.515L64.3291 208.176L35.411 224.981Z" fill="url(#paint89_linear_1339_3207)"/>
<path d="M16.028 197.902V201.25C15.987 211.048 22.4533 220.854 35.3942 228.33V224.981C22.4615 217.506 16.0034 207.7 16.028 197.902Z" fill="url(#paint90_linear_1339_3207)"/>
<path d="M128.245 224.981L122.46 228.346C119.284 230.192 117.701 232.605 117.692 235.017V238.365C117.692 235.945 119.276 233.532 122.452 231.694L128.237 228.33C140.932 220.952 147.283 211.294 147.316 201.627V198.279C147.3 207.946 140.94 217.604 128.254 224.981H128.245Z" fill="url(#paint91_linear_1339_3207)"/>
<path d="M93.6242 258.585C82.2999 252.045 76.6459 243.461 76.6706 234.894V238.242C76.6377 246.809 82.2917 255.393 93.616 261.933L128.549 282.104V278.755L93.6324 258.585H93.6242Z" fill="url(#paint92_linear_1339_3207)"/>
<path d="M128.549 278.756L128.541 282.104L221.08 228.321L221.089 224.981L128.549 278.756Z" fill="url(#paint93_linear_1339_3207)"/>
</g>
<g filter="url(#filter7_b_1339_3207)">
<path d="M335.242 46.1806C334.791 41.4868 337.942 37.1704 344.687 33.2479C351.433 29.3254 358.867 27.4873 366.983 27.7335C375.107 27.9797 383.173 30.4168 391.207 35.0532C399.315 39.7307 403.598 44.4245 404.041 49.1266C404.493 53.8286 401.342 58.1368 394.596 62.0675C387.851 65.9982 380.392 67.8117 372.243 67.5491C364.086 67.2865 355.954 64.8083 347.847 60.1309C339.739 55.4534 335.693 50.8991 335.242 46.1888V46.1806ZM363.889 39.9276C361.116 39.304 358.884 39.4845 357.201 40.4692C355.519 41.4539 355.101 42.7833 356.184 44.3425C357.267 45.9016 360.057 47.9777 364.529 50.5626C369.084 53.1968 372.711 54.8216 375.411 55.4452C378.11 56.0689 380.334 55.8719 382.098 54.8462C383.863 53.8204 384.207 52.5321 383.124 50.9647C382.033 49.4056 379.218 47.313 374.664 44.6789C370.109 42.0448 366.679 40.5595 363.906 39.9358" fill="url(#paint94_linear_1339_3207)"/>
<path d="M309.262 64.8986C309.713 69.6006 306.562 73.9088 299.817 77.8312C293.063 81.7537 285.612 83.5755 277.455 83.3129C269.298 83.0503 261.166 80.572 253.059 75.8946C244.951 71.2172 240.905 66.6628 240.454 61.9526C240.011 57.2505 243.154 52.9424 249.907 49.0199C256.661 45.0974 264.087 43.2593 272.203 43.5054C280.327 43.7516 288.394 46.1888 296.427 50.8252C304.535 55.5027 308.81 60.1965 309.262 64.8986ZM280.614 71.2172C283.314 71.8408 285.546 71.6439 287.311 70.6181C289.075 69.5924 289.411 68.3041 288.32 66.7367C287.237 65.1776 284.422 63.085 279.859 60.4509C275.297 57.8168 271.891 56.3397 269.159 55.7406C266.426 55.1416 264.219 55.3303 262.528 56.3068C260.838 57.2834 260.419 58.6209 261.503 60.1883C262.594 61.7474 265.327 63.7989 269.733 66.3346C274.14 68.8703 277.923 70.5935 280.606 71.2172" fill="url(#paint95_linear_1339_3207)"/>
<path d="M315.63 17L350.087 91.2727L329.564 94.35L295.106 20.0773L315.63 17Z" fill="url(#paint96_linear_1339_3207)"/>
<path d="M313.324 117.425C339.041 132.278 339.181 156.355 313.627 171.199C288.074 186.052 246.502 186.052 220.784 171.199L174.215 144.308C148.498 129.455 148.358 105.379 173.912 90.5341C192.022 80.0058 218.191 76.945 241.045 81.3434L228.195 103.894C219.619 102.244 209.813 103.393 203.018 107.34C193.434 112.912 193.483 121.939 203.133 127.502L206.514 129.455C209.682 125.081 214.343 120.987 220.481 117.417C246.034 102.564 287.606 102.564 313.324 117.417V117.425ZM249.702 154.393C259.345 159.965 274.928 159.965 284.512 154.393C294.097 148.822 294.048 139.795 284.398 134.231C274.747 128.668 259.164 128.659 249.579 134.231C239.995 139.803 240.052 148.83 249.694 154.402" fill="url(#paint97_linear_1339_3207)"/>
<path d="M261.577 201.447C269.512 206.026 274.657 211.614 277.029 217.489L261.052 219.631C259.361 215.43 255.677 211.442 250.015 208.167L234.973 216.907C233.693 217.654 231.617 217.654 230.328 216.907L205.883 202.792C204.594 202.046 204.586 200.848 205.866 200.101L230.156 185.987C231.428 185.248 233.512 185.248 234.801 185.987L261.577 201.447Z" fill="url(#paint98_linear_1339_3207)"/>
<path d="M221.088 224.982L128.549 278.756L93.6159 258.585C71.1068 245.587 70.9919 224.522 93.3533 211.532L99.1386 208.167C108.723 202.595 108.674 193.569 99.0319 187.997C89.3898 182.425 73.7984 182.433 64.2138 187.997C54.6291 193.569 54.6784 202.595 64.3286 208.159L35.4106 224.965C9.69294 210.112 9.55344 186.036 35.107 171.191C60.6605 156.346 102.232 156.338 127.95 171.191C153.668 186.044 153.807 210.12 128.254 224.965L122.468 228.33C116.084 232.039 116.117 238.062 122.542 241.771L128.36 245.136L191.982 208.167L221.088 224.973V224.982Z" fill="url(#paint99_linear_1339_3207)"/>
</g>
</g>
</g>
<defs>
<filter id="filter0_b_1339_3207" x="10.6351" y="34.6725" width="398.815" height="272.811" filterUnits="userSpaceOnUse" color-interpolation-filters="sRGB">
<feFlood flood-opacity="0" result="BackgroundImageFix"/>
<feGaussianBlur in="BackgroundImageFix" stdDeviation="2.69612"/>
<feComposite in2="SourceAlpha" operator="in" result="effect1_backgroundBlur_1339_3207"/>
<feBlend mode="normal" in="SourceGraphic" in2="effect1_backgroundBlur_1339_3207" result="shape"/>
</filter>
<filter id="filter1_b_1339_3207" x="10.639" y="31.5951" width="398.836" height="272.54" filterUnits="userSpaceOnUse" color-interpolation-filters="sRGB">
<feFlood flood-opacity="0" result="BackgroundImageFix"/>
<feGaussianBlur in="BackgroundImageFix" stdDeviation="2.69612"/>
<feComposite in2="SourceAlpha" operator="in" result="effect1_backgroundBlur_1339_3207"/>
<feBlend mode="normal" in="SourceGraphic" in2="effect1_backgroundBlur_1339_3207" result="shape"/>
</filter>
<filter id="filter2_b_1339_3207" x="10.6351" y="28.0096" width="398.815" height="272.811" filterUnits="userSpaceOnUse" color-interpolation-filters="sRGB">
<feFlood flood-opacity="0" result="BackgroundImageFix"/>
<feGaussianBlur in="BackgroundImageFix" stdDeviation="2.69612"/>
<feComposite in2="SourceAlpha" operator="in" result="effect1_backgroundBlur_1339_3207"/>
<feBlend mode="normal" in="SourceGraphic" in2="effect1_backgroundBlur_1339_3207" result="shape"/>
</filter>
<filter id="filter3_b_1339_3207" x="10.639" y="24.9325" width="398.836" height="272.54" filterUnits="userSpaceOnUse" color-interpolation-filters="sRGB">
<feFlood flood-opacity="0" result="BackgroundImageFix"/>
<feGaussianBlur in="BackgroundImageFix" stdDeviation="2.69612"/>
<feComposite in2="SourceAlpha" operator="in" result="effect1_backgroundBlur_1339_3207"/>
<feBlend mode="normal" in="SourceGraphic" in2="effect1_backgroundBlur_1339_3207" result="shape"/>
</filter>
<filter id="filter4_b_1339_3207" x="10.6351" y="21.3473" width="398.815" height="272.811" filterUnits="userSpaceOnUse" color-interpolation-filters="sRGB">
<feFlood flood-opacity="0" result="BackgroundImageFix"/>
<feGaussianBlur in="BackgroundImageFix" stdDeviation="2.69612"/>
<feComposite in2="SourceAlpha" operator="in" result="effect1_backgroundBlur_1339_3207"/>
<feBlend mode="normal" in="SourceGraphic" in2="effect1_backgroundBlur_1339_3207" result="shape"/>
</filter>
<filter id="filter5_b_1339_3207" x="10.639" y="18.2701" width="398.836" height="272.54" filterUnits="userSpaceOnUse" color-interpolation-filters="sRGB">
<feFlood flood-opacity="0" result="BackgroundImageFix"/>
<feGaussianBlur in="BackgroundImageFix" stdDeviation="2.69612"/>
<feComposite in2="SourceAlpha" operator="in" result="effect1_backgroundBlur_1339_3207"/>
<feBlend mode="normal" in="SourceGraphic" in2="effect1_backgroundBlur_1339_3207" result="shape"/>
</filter>
<filter id="filter6_b_1339_3207" x="10.6356" y="14.6849" width="398.815" height="272.811" filterUnits="userSpaceOnUse" color-interpolation-filters="sRGB">
<feFlood flood-opacity="0" result="BackgroundImageFix"/>
<feGaussianBlur in="BackgroundImageFix" stdDeviation="2.69612"/>
<feComposite in2="SourceAlpha" operator="in" result="effect1_backgroundBlur_1339_3207"/>
<feBlend mode="normal" in="SourceGraphic" in2="effect1_backgroundBlur_1339_3207" result="shape"/>
</filter>
<filter id="filter7_b_1339_3207" x="10.6395" y="11.6078" width="398.836" height="272.54" filterUnits="userSpaceOnUse" color-interpolation-filters="sRGB">
<feFlood flood-opacity="0" result="BackgroundImageFix"/>
<feGaussianBlur in="BackgroundImageFix" stdDeviation="2.69612"/>
<feComposite in2="SourceAlpha" operator="in" result="effect1_backgroundBlur_1339_3207"/>
<feBlend mode="normal" in="SourceGraphic" in2="effect1_backgroundBlur_1339_3207" result="shape"/>
</filter>
<linearGradient id="paint0_linear_1339_3207" x1="369.634" y1="59.5522" x2="369.634" y2="75.9578" gradientUnits="userSpaceOnUse">
<stop stop-color="#C85C5B" stop-opacity="0.85"/>
<stop offset="1" stop-color="#C85C5B" stop-opacity="0.28"/>
</linearGradient>
<linearGradient id="paint1_linear_1339_3207" x1="369.645" y1="66.168" x2="369.645" y2="90.9025" gradientUnits="userSpaceOnUse">
<stop stop-color="#C85C5B" stop-opacity="0.85"/>
<stop offset="1" stop-color="#C85C5B" stop-opacity="0.28"/>
</linearGradient>
<linearGradient id="paint2_linear_1339_3207" x1="274.911" y1="75.3865" x2="274.911" y2="91.7463" gradientUnits="userSpaceOnUse">
<stop stop-color="#C85C5B" stop-opacity="0.85"/>
<stop offset="1" stop-color="#C85C5B" stop-opacity="0.28"/>
</linearGradient>
<linearGradient id="paint3_linear_1339_3207" x1="274.852" y1="81.0457" x2="274.852" y2="106.673" gradientUnits="userSpaceOnUse">
<stop stop-color="#C85C5B" stop-opacity="0.85"/>
<stop offset="1" stop-color="#C85C5B" stop-opacity="0.28"/>
</linearGradient>
<linearGradient id="paint4_linear_1339_3207" x1="312.33" y1="40.0647" x2="312.33" y2="117.677" gradientUnits="userSpaceOnUse">
<stop stop-color="#C85C5B" stop-opacity="0.85"/>
<stop offset="1" stop-color="#C85C5B" stop-opacity="0.28"/>
</linearGradient>
<linearGradient id="paint5_linear_1339_3207" x1="339.821" y1="111.26" x2="339.821" y2="117.677" gradientUnits="userSpaceOnUse">
<stop stop-color="#C85C5B" stop-opacity="0.85"/>
<stop offset="1" stop-color="#C85C5B" stop-opacity="0.28"/>
</linearGradient>
<linearGradient id="paint6_linear_1339_3207" x1="234.615" y1="101.331" x2="234.615" y2="127.229" gradientUnits="userSpaceOnUse">
<stop stop-color="#C85C5B" stop-opacity="0.85"/>
<stop offset="1" stop-color="#C85C5B" stop-opacity="0.28"/>
</linearGradient>
<linearGradient id="paint7_linear_1339_3207" x1="212.024" y1="123.152" x2="212.024" y2="140.687" gradientUnits="userSpaceOnUse">
<stop stop-color="#C85C5B" stop-opacity="0.85"/>
<stop offset="1" stop-color="#C85C5B" stop-opacity="0.28"/>
</linearGradient>
<linearGradient id="paint8_linear_1339_3207" x1="267.054" y1="150.04" x2="267.054" y2="167.718" gradientUnits="userSpaceOnUse">
<stop stop-color="#C85C5B" stop-opacity="0.85"/>
<stop offset="1" stop-color="#C85C5B" stop-opacity="0.28"/>
</linearGradient>
<linearGradient id="paint9_linear_1339_3207" x1="243.769" y1="137.216" x2="243.769" y2="205.675" gradientUnits="userSpaceOnUse">
<stop stop-color="#C85C5B" stop-opacity="0.85"/>
<stop offset="1" stop-color="#C85C5B" stop-opacity="0.28"/>
</linearGradient>
<linearGradient id="paint10_linear_1339_3207" x1="227.451" y1="221.426" x2="227.451" y2="240.803" gradientUnits="userSpaceOnUse">
<stop stop-color="#C85C5B" stop-opacity="0.85"/>
<stop offset="1" stop-color="#C85C5B" stop-opacity="0.28"/>
</linearGradient>
<linearGradient id="paint11_linear_1339_3207" x1="269.031" y1="237.477" x2="269.031" y2="242.967" gradientUnits="userSpaceOnUse">
<stop stop-color="#C85C5B" stop-opacity="0.85"/>
<stop offset="1" stop-color="#C85C5B" stop-opacity="0.28"/>
</linearGradient>
<linearGradient id="paint12_linear_1339_3207" x1="255.52" y1="228.163" x2="255.52" y2="242.975" gradientUnits="userSpaceOnUse">
<stop stop-color="#C85C5B" stop-opacity="0.85"/>
<stop offset="1" stop-color="#C85C5B" stop-opacity="0.28"/>
</linearGradient>
<linearGradient id="paint13_linear_1339_3207" x1="81.6716" y1="203.817" x2="81.6716" y2="221.492" gradientUnits="userSpaceOnUse">
<stop stop-color="#C85C5B" stop-opacity="0.85"/>
<stop offset="1" stop-color="#C85C5B" stop-opacity="0.28"/>
</linearGradient>
<linearGradient id="paint14_linear_1339_3207" x1="49.865" y1="228.163" x2="49.865" y2="248.309" gradientUnits="userSpaceOnUse">
<stop stop-color="#C85C5B" stop-opacity="0.85"/>
<stop offset="1" stop-color="#C85C5B" stop-opacity="0.28"/>
</linearGradient>
<linearGradient id="paint15_linear_1339_3207" x1="25.7105" y1="217.889" x2="25.7105" y2="248.317" gradientUnits="userSpaceOnUse">
<stop stop-color="#C85C5B" stop-opacity="0.85"/>
<stop offset="1" stop-color="#C85C5B" stop-opacity="0.28"/>
</linearGradient>
<linearGradient id="paint16_linear_1339_3207" x1="132.504" y1="218.267" x2="132.504" y2="258.353" gradientUnits="userSpaceOnUse">
<stop stop-color="#C85C5B" stop-opacity="0.85"/>
<stop offset="1" stop-color="#C85C5B" stop-opacity="0.28"/>
</linearGradient>
<linearGradient id="paint17_linear_1339_3207" x1="102.609" y1="254.882" x2="102.609" y2="302.091" gradientUnits="userSpaceOnUse">
<stop stop-color="#C85C5B" stop-opacity="0.85"/>
<stop offset="1" stop-color="#C85C5B" stop-opacity="0.28"/>
</linearGradient>
<linearGradient id="paint18_linear_1339_3207" x1="174.814" y1="244.969" x2="174.814" y2="302.091" gradientUnits="userSpaceOnUse">
<stop stop-color="#C85C5B" stop-opacity="0.85"/>
<stop offset="1" stop-color="#C85C5B" stop-opacity="0.28"/>
</linearGradient>
<linearGradient id="paint19_linear_1339_3207" x1="349.359" y1="82.3512" x2="410.99" y2="69.803" gradientUnits="userSpaceOnUse">
<stop stop-color="#C85C5B" stop-opacity="0.73"/>
<stop offset="1" stop-color="#C85C5B" stop-opacity="0.19"/>
</linearGradient>
<linearGradient id="paint20_linear_1339_3207" x1="254.574" y1="98.116" x2="316.209" y2="85.5629" gradientUnits="userSpaceOnUse">
<stop stop-color="#C85C5B" stop-opacity="0.73"/>
<stop offset="1" stop-color="#C85C5B" stop-opacity="0.19"/>
</linearGradient>
<linearGradient id="paint21_linear_1339_3207" x1="306.408" y1="104.227" x2="357.281" y2="99.9669" gradientUnits="userSpaceOnUse">
<stop stop-color="#C85C5B" stop-opacity="0.73"/>
<stop offset="1" stop-color="#C85C5B" stop-opacity="0.19"/>
</linearGradient>
<linearGradient id="paint22_linear_1339_3207" x1="191.399" y1="188.872" x2="350.537" y2="156.474" gradientUnits="userSpaceOnUse">
<stop stop-color="#C85C5B" stop-opacity="0.73"/>
<stop offset="1" stop-color="#C85C5B" stop-opacity="0.19"/>
</linearGradient>
<linearGradient id="paint23_linear_1339_3207" x1="219.735" y1="235.149" x2="283.026" y2="219.423" gradientUnits="userSpaceOnUse">
<stop stop-color="#C85C5B" stop-opacity="0.73"/>
<stop offset="1" stop-color="#C85C5B" stop-opacity="0.19"/>
</linearGradient>
<linearGradient id="paint24_linear_1339_3207" x1="58.1835" y1="283.228" x2="241.652" y2="245.885" gradientUnits="userSpaceOnUse">
<stop stop-color="#C85C5B" stop-opacity="0.73"/>
<stop offset="1" stop-color="#C85C5B" stop-opacity="0.19"/>
</linearGradient>
<linearGradient id="paint25_linear_1339_3207" x1="369.634" y1="52.8896" x2="369.634" y2="69.2952" gradientUnits="userSpaceOnUse">
<stop stop-color="#9B44E2" stop-opacity="0.85"/>
<stop offset="1" stop-color="#C85C5B" stop-opacity="0.28"/>
</linearGradient>
<linearGradient id="paint26_linear_1339_3207" x1="369.645" y1="59.5054" x2="369.645" y2="84.2399" gradientUnits="userSpaceOnUse">
<stop stop-color="#9B44E2" stop-opacity="0.85"/>
<stop offset="1" stop-color="#C85C5B" stop-opacity="0.28"/>
</linearGradient>
<linearGradient id="paint27_linear_1339_3207" x1="274.911" y1="68.7236" x2="274.911" y2="85.0834" gradientUnits="userSpaceOnUse">
<stop stop-color="#9B44E2" stop-opacity="0.85"/>
<stop offset="1" stop-color="#C85C5B" stop-opacity="0.28"/>
</linearGradient>
<linearGradient id="paint28_linear_1339_3207" x1="274.852" y1="74.3828" x2="274.852" y2="100.01" gradientUnits="userSpaceOnUse">
<stop stop-color="#9B44E2" stop-opacity="0.85"/>
<stop offset="1" stop-color="#C85C5B" stop-opacity="0.28"/>
</linearGradient>
<linearGradient id="paint29_linear_1339_3207" x1="312.331" y1="33.4019" x2="312.331" y2="111.014" gradientUnits="userSpaceOnUse">
<stop stop-color="#9B44E2" stop-opacity="0.85"/>
<stop offset="1" stop-color="#C85C5B" stop-opacity="0.28"/>
</linearGradient>
<linearGradient id="paint30_linear_1339_3207" x1="339.821" y1="104.597" x2="339.821" y2="111.015" gradientUnits="userSpaceOnUse">
<stop stop-color="#9B44E2" stop-opacity="0.85"/>
<stop offset="1" stop-color="#C85C5B" stop-opacity="0.28"/>
</linearGradient>
<linearGradient id="paint31_linear_1339_3207" x1="234.615" y1="94.6682" x2="234.615" y2="120.566" gradientUnits="userSpaceOnUse">
<stop stop-color="#9B44E2" stop-opacity="0.85"/>
<stop offset="1" stop-color="#C85C5B" stop-opacity="0.28"/>
</linearGradient>
<linearGradient id="paint32_linear_1339_3207" x1="212.025" y1="116.489" x2="212.025" y2="134.024" gradientUnits="userSpaceOnUse">
<stop stop-color="#9B44E2" stop-opacity="0.85"/>
<stop offset="1" stop-color="#C85C5B" stop-opacity="0.28"/>
</linearGradient>
<linearGradient id="paint33_linear_1339_3207" x1="267.054" y1="143.377" x2="267.054" y2="161.055" gradientUnits="userSpaceOnUse">
<stop stop-color="#9B44E2" stop-opacity="0.85"/>
<stop offset="1" stop-color="#C85C5B" stop-opacity="0.28"/>
</linearGradient>
<linearGradient id="paint34_linear_1339_3207" x1="243.769" y1="130.553" x2="243.769" y2="199.012" gradientUnits="userSpaceOnUse">
<stop stop-color="#9B44E2" stop-opacity="0.85"/>
<stop offset="1" stop-color="#C85C5B" stop-opacity="0.28"/>
</linearGradient>
<linearGradient id="paint35_linear_1339_3207" x1="227.452" y1="214.763" x2="227.452" y2="234.14" gradientUnits="userSpaceOnUse">
<stop stop-color="#9B44E2" stop-opacity="0.85"/>
<stop offset="1" stop-color="#C85C5B" stop-opacity="0.28"/>
</linearGradient>
<linearGradient id="paint36_linear_1339_3207" x1="269.031" y1="230.814" x2="269.031" y2="236.304" gradientUnits="userSpaceOnUse">
<stop stop-color="#9B44E2" stop-opacity="0.85"/>
<stop offset="1" stop-color="#C85C5B" stop-opacity="0.28"/>
</linearGradient>
<linearGradient id="paint37_linear_1339_3207" x1="255.52" y1="221.5" x2="255.52" y2="236.312" gradientUnits="userSpaceOnUse">
<stop stop-color="#9B44E2" stop-opacity="0.85"/>
<stop offset="1" stop-color="#C85C5B" stop-opacity="0.28"/>
</linearGradient>
<linearGradient id="paint38_linear_1339_3207" x1="81.6716" y1="197.154" x2="81.6716" y2="214.829" gradientUnits="userSpaceOnUse">
<stop stop-color="#9B44E2" stop-opacity="0.85"/>
<stop offset="1" stop-color="#C85C5B" stop-opacity="0.28"/>
</linearGradient>
<linearGradient id="paint39_linear_1339_3207" x1="49.8655" y1="221.5" x2="49.8655" y2="241.646" gradientUnits="userSpaceOnUse">
<stop stop-color="#9B44E2" stop-opacity="0.85"/>
<stop offset="1" stop-color="#C85C5B" stop-opacity="0.28"/>
</linearGradient>
<linearGradient id="paint40_linear_1339_3207" x1="25.7105" y1="211.226" x2="25.7105" y2="241.654" gradientUnits="userSpaceOnUse">
<stop stop-color="#9B44E2" stop-opacity="0.85"/>
<stop offset="1" stop-color="#C85C5B" stop-opacity="0.28"/>
</linearGradient>
<linearGradient id="paint41_linear_1339_3207" x1="132.504" y1="211.604" x2="132.504" y2="251.69" gradientUnits="userSpaceOnUse">
<stop stop-color="#9B44E2" stop-opacity="0.85"/>
<stop offset="1" stop-color="#C85C5B" stop-opacity="0.28"/>
</linearGradient>
<linearGradient id="paint42_linear_1339_3207" x1="102.609" y1="248.219" x2="102.609" y2="295.428" gradientUnits="userSpaceOnUse">
<stop stop-color="#9B44E2" stop-opacity="0.85"/>
<stop offset="1" stop-color="#C85C5B" stop-opacity="0.28"/>
</linearGradient>
<linearGradient id="paint43_linear_1339_3207" x1="174.814" y1="238.306" x2="174.814" y2="295.428" gradientUnits="userSpaceOnUse">
<stop stop-color="#9B44E2" stop-opacity="0.85"/>
<stop offset="1" stop-color="#C85C5B" stop-opacity="0.28"/>
</linearGradient>
<linearGradient id="paint44_linear_1339_3207" x1="349.359" y1="75.6886" x2="410.99" y2="63.1404" gradientUnits="userSpaceOnUse">
<stop stop-color="#9B44E2" stop-opacity="0.73"/>
<stop offset="1" stop-color="#C85C5B" stop-opacity="0.19"/>
</linearGradient>
<linearGradient id="paint45_linear_1339_3207" x1="254.574" y1="91.4534" x2="316.209" y2="78.9003" gradientUnits="userSpaceOnUse">
<stop stop-color="#9B44E2" stop-opacity="0.73"/>
<stop offset="1" stop-color="#C85C5B" stop-opacity="0.19"/>
</linearGradient>
<linearGradient id="paint46_linear_1339_3207" x1="306.408" y1="97.5649" x2="357.281" y2="93.3043" gradientUnits="userSpaceOnUse">
<stop stop-color="#9B44E2" stop-opacity="0.73"/>
<stop offset="1" stop-color="#C85C5B" stop-opacity="0.19"/>
</linearGradient>
<linearGradient id="paint47_linear_1339_3207" x1="191.399" y1="182.209" x2="350.537" y2="149.812" gradientUnits="userSpaceOnUse">
<stop stop-color="#9B44E2" stop-opacity="0.73"/>
<stop offset="1" stop-color="#C85C5B" stop-opacity="0.19"/>
</linearGradient>
<linearGradient id="paint48_linear_1339_3207" x1="219.735" y1="228.486" x2="283.026" y2="212.761" gradientUnits="userSpaceOnUse">
<stop stop-color="#9B44E2" stop-opacity="0.73"/>
<stop offset="1" stop-color="#C85C5B" stop-opacity="0.19"/>
</linearGradient>
<linearGradient id="paint49_linear_1339_3207" x1="58.1835" y1="276.566" x2="241.652" y2="239.223" gradientUnits="userSpaceOnUse">
<stop stop-color="#9B44E2" stop-opacity="0.73"/>
<stop offset="1" stop-color="#C85C5B" stop-opacity="0.19"/>
</linearGradient>
<linearGradient id="paint50_linear_1339_3207" x1="369.634" y1="46.2273" x2="369.634" y2="62.6328" gradientUnits="userSpaceOnUse">
<stop stop-color="#28EBCF" stop-opacity="0.85"/>
<stop offset="1" stop-color="#9B44E2" stop-opacity="0.28"/>
</linearGradient>
<linearGradient id="paint51_linear_1339_3207" x1="369.646" y1="52.8428" x2="369.646" y2="77.5773" gradientUnits="userSpaceOnUse">
<stop stop-color="#28EBCF" stop-opacity="0.85"/>
<stop offset="1" stop-color="#9B44E2" stop-opacity="0.28"/>
</linearGradient>
<linearGradient id="paint52_linear_1339_3207" x1="274.911" y1="62.0613" x2="274.911" y2="78.4211" gradientUnits="userSpaceOnUse">
<stop stop-color="#28EBCF" stop-opacity="0.85"/>
<stop offset="1" stop-color="#9B44E2" stop-opacity="0.28"/>
</linearGradient>
<linearGradient id="paint53_linear_1339_3207" x1="274.852" y1="67.7205" x2="274.852" y2="93.3481" gradientUnits="userSpaceOnUse">
<stop stop-color="#28EBCF" stop-opacity="0.85"/>
<stop offset="1" stop-color="#9B44E2" stop-opacity="0.28"/>
</linearGradient>
<linearGradient id="paint54_linear_1339_3207" x1="312.331" y1="26.7395" x2="312.331" y2="104.352" gradientUnits="userSpaceOnUse">
<stop stop-color="#28EBCF" stop-opacity="0.85"/>
<stop offset="1" stop-color="#9B44E2" stop-opacity="0.28"/>
</linearGradient>
<linearGradient id="paint55_linear_1339_3207" x1="339.821" y1="97.9351" x2="339.821" y2="104.352" gradientUnits="userSpaceOnUse">
<stop stop-color="#28EBCF" stop-opacity="0.85"/>
<stop offset="1" stop-color="#9B44E2" stop-opacity="0.28"/>
</linearGradient>
<linearGradient id="paint56_linear_1339_3207" x1="234.615" y1="88.0056" x2="234.615" y2="113.904" gradientUnits="userSpaceOnUse">
<stop stop-color="#28EBCF" stop-opacity="0.85"/>
<stop offset="1" stop-color="#9B44E2" stop-opacity="0.28"/>
</linearGradient>
<linearGradient id="paint57_linear_1339_3207" x1="212.024" y1="109.827" x2="212.024" y2="127.362" gradientUnits="userSpaceOnUse">
<stop stop-color="#28EBCF" stop-opacity="0.85"/>
<stop offset="1" stop-color="#9B44E2" stop-opacity="0.28"/>
</linearGradient>
<linearGradient id="paint58_linear_1339_3207" x1="267.054" y1="136.715" x2="267.054" y2="154.392" gradientUnits="userSpaceOnUse">
<stop stop-color="#28EBCF" stop-opacity="0.85"/>
<stop offset="1" stop-color="#9B44E2" stop-opacity="0.28"/>
</linearGradient>
<linearGradient id="paint59_linear_1339_3207" x1="243.769" y1="123.891" x2="243.769" y2="192.349" gradientUnits="userSpaceOnUse">
<stop stop-color="#28EBCF" stop-opacity="0.85"/>
<stop offset="1" stop-color="#9B44E2" stop-opacity="0.28"/>
</linearGradient>
<linearGradient id="paint60_linear_1339_3207" x1="227.452" y1="208.101" x2="227.452" y2="227.477" gradientUnits="userSpaceOnUse">
<stop stop-color="#28EBCF" stop-opacity="0.85"/>
<stop offset="1" stop-color="#9B44E2" stop-opacity="0.28"/>
</linearGradient>
<linearGradient id="paint61_linear_1339_3207" x1="269.031" y1="224.152" x2="269.031" y2="229.642" gradientUnits="userSpaceOnUse">
<stop stop-color="#28EBCF" stop-opacity="0.85"/>
<stop offset="1" stop-color="#9B44E2" stop-opacity="0.28"/>
</linearGradient>
<linearGradient id="paint62_linear_1339_3207" x1="255.52" y1="214.838" x2="255.52" y2="229.65" gradientUnits="userSpaceOnUse">
<stop stop-color="#28EBCF" stop-opacity="0.85"/>
<stop offset="1" stop-color="#9B44E2" stop-opacity="0.28"/>
</linearGradient>
<linearGradient id="paint63_linear_1339_3207" x1="81.6716" y1="190.492" x2="81.6716" y2="208.166" gradientUnits="userSpaceOnUse">
<stop stop-color="#28EBCF" stop-opacity="0.85"/>
<stop offset="1" stop-color="#9B44E2" stop-opacity="0.28"/>
</linearGradient>
<linearGradient id="paint64_linear_1339_3207" x1="49.8655" y1="214.838" x2="49.8655" y2="234.984" gradientUnits="userSpaceOnUse">
<stop stop-color="#28EBCF" stop-opacity="0.85"/>
<stop offset="1" stop-color="#9B44E2" stop-opacity="0.28"/>
</linearGradient>
<linearGradient id="paint65_linear_1339_3207" x1="25.7105" y1="204.564" x2="25.7105" y2="234.992" gradientUnits="userSpaceOnUse">
<stop stop-color="#28EBCF" stop-opacity="0.85"/>
<stop offset="1" stop-color="#9B44E2" stop-opacity="0.28"/>
</linearGradient>
<linearGradient id="paint66_linear_1339_3207" x1="132.504" y1="204.942" x2="132.504" y2="245.028" gradientUnits="userSpaceOnUse">
<stop stop-color="#28EBCF" stop-opacity="0.85"/>
<stop offset="1" stop-color="#9B44E2" stop-opacity="0.28"/>
</linearGradient>
<linearGradient id="paint67_linear_1339_3207" x1="102.609" y1="241.557" x2="102.609" y2="288.766" gradientUnits="userSpaceOnUse">
<stop stop-color="#28EBCF" stop-opacity="0.85"/>
<stop offset="1" stop-color="#9B44E2" stop-opacity="0.28"/>
</linearGradient>
<linearGradient id="paint68_linear_1339_3207" x1="174.814" y1="231.644" x2="174.814" y2="288.766" gradientUnits="userSpaceOnUse">
<stop stop-color="#28EBCF" stop-opacity="0.85"/>
<stop offset="1" stop-color="#9B44E2" stop-opacity="0.28"/>
</linearGradient>
<linearGradient id="paint69_linear_1339_3207" x1="349.359" y1="69.0263" x2="410.99" y2="56.478" gradientUnits="userSpaceOnUse">
<stop stop-color="#28EBCF" stop-opacity="0.7"/>
<stop offset="1" stop-color="#9B44E2" stop-opacity="0.19"/>
</linearGradient>
<linearGradient id="paint70_linear_1339_3207" x1="254.574" y1="84.791" x2="316.209" y2="72.238" gradientUnits="userSpaceOnUse">
<stop stop-color="#28EBCF" stop-opacity="0.7"/>
<stop offset="1" stop-color="#9B44E2" stop-opacity="0.19"/>
</linearGradient>
<linearGradient id="paint71_linear_1339_3207" x1="306.408" y1="90.9025" x2="357.281" y2="86.6419" gradientUnits="userSpaceOnUse">
<stop stop-color="#28EBCF" stop-opacity="0.7"/>
<stop offset="1" stop-color="#9B44E2" stop-opacity="0.19"/>
</linearGradient>
<linearGradient id="paint72_linear_1339_3207" x1="191.399" y1="175.547" x2="350.537" y2="143.149" gradientUnits="userSpaceOnUse">
<stop stop-color="#28EBCF" stop-opacity="0.7"/>
<stop offset="1" stop-color="#9B44E2" stop-opacity="0.19"/>
</linearGradient>
<linearGradient id="paint73_linear_1339_3207" x1="219.735" y1="221.824" x2="283.026" y2="206.098" gradientUnits="userSpaceOnUse">
<stop stop-color="#28EBCF" stop-opacity="0.7"/>
<stop offset="1" stop-color="#9B44E2" stop-opacity="0.19"/>
</linearGradient>
<linearGradient id="paint74_linear_1339_3207" x1="58.1835" y1="269.903" x2="241.652" y2="232.56" gradientUnits="userSpaceOnUse">
<stop stop-color="#28EBCF" stop-opacity="0.7"/>
<stop offset="1" stop-color="#9B44E2" stop-opacity="0.19"/>
</linearGradient>
<linearGradient id="paint75_linear_1339_3207" x1="369.634" y1="39.5647" x2="369.634" y2="55.9702" gradientUnits="userSpaceOnUse">
<stop stop-color="#28EBCF" stop-opacity="0.85"/>
<stop offset="1" stop-color="#28EBCF" stop-opacity="0.28"/>
</linearGradient>
<linearGradient id="paint76_linear_1339_3207" x1="369.646" y1="46.1804" x2="369.646" y2="70.9149" gradientUnits="userSpaceOnUse">
<stop stop-color="#28EBCF" stop-opacity="0.85"/>
<stop offset="1" stop-color="#28EBCF" stop-opacity="0.28"/>
</linearGradient>
<linearGradient id="paint77_linear_1339_3207" x1="274.912" y1="55.3989" x2="274.912" y2="71.7587" gradientUnits="userSpaceOnUse">
<stop stop-color="#28EBCF" stop-opacity="0.85"/>
<stop offset="1" stop-color="#28EBCF" stop-opacity="0.28"/>
</linearGradient>
<linearGradient id="paint78_linear_1339_3207" x1="274.853" y1="61.0579" x2="274.853" y2="86.6855" gradientUnits="userSpaceOnUse">
<stop stop-color="#28EBCF" stop-opacity="0.85"/>
<stop offset="1" stop-color="#28EBCF" stop-opacity="0.28"/>
</linearGradient>
<linearGradient id="paint79_linear_1339_3207" x1="312.331" y1="20.0771" x2="312.331" y2="97.6897" gradientUnits="userSpaceOnUse">
<stop stop-color="#28EBCF" stop-opacity="0.85"/>
<stop offset="1" stop-color="#28EBCF" stop-opacity="0.28"/>
</linearGradient>
<linearGradient id="paint80_linear_1339_3207" x1="339.821" y1="91.2725" x2="339.821" y2="97.6896" gradientUnits="userSpaceOnUse">
<stop stop-color="#28EBCF" stop-opacity="0.85"/>
<stop offset="1" stop-color="#28EBCF" stop-opacity="0.28"/>
</linearGradient>
<linearGradient id="paint81_linear_1339_3207" x1="234.616" y1="81.3433" x2="234.616" y2="107.241" gradientUnits="userSpaceOnUse">
<stop stop-color="#28EBCF" stop-opacity="0.85"/>
<stop offset="1" stop-color="#28EBCF" stop-opacity="0.28"/>
</linearGradient>
<linearGradient id="paint82_linear_1339_3207" x1="212.025" y1="103.164" x2="212.025" y2="120.699" gradientUnits="userSpaceOnUse">
<stop stop-color="#28EBCF" stop-opacity="0.85"/>
<stop offset="1" stop-color="#28EBCF" stop-opacity="0.28"/>
</linearGradient>
<linearGradient id="paint83_linear_1339_3207" x1="267.054" y1="130.052" x2="267.054" y2="147.73" gradientUnits="userSpaceOnUse">
<stop stop-color="#28EBCF" stop-opacity="0.85"/>
<stop offset="1" stop-color="#28EBCF" stop-opacity="0.28"/>
</linearGradient>
<linearGradient id="paint84_linear_1339_3207" x1="243.77" y1="117.228" x2="243.77" y2="185.687" gradientUnits="userSpaceOnUse">
<stop stop-color="#28EBCF" stop-opacity="0.85"/>
<stop offset="1" stop-color="#28EBCF" stop-opacity="0.28"/>
</linearGradient>
<linearGradient id="paint85_linear_1339_3207" x1="227.452" y1="201.438" x2="227.452" y2="220.815" gradientUnits="userSpaceOnUse">
<stop stop-color="#28EBCF" stop-opacity="0.85"/>
<stop offset="1" stop-color="#28EBCF" stop-opacity="0.28"/>
</linearGradient>
<linearGradient id="paint86_linear_1339_3207" x1="269.032" y1="217.49" x2="269.032" y2="222.979" gradientUnits="userSpaceOnUse">
<stop stop-color="#28EBCF" stop-opacity="0.85"/>
<stop offset="1" stop-color="#28EBCF" stop-opacity="0.28"/>
</linearGradient>
<linearGradient id="paint87_linear_1339_3207" x1="255.521" y1="208.176" x2="255.521" y2="222.987" gradientUnits="userSpaceOnUse">
<stop stop-color="#28EBCF" stop-opacity="0.85"/>
<stop offset="1" stop-color="#28EBCF" stop-opacity="0.28"/>
</linearGradient>
<linearGradient id="paint88_linear_1339_3207" x1="81.6721" y1="183.829" x2="81.6721" y2="201.504" gradientUnits="userSpaceOnUse">
<stop stop-color="#28EBCF" stop-opacity="0.85"/>
<stop offset="1" stop-color="#28EBCF" stop-opacity="0.28"/>
</linearGradient>
<linearGradient id="paint89_linear_1339_3207" x1="49.8659" y1="208.176" x2="49.8659" y2="228.321" gradientUnits="userSpaceOnUse">
<stop stop-color="#28EBCF" stop-opacity="0.85"/>
<stop offset="1" stop-color="#28EBCF" stop-opacity="0.28"/>
</linearGradient>
<linearGradient id="paint90_linear_1339_3207" x1="25.711" y1="197.902" x2="25.711" y2="228.33" gradientUnits="userSpaceOnUse">
<stop stop-color="#28EBCF" stop-opacity="0.85"/>
<stop offset="1" stop-color="#28EBCF" stop-opacity="0.28"/>
</linearGradient>
<linearGradient id="paint91_linear_1339_3207" x1="132.504" y1="198.279" x2="132.504" y2="238.365" gradientUnits="userSpaceOnUse">
<stop stop-color="#28EBCF" stop-opacity="0.85"/>
<stop offset="1" stop-color="#28EBCF" stop-opacity="0.28"/>
</linearGradient>
<linearGradient id="paint92_linear_1339_3207" x1="102.61" y1="234.894" x2="102.61" y2="282.104" gradientUnits="userSpaceOnUse">
<stop stop-color="#28EBCF" stop-opacity="0.85"/>
<stop offset="1" stop-color="#28EBCF" stop-opacity="0.28"/>
</linearGradient>
<linearGradient id="paint93_linear_1339_3207" x1="174.815" y1="224.981" x2="174.815" y2="282.104" gradientUnits="userSpaceOnUse">
<stop stop-color="#28EBCF" stop-opacity="0.85"/>
<stop offset="1" stop-color="#28EBCF" stop-opacity="0.28"/>
</linearGradient>
<linearGradient id="paint94_linear_1339_3207" x1="358.28" y1="27.7636" x2="418.401" y2="76.1434" gradientUnits="userSpaceOnUse">
<stop stop-color="#28EBCF"/>
<stop offset="1" stop-color="#28EBCF" stop-opacity="0.2"/>
</linearGradient>
<linearGradient id="paint95_linear_1339_3207" x1="276.016" y1="48.3217" x2="374.024" y2="102.675" gradientUnits="userSpaceOnUse">
<stop stop-color="#28EBCF"/>
<stop offset="1" stop-color="#28EBCF" stop-opacity="0.2"/>
</linearGradient>
<linearGradient id="paint96_linear_1339_3207" x1="306.122" y1="48.7756" x2="355.737" y2="42.8627" gradientUnits="userSpaceOnUse">
<stop stop-color="#28EBCF"/>
<stop offset="1" stop-color="#28EBCF" stop-opacity="0.2"/>
</linearGradient>
<linearGradient id="paint97_linear_1339_3207" x1="246.758" y1="91.8948" x2="353.162" y2="179.124" gradientUnits="userSpaceOnUse">
<stop offset="0.115" stop-color="#28EBCF"/>
<stop offset="1" stop-color="#28EBCF" stop-opacity="0.2"/>
</linearGradient>
<linearGradient id="paint98_linear_1339_3207" x1="219.154" y1="173.072" x2="270.917" y2="230.928" gradientUnits="userSpaceOnUse">
<stop stop-color="#28EBCF"/>
<stop offset="1" stop-color="#28EBCF" stop-opacity="0.2"/>
</linearGradient>
<linearGradient id="paint99_linear_1339_3207" x1="122.005" y1="174.464" x2="244.696" y2="275.024" gradientUnits="userSpaceOnUse">
<stop offset="0.115" stop-color="#28EBCF"/>
<stop offset="1" stop-color="#28EBCF" stop-opacity="0.2"/>
</linearGradient>
<clipPath id="clip0_1339_3207">
<rect width="392" height="285.091" fill="white" transform="translate(14 17)"/>
</clipPath>
<clipPath id="clip1_1339_3207">
<rect width="388.063" height="265.104" fill="white" transform="translate(16.0195 36.9873)"/>
</clipPath>
<clipPath id="clip2_1339_3207">
<rect width="388.063" height="265.104" fill="white" transform="translate(16.0195 30.3247)"/>
</clipPath>
<clipPath id="clip3_1339_3207">
<rect width="388.063" height="265.104" fill="white" transform="translate(16.0195 23.6624)"/>
</clipPath>
<clipPath id="clip4_1339_3207">
<rect width="388.063" height="265.104" fill="white" transform="translate(16.0195 17)"/>
</clipPath>
</defs>
</svg>
